<?xml version="1.0" encoding="UTF-8" standalone="no"?>
<!-- Created with Inkscape (http://www.inkscape.org/) -->

<svg
   xmlns:dc="http://purl.org/dc/elements/1.1/"
   xmlns:cc="http://creativecommons.org/ns#"
   xmlns:rdf="http://www.w3.org/1999/02/22-rdf-syntax-ns#"
   xmlns:svg="http://www.w3.org/2000/svg"
   xmlns="http://www.w3.org/2000/svg"
   xmlns:sodipodi="http://sodipodi.sourceforge.net/DTD/sodipodi-0.dtd"
   xmlns:inkscape="http://www.inkscape.org/namespaces/inkscape"
   width="600"
   height="600"
   viewBox="0 0 158.75 158.75"
   version="1.1"
   id="svg8"
   inkscape:version="0.92.4 (5da689c313, 2019-01-14)"
   sodipodi:docname="cat_drinks.svg">
  <defs
     id="defs2" />
  <sodipodi:namedview
     id="base"
     pagecolor="#ffffff"
     bordercolor="#666666"
     borderopacity="1.0"
     inkscape:pageopacity="0.0"
     inkscape:pageshadow="2"
     inkscape:zoom="0.24748737"
     inkscape:cx="-993.58038"
     inkscape:cy="81.599473"
     inkscape:document-units="mm"
     inkscape:current-layer="layer1"
     showgrid="false"
     units="px"
     inkscape:window-width="1818"
     inkscape:window-height="1046"
     inkscape:window-x="91"
     inkscape:window-y="-11"
     inkscape:window-maximized="1" />
  <metadata
     id="metadata5">
    <rdf:RDF>
      <cc:Work
         rdf:about="">
        <dc:format>image/svg+xml</dc:format>
        <dc:type
           rdf:resource="http://purl.org/dc/dcmitype/StillImage" />
        <dc:title></dc:title>
      </cc:Work>
    </rdf:RDF>
  </metadata>
  <g
     inkscape:label="Layer 1"
     inkscape:groupmode="layer"
     id="layer1"
     transform="translate(0,-138.25001)">
    <g
       id="g826"
       transform="translate(-4.5519606e-8,6.5e-5)">
      <path
         style="fill:#b9b9b9;fill-opacity:1;stroke-width:0.26458335"
         d="m 61.647916,258.90001 c -0.291042,-0.29105 -0.534535,-0.73753 -0.541094,-0.99219 -0.0066,-0.25466 -0.877581,-7.34098 -1.935604,-15.74738 -1.058022,-8.4064 -1.866249,-15.34179 -1.796059,-15.41198 0.07019,-0.0702 5.625728,-0.12762 12.345639,-0.12762 11.81339,0 12.233617,-0.0172 12.688976,-0.5204 0.601755,-0.66493 0.602781,-1.73272 0.0024,-2.39624 -0.451012,-0.49837 -0.942806,-0.52045 -13.062385,-0.58655 l -12.593807,-0.0687 -0.442157,-3.43958 c -0.243187,-1.89177 -0.452185,-3.52888 -0.464441,-3.63802 -0.01225,-0.10914 -0.658673,-0.19844 -1.436484,-0.19844 -1.982006,0 -2.289965,-0.40459 -2.289965,-3.00855 0,-9.10082 6.25857,-18.78487 14.948959,-23.13092 2.470009,-1.23525 5.905759,-2.36315 7.919421,-2.59981 2.195899,-0.25809 2.154079,-0.1694 1.62678,-3.44961 -0.253606,-1.57762 -0.523859,-3.13629 -0.600565,-3.46371 L 75.87805,179.525 h -9.231734 -9.231733 v -1.85208 -1.85208 h 10.542325 c 9.744012,0 10.574375,0.0354 10.965541,0.46764 0.270795,0.29923 0.714362,2.1958 1.231633,5.26612 0.444629,2.63916 0.808418,4.8695 0.808418,4.95632 0,0.0868 0.249187,0.15783 0.553752,0.15783 0.304562,0 1.738601,0.24146 3.186753,0.53658 5.236255,1.06708 9.433938,3.2552 13.361387,6.96487 5.157648,4.87165 8.123408,11.05774 8.486568,17.70155 0.19284,3.52795 -0.0189,3.90117 -2.21384,3.90117 -0.77781,0 -1.42423,0.0893 -1.43649,0.19844 -0.0123,0.10914 -0.2212,1.74625 -0.46433,3.63802 l -0.44206,3.43958 -6.201084,0.0712 c -6.886411,0.079 -7.157739,0.14652 -7.157739,1.78094 0,1.64277 0.304054,1.71979 6.789756,1.71979 3.202128,0 5.879477,0.0574 5.949667,0.12762 0.0702,0.0702 -0.73804,7.00558 -1.796057,15.41198 -1.058024,8.4064 -1.929046,15.49272 -1.935605,15.74738 -0.0066,0.25466 -0.250052,0.70114 -0.541094,0.99219 -0.518311,0.51831 -0.881944,0.52916 -17.727084,0.52916 -16.84514,0 -17.208773,-0.0108 -17.727084,-0.52916 z m 40.917594,-48.44057 c -0.24272,-2.32223 -1.58835,-6.13307 -3.027113,-8.57284 -1.625778,-2.75689 -5.354837,-6.55288 -7.917429,-8.05954 -7.763302,-4.56436 -16.728634,-4.56436 -24.491936,0 -2.562592,1.50666 -6.291651,5.30265 -7.91743,8.05954 -1.438762,2.43977 -2.784392,6.25061 -3.027112,8.57284 l -0.168207,1.60931 H 79.375 102.73372 Z"
         id="path840"
         inkscape:connector-curvature="0" />
      <path
         style="fill:#a3a3a3;fill-opacity:1;stroke-width:0.26458335"
         d="m 61.647916,258.90001 c -0.291042,-0.29105 -0.529167,-0.6527 -0.529167,-0.80368 0,-0.15098 -0.833437,-7.0095 -1.852083,-15.24116 -1.018646,-8.23166 -1.852083,-15.25188 -1.852083,-15.60049 v -0.63384 h 12.283922 12.283922 l 0.54837,-0.69714 c 0.301604,-0.38343 0.54837,-0.84362 0.54837,-1.02265 0,-0.17904 -0.246766,-0.63923 -0.54837,-1.02265 l -0.54837,-0.69714 H 69.438961 56.895498 l -0.12737,-0.59532 c -0.07005,-0.32742 -0.255399,-1.7264 -0.411879,-3.10885 -0.444101,-3.92349 -0.334144,-3.70417 -1.857124,-3.70417 -0.993191,0 -1.457153,-0.13928 -1.883195,-0.56532 -0.525388,-0.52539 -0.55479,-0.75432 -0.416252,-3.24114 0.519934,-9.33303 6.333429,-18.03091 14.945616,-22.36093 2.106274,-1.05898 5.881756,-2.31813 7.599497,-2.53447 0.727605,-0.0916 1.575285,-0.21802 1.883733,-0.28084 l 0.560819,-0.11423 -0.487151,-2.7156 c -0.267933,-1.49358 -0.555172,-3.10101 -0.638312,-3.57208 l -0.151159,-0.85648 -9.182924,-0.0696 -9.182923,-0.0696 -0.07823,-1.78594 -0.07823,-1.78593 H 67.979729 78.56905 l 0.385154,0.59531 c 0.287811,0.44485 2.008296,9.04121 2.008296,10.03439 0,0.0865 0.979451,0.30055 2.176553,0.47559 11.442094,1.67306 20.669337,10.32897 22.988417,21.56501 0.27096,1.31284 0.49423,3.25019 0.49614,4.30522 0.004,2.44032 -0.42304,2.97656 -2.37274,2.97656 -1.52297,0 -1.41302,-0.21932 -1.85712,3.70417 -0.15648,1.38245 -0.34182,2.78143 -0.41188,3.10885 l -0.12737,0.59532 h -6.171657 c -5.642986,0 -6.20917,0.0414 -6.609543,0.48385 -0.581202,0.64222 -0.556916,1.97224 0.04597,2.51785 0.419606,0.37973 1.262785,0.43788 6.35,0.43788 h 5.86615 v 0.63431 c 0,0.34887 -0.83344,7.36046 -1.852087,15.58132 -1.018646,8.22085 -1.852083,15.07916 -1.852083,15.24069 0,0.16152 -0.238125,0.5318 -0.529167,0.82285 -0.518311,0.51831 -0.881944,0.52916 -17.727084,0.52916 -16.84514,0 -17.208773,-0.0108 -17.727084,-0.52916 z M 102.6403,210.67969 c -0.68723,-4.91955 -2.772833,-9.26163 -6.162654,-12.83023 -3.138652,-3.30419 -6.307598,-5.26195 -10.674173,-6.59445 -2.09708,-0.63995 -2.733323,-0.71024 -6.428473,-0.71024 -3.69515,0 -4.331393,0.0703 -6.428473,0.71024 -9.141429,2.7896 -15.562435,10.19668 -16.838753,19.42468 l -0.192121,1.38906 H 79.375 102.83435 Z"
         id="path838"
         inkscape:connector-curvature="0" />
      <path
         style="fill:#8c8c8c;fill-opacity:1;stroke-width:0.26458335"
         d="m 61.70046,258.89545 c -0.421074,-0.45197 -0.78798,-2.89375 -2.395335,-15.94115 -1.043953,-8.47408 -1.896396,-15.61578 -1.894319,-15.87044 0.0035,-0.43427 0.766567,-0.46302 12.288003,-0.46302 10.587998,0 12.339244,-0.055 12.682667,-0.39844 0.709788,-0.70979 0.790028,-1.46835 0.234096,-2.21304 l -0.519438,-0.69581 -12.605359,-0.0687 c -6.932946,-0.0378 -12.615387,-0.15685 -12.627642,-0.26458 -0.01226,-0.10773 -0.220831,-1.74368 -0.4635,-3.63545 l -0.441217,-3.43959 -1.546001,-0.13748 c -2.180679,-0.19393 -2.375604,-0.52041 -2.208433,-3.69898 0.509937,-9.69586 6.599871,-18.53756 15.70804,-22.80579 2.310101,-1.08256 6.670477,-2.32962 8.145516,-2.32962 0.46641,0 0.909021,-0.061 0.98358,-0.13556 0.117264,-0.11727 -0.596638,-4.97813 -0.980199,-6.67404 l -0.133866,-0.59189 -9.190088,-0.0696 -9.190091,-0.0696 -0.07823,-1.78594 -0.07823,-1.78593 h 10.463131 c 10.110354,0 10.480971,0.0178 10.992297,0.52916 0.291042,0.29105 0.53054,0.61847 0.53222,0.72761 0.0061,0.39917 1.562995,9.39323 1.638665,9.4667 0.04294,0.0417 1.209168,0.26809 2.591615,0.50312 3.249288,0.55241 5.419485,1.26581 8.202084,2.69624 8.506894,4.37309 14.248984,13.07261 14.735604,22.32508 0.16717,3.17857 -0.0278,3.50505 -2.20843,3.69898 l -1.54601,0.13748 -0.44121,3.43959 c -0.24267,1.89177 -0.45125,3.52888 -0.4635,3.63802 -0.0123,0.10914 -2.801804,0.19844 -6.198988,0.19844 -5.805995,0 -6.204966,0.0312 -6.647656,0.52039 -0.602565,0.66583 -0.602565,1.73296 0,2.39879 0.441542,0.4879 0.840174,0.5204 6.383073,0.5204 5.452761,0 5.912411,0.036 5.915891,0.46302 0.002,0.25466 -0.85036,7.39636 -1.894317,15.87044 -1.607354,13.0474 -1.97426,15.48918 -2.395334,15.94115 -0.488788,0.52466 -0.789088,0.53372 -17.67454,0.53372 -16.885452,0 -17.185752,-0.009 -17.67454,-0.53372 z m 41.04584,-47.81888 c -0.78719,-5.44844 -2.838868,-9.69025 -6.541016,-13.52344 -8.079071,-8.36504 -20.590881,-9.57824 -30.324034,-2.94035 -1.903757,1.29833 -4.941616,4.46083 -6.291705,6.54983 -1.80074,2.7863 -3.058428,6.26349 -3.585843,9.91396 l -0.143351,0.99218 H 79.375 102.88965 Z"
         id="path836"
         inkscape:connector-curvature="0" />
      <path
         style="fill:#767676;fill-opacity:1;stroke-width:0.26458335"
         d="m 61.7192,258.79825 c -0.410562,-0.52195 -0.825907,-3.27555 -2.40452,-15.94115 -1.049528,-8.42062 -1.906402,-15.51858 -1.904165,-15.77324 0.0038,-0.43418 0.766277,-0.46327 12.241047,-0.46707 6.730339,-0.002 12.367983,-0.0915 12.528101,-0.19844 0.517512,-0.34555 0.933251,-1.39103 0.764537,-1.92261 -0.4289,-1.35134 -0.05057,-1.31448 -13.493764,-1.31448 H 56.917839 l -0.157892,-1.12448 c -0.08684,-0.61847 -0.302496,-2.25558 -0.479233,-3.63802 l -0.32134,-2.51355 -1.54648,-0.13748 c -2.18861,-0.19457 -2.381818,-0.52037 -2.193623,-3.69898 0.357495,-6.03811 2.972981,-12.07914 7.212103,-16.6579 4.062585,-4.38807 10.480808,-7.74468 16.003469,-8.36949 0.863913,-0.0977 1.617012,-0.25257 1.673556,-0.34406 0.05654,-0.0915 -0.12133,-1.41526 -0.395274,-2.94172 -0.273947,-1.52645 -0.566394,-3.16232 -0.649886,-3.63526 l -0.151802,-0.8599 h -9.248426 -9.248428 v -1.71979 -1.71979 h 10.400472 c 8.314452,0 10.498463,0.0717 10.889033,0.35724 0.378915,0.27707 0.684649,1.47204 1.3623,5.32458 0.48056,2.73203 0.92565,5.01924 0.989095,5.08269 0.06344,0.0634 0.931677,0.2296 1.929413,0.36923 11.855881,1.6593 21.192774,10.66815 23.253844,22.43685 0.49299,2.81501 0.49952,5.06997 0.0166,5.73042 -0.26695,0.36507 -0.80773,0.54715 -1.91823,0.64588 l -1.54647,0.13748 -0.32134,2.51355 c -0.17674,1.38244 -0.3924,3.01955 -0.47924,3.63802 l -0.15789,1.12448 h -6.182292 -6.182294 l -0.54837,0.69714 c -0.301604,0.38342 -0.54837,0.84361 -0.54837,1.02265 0,0.17903 0.246766,0.63922 0.54837,1.02265 l 0.54837,0.69714 h 5.933922 c 5.473414,0 5.934234,0.0359 5.937984,0.46302 0.002,0.25466 -0.85463,7.35262 -1.90416,15.77324 -1.578613,12.6656 -1.993958,15.4192 -2.40452,15.94115 l -0.49629,0.63092 H 79.375 62.21549 Z m 41.02971,-47.98627 c -0.0901,-0.69122 -0.44585,-2.24359 -0.79047,-3.44972 -1.961727,-6.86577 -7.020415,-12.52933 -13.587606,-15.21229 -3.484349,-1.42349 -4.721985,-1.64554 -9.128126,-1.63769 -3.327611,0.006 -4.310689,0.10484 -6.085417,0.61234 -7.950168,2.27344 -14.126522,8.40086 -16.365098,16.23545 -0.344969,1.20733 -0.700965,2.76069 -0.791102,3.45191 l -0.163885,1.25677 H 79.375 102.91279 Z"
         id="path834"
         inkscape:connector-curvature="0" />
      <path
         style="fill:#606060;fill-opacity:1;stroke-width:0.26458335"
         d="m 61.761877,258.87975 c -0.418539,-0.46248 -0.799713,-2.96406 -2.408852,-15.80885 -1.051399,-8.39269 -1.917666,-15.4678 -1.925038,-15.72246 -0.01257,-0.43421 0.716663,-0.46302 11.721073,-0.46302 7.885142,0 12.009639,-0.0959 12.573294,-0.29241 1.389457,-0.48437 1.799106,-1.91113 0.827646,-2.88259 -0.514273,-0.51427 -0.881943,-0.52916 -13.063802,-0.52916 H 56.951562 l -0.140566,-0.72761 c -0.07731,-0.40018 -0.291333,-2.06706 -0.475605,-3.70417 l -0.33504,-2.97656 H 54.5908 c -2.538044,0 -2.966741,-1.31554 -2.079536,-6.38149 1.668342,-9.52623 8.41026,-17.65773 17.310288,-20.87814 2.429459,-0.87908 5.393322,-1.57995 6.681351,-1.57995 0.729133,0 0.784907,-0.0624 0.650835,-0.72761 -0.08065,-0.40018 -0.330044,-1.85869 -0.554204,-3.24114 -0.224163,-1.38245 -0.467558,-2.78144 -0.540882,-3.10886 l -0.133316,-0.59531 h -9.123085 -9.123085 v -1.71979 -1.71979 h 10.31875 c 9.66302,0 10.349657,0.0309 10.805081,0.48633 0.359905,0.3599 0.684006,1.70349 1.24672,5.16837 0.418213,2.57513 0.83997,4.81082 0.937238,4.9682 0.09727,0.15738 1.232887,0.44531 2.523594,0.63983 11.535111,1.73847 20.701471,10.73531 22.728191,22.30786 0.8872,5.06595 0.4585,6.38149 -2.07954,6.38149 h -1.40955 l -0.33504,2.97656 c -0.18427,1.63711 -0.3983,3.30399 -0.47561,3.70417 l -0.14056,0.72761 -6.118491,0.004 c -3.36517,0.002 -6.249493,0.0915 -6.409611,0.19844 -1.216779,0.81247 -0.926722,2.72679 0.487881,3.21992 0.469241,0.16358 3.066664,0.28176 6.192721,0.28176 4.95655,0 5.38346,0.0368 5.3717,0.46302 -0.007,0.25466 -0.87512,7.33178 -1.929092,15.72693 -1.605254,12.7863 -1.996358,15.35236 -2.409476,15.80885 -0.488246,0.53951 -0.663991,0.54495 -17.609072,0.54495 -16.990203,0 -17.119556,-0.004 -17.613123,-0.54942 z m 41.010933,-48.06777 c -0.29678,-2.04333 -1.38164,-5.5269 -2.26977,-7.28836 -3.413196,-6.76959 -9.285033,-11.28143 -16.614857,-12.76664 -2.95707,-0.59918 -8.017743,-0.41379 -10.863183,0.39795 -8.592699,2.45132 -15.076126,9.57906 -16.818318,18.4897 -0.20878,1.06783 -0.3796,2.0501 -0.3796,2.18282 0,0.14355 9.546321,0.2413 23.564129,0.2413 h 23.564129 z"
         id="path832"
         inkscape:connector-curvature="0" />
      <path
         style="fill:#494949;fill-opacity:1;stroke-width:0.26458335"
         d="m 61.765388,258.88363 c -0.414544,-0.45807 -0.800735,-3.0141 -2.40855,-15.94114 -1.053164,-8.46759 -1.921011,-15.54101 -1.928549,-15.71872 -0.01056,-0.24899 2.814036,-0.34003 12.312954,-0.39688 l 12.32666,-0.0738 0.505632,-0.62462 c 0.643276,-0.79467 0.643273,-1.66027 -5e-6,-2.45492 l -0.505638,-0.62463 -12.563184,-0.0736 -12.563186,-0.0736 -0.14844,-0.85248 c -0.08164,-0.46886 -0.291283,-2.07286 -0.465869,-3.56445 l -0.31743,-2.71198 h -1.368146 c -1.113675,0 -1.482603,-0.12183 -1.98351,-0.65502 -0.578511,-0.6158 -0.605481,-0.79425 -0.450346,-2.97981 0.701482,-9.88252 7.032709,-18.99928 15.942239,-22.95629 2.11682,-0.94015 5.529321,-1.9119 7.494993,-2.13429 0.887327,-0.10039 1.61332,-0.26538 1.61332,-0.36666 0,-0.23548 -1.017619,-6.03588 -1.197395,-6.82512 l -0.135602,-0.59531 h -9.123085 -9.123085 v -1.71979 -1.71979 h 10.272631 10.272628 l 0.536657,0.59531 c 0.401325,0.44519 0.685998,1.52942 1.128861,4.29948 0.32571,2.03729 0.710149,4.26971 0.854305,4.96094 0.257858,1.23641 0.278606,1.25677 1.281213,1.25677 4.302906,0 11.100898,2.94592 15.425212,6.68454 5.061307,4.3758 8.599097,11.58256 9.091547,18.52021 0.15514,2.18556 0.12816,2.36401 -0.45035,2.97981 -0.5009,0.53319 -0.86983,0.65502 -1.98351,0.65502 h -1.36814 l -0.31743,2.71198 c -0.17459,1.49159 -0.38486,3.09893 -0.46727,3.57188 l -0.14983,0.85989 h -5.804524 c -4.571326,0 -5.963227,0.0821 -6.55151,0.38628 -1.32511,0.68524 -1.326613,2.51017 -0.0026,3.19483 0.588729,0.30445 1.944899,0.38764 6.318999,0.38764 4.286435,0 5.566235,0.0762 5.555685,0.33073 -0.008,0.1819 -0.87835,7.28281 -1.935151,15.77979 -1.820479,14.63727 -1.953376,15.47491 -2.529147,15.94115 -0.578326,0.46831 -1.42876,0.49208 -17.602994,0.49208 -16.829321,0 -17.000128,-0.005 -17.489015,-0.54554 z m 40.950752,-47.87321 c -0.20948,-3.34867 -2.24334,-8.32781 -4.726016,-11.56987 -3.37384,-4.4058 -8.339374,-7.51101 -13.871901,-8.67481 -2.395784,-0.50397 -7.090662,-0.50397 -9.486446,0 -7.856098,1.65258 -14.244659,7.05099 -17.225957,14.55614 -0.814931,2.05151 -1.7025,6.04272 -1.475397,6.63455 0.125382,0.32674 3.408364,0.37035 23.502971,0.3122 l 23.357236,-0.0676 z"
         id="path830"
         inkscape:connector-curvature="0" />
      <path
         style="fill:#333333;fill-opacity:1;stroke-width:0.26458335"
         d="m 61.915042,258.95527 c -0.545547,-0.44176 -0.707845,-1.46037 -2.392408,-15.01511 -0.993937,-7.99766 -1.878504,-15.10331 -1.965705,-15.79033 l -0.158547,-1.24914 12.334762,-0.0738 12.334759,-0.0738 0.505632,-0.62462 c 0.643276,-0.79467 0.643273,-1.66027 -5e-6,-2.45492 l -0.505638,-0.62463 -12.558607,-0.0736 -12.558609,-0.0736 -0.147421,-0.98477 c -0.08108,-0.54163 -0.289061,-2.14563 -0.462175,-3.56446 l -0.314752,-2.57969 h -1.302274 c -1.048531,0 -1.435856,-0.13358 -1.987848,-0.68557 -0.664497,-0.6645 -0.680247,-0.75614 -0.512304,-2.98085 0.607849,-8.05204 4.837769,-15.61241 11.315383,-20.22461 3.398927,-2.42011 8.418661,-4.39845 12.32543,-4.85762 0.76649,-0.0901 1.386199,-0.29622 1.377129,-0.45809 -0.0091,-0.16187 -0.280458,-1.84211 -0.603088,-3.73388 l -0.5866,-3.43959 -9.186495,-0.0696 -9.186495,-0.0696 v -1.71636 -1.71636 H 67.978713 78.27826 l 0.504129,0.64089 c 0.356507,0.45323 0.716071,1.94464 1.227918,5.09323 0.398087,2.44879 0.777856,4.64385 0.843939,4.87791 0.0889,0.31491 0.591351,0.46938 1.932096,0.59399 0.996572,0.0926 2.869131,0.47448 4.16124,0.84858 10.884421,3.15132 18.719198,12.84793 19.578518,24.23106 0.16794,2.22471 0.15219,2.31635 -0.51231,2.98085 -0.55199,0.55199 -0.93931,0.68557 -1.98784,0.68557 h -1.30228 l -0.31475,2.57969 c -0.17311,1.41883 -0.38066,3.02015 -0.46122,3.5585 l -0.14647,0.97881 -6.209827,0.0795 c -6.162673,0.0789 -6.213666,0.0843 -6.715199,0.70415 -0.642935,0.79465 -0.642943,1.66025 -2.1e-5,2.45492 0.500348,0.61844 0.56456,0.62541 6.48953,0.70489 l 5.984187,0.0803 -0.15769,1.24265 c -0.0867,0.68345 -0.97091,7.78618 -1.964844,15.78384 -1.684563,13.55474 -1.846861,14.57335 -2.392408,15.01511 -0.548828,0.44441 -1.635376,0.4739 -17.459958,0.4739 -15.824582,0 -16.91113,-0.0295 -17.459958,-0.4739 z m 41.007878,-47.16225 c 0,-0.29718 -0.18875,-1.45804 -0.41945,-2.57969 -1.8078,-8.78955 -8.485856,-15.86967 -17.175345,-18.20942 -2.633305,-0.70905 -9.272945,-0.70905 -11.90625,0 -8.689489,2.33975 -15.36754,9.41987 -17.175343,18.20942 -0.230697,1.12165 -0.41945,2.28251 -0.41945,2.57969 0,0.53999 0.01435,0.54032 23.547918,0.54032 23.53357,0 23.54792,-2.7e-4 23.54792,-0.54032 z"
         id="path828"
         inkscape:connector-curvature="0" />
    </g>
  </g>
</svg>
