<?xml version="1.0" encoding="UTF-8" standalone="no"?>
<!-- Created with Inkscape (http://www.inkscape.org/) -->

<svg
   width="600"
   height="600"
   viewBox="0 0 158.75 158.75"
   version="1.1"
   id="svg5"
   xml:space="preserve"
   inkscape:version="1.2.2 (b0a8486541, 2022-12-01)"
   sodipodi:docname="education.svg"
   xmlns:inkscape="http://www.inkscape.org/namespaces/inkscape"
   xmlns:sodipodi="http://sodipodi.sourceforge.net/DTD/sodipodi-0.dtd"
   xmlns="http://www.w3.org/2000/svg"
   xmlns:svg="http://www.w3.org/2000/svg"><sodipodi:namedview
     id="namedview7"
     pagecolor="#ffffff"
     bordercolor="#111111"
     borderopacity="1"
     inkscape:showpageshadow="0"
     inkscape:pageopacity="0"
     inkscape:pagecheckerboard="1"
     inkscape:deskcolor="#d1d1d1"
     inkscape:document-units="mm"
     showgrid="false"
     inkscape:zoom="0.5"
     inkscape:cx="453"
     inkscape:cy="218"
     inkscape:window-width="1858"
     inkscape:window-height="1040"
     inkscape:window-x="55"
     inkscape:window-y="33"
     inkscape:window-maximized="1"
     inkscape:current-layer="layer1" /><defs
     id="defs2" /><g
     inkscape:label="Layer 1"
     inkscape:groupmode="layer"
     id="layer1"><path
       style="fill:#000000;stroke-width:0.186013"
       d="m 40.436616,115.04299 c -2.076861,-2.92769 -3.807158,-5.94279 -4.401052,-7.66898 -0.962252,-2.79684 0.0805,-5.71114 2.503368,-6.99648 l 0.843474,-0.447457 V 86.067655 72.205239 L 36.01519,70.535254 c -3.449922,-1.711011 -4.259319,-2.315609 -4.259319,-3.181601 0,-1.333007 -1.019635,-0.768448 23.815703,-13.186434 15.265289,-7.632839 23.436758,-11.622788 23.803619,-11.622788 0.366861,0 8.53833,3.989949 23.803617,11.622788 24.8107,12.405663 23.8157,11.855202 23.8157,13.175621 0,0.96993 -0.65626,1.384587 -8.02021,5.067503 l -7.23285,3.617353 v -2.942911 c 0,-3.41198 -0.19906,-4.316481 -1.25267,-5.692086 -2.65357,-3.46452 -9.108,-5.07098 -22.929013,-5.706867 -5.16284,-0.237537 -16.176915,-0.129778 -20.554436,0.201097 -3.184475,0.240698 -7.96524,0.829452 -9.907124,1.220068 -4.968132,0.999351 -8.322953,2.893145 -9.541633,5.386244 -0.420678,0.860602 -0.459226,1.176225 -0.516116,4.225975 l -0.06145,3.295908 -1.841771,-0.924243 c -1.013012,-0.508334 -1.885177,-0.924245 -1.938193,-0.924245 -0.05301,0 -0.09639,5.804844 -0.09639,12.899653 v 12.899654 l 0.724315,0.326617 c 1.560421,0.70365 2.895468,2.63892 3.118051,4.5199 0.1259,1.06397 -0.530761,3.20427 -1.555106,5.06867 -0.670547,1.22044 -3.952659,6.32444 -4.066917,6.32444 -0.03396,0 -0.432799,-0.52316 -0.886388,-1.16259 z M 72.771731,89.97364 C 58.689766,89.510019 50.915206,87.575038 50.915206,84.533847 c 0,-1.308771 5.14018,-2.591154 13.671958,-3.410909 4.100629,-0.394 19.739035,-0.565935 25.043832,-0.275342 8.527595,0.467136 14.325674,1.368291 17.041594,2.648657 1.06207,0.500687 1.16259,0.59846 1.16259,1.130808 0,0.453136 -0.20013,0.77563 -0.89986,1.45008 -2.52636,2.435082 -10.642819,3.729015 -24.862938,3.96367 -2.659984,0.04389 -6.84528,0.01367 -9.300651,-0.06717 z M 50.730236,75.515231 c 5.55e-4,-2.327488 0.08345,-4.528479 0.18419,-4.891093 0.660233,-2.376596 5.270383,-3.887663 14.557164,-4.771397 4.362279,-0.415117 22.183488,-0.476748 26.738499,-0.09247 9.879171,0.833444 14.944171,2.410028 15.625871,4.863866 0.28487,1.025446 0.24289,9.123478 -0.0473,9.120512 -0.12788,-0.0013 -0.88583,-0.211015 -1.68432,-0.466022 -3.10014,-0.990059 -7.54962,-1.677565 -14.080275,-2.175596 -4.09783,-0.312502 -21.580989,-0.307134 -25.483781,0.0078 -6.565681,0.529856 -10.86674,1.200903 -13.894267,2.167773 -0.798493,0.255007 -1.556435,0.464716 -1.684318,0.466022 -0.179303,0.0018 -0.232278,-0.96618 -0.231476,-4.22942 z"
       id="path601" /></g></svg>
