<?xml version="1.0" encoding="UTF-8" standalone="no"?>
<!-- Created with Inkscape (http://www.inkscape.org/) -->

<svg
   xmlns:dc="http://purl.org/dc/elements/1.1/"
   xmlns:cc="http://creativecommons.org/ns#"
   xmlns:rdf="http://www.w3.org/1999/02/22-rdf-syntax-ns#"
   xmlns:svg="http://www.w3.org/2000/svg"
   xmlns="http://www.w3.org/2000/svg"
   xmlns:sodipodi="http://sodipodi.sourceforge.net/DTD/sodipodi-0.dtd"
   xmlns:inkscape="http://www.inkscape.org/namespaces/inkscape"
   width="600"
   height="600"
   viewBox="0 0 158.75 158.75"
   version="1.1"
   id="svg929"
   sodipodi:docname="electronics.svg"
   inkscape:version="0.92.4 (5da689c313, 2019-01-14)">
  <defs
     id="defs923" />
  <sodipodi:namedview
     id="base"
     pagecolor="#ffffff"
     bordercolor="#666666"
     borderopacity="1.0"
     inkscape:pageopacity="0.0"
     inkscape:pageshadow="2"
     inkscape:zoom="0.35"
     inkscape:cx="-155.71429"
     inkscape:cy="-125.71429"
     inkscape:document-units="mm"
     inkscape:current-layer="layer1"
     showgrid="false"
     units="px"
     inkscape:pagecheckerboard="true"
     inkscape:window-width="1825"
     inkscape:window-height="1046"
     inkscape:window-x="84"
     inkscape:window-y="-11"
     inkscape:window-maximized="1" />
  <metadata
     id="metadata926">
    <rdf:RDF>
      <cc:Work
         rdf:about="">
        <dc:format>image/svg+xml</dc:format>
        <dc:type
           rdf:resource="http://purl.org/dc/dcmitype/StillImage" />
        <dc:title></dc:title>
      </cc:Work>
    </rdf:RDF>
  </metadata>
  <g
     inkscape:label="Layer 1"
     inkscape:groupmode="layer"
     id="layer1"
     transform="translate(0,-138.24999)">
    <path
       style="fill:#ffffff;stroke-width:0.26458338"
       d="m 56.620155,257.14637 c -1.36332,-0.48426 -3.11884,-2.14187 -3.8646,-3.64906 -0.5126,-1.03599 -0.52512,-1.78444 -0.59275,-35.44318 -0.0782,-38.91644 -0.23483,-35.98018 2.04087,-38.25588 2.22832,-2.22832 0.90852,-2.12289 25.567997,-2.04249 l 21.687198,0.0707 1.31568,0.67684 c 1.47882,0.76077 3.06346,2.6495 3.53034,4.2078 0.42493,1.41827 0.42493,68.45204 0,69.87031 -0.46688,1.55831 -2.05152,3.44703 -3.53034,4.2078 l -1.31569,0.67684 -21.835355,0.0476 c -19.2382,0.0419 -21.97428,-0.002 -23.00335,-0.36728 z m 26.038827,-7.08847 c 8.964647,-1.8757 14.806922,-11.08868 12.57231,-19.82593 -0.851678,-3.33004 -1.968225,-5.29964 -4.364675,-7.69936 -3.53096,-3.53576 -7.53917,-5.0831 -12.440968,-4.80274 -9.917687,0.56726 -17.138224,9.88193 -15.112533,19.49556 1.877151,8.90874 10.562893,14.67015 19.345866,12.83247 z m -5.556249,-11.08634 c -2.863639,-1.2621 -4.02041,-4.92611 -2.418316,-7.65987 2.571343,-4.38767 9.180616,-3.10241 10.063491,1.95696 0.366432,2.09987 -1.185112,4.86691 -3.204906,5.71567 -1.074754,0.45164 -3.401743,0.44495 -4.440269,-0.0127 z M 97.607941,197.67022 V 186.69001 H 79.351691 61.095435 v 10.98021 10.98021 h 18.256256 18.25625 z"
       id="path909"
       inkscape:connector-curvature="0"
       inkscape:export-xdpi="96"
       inkscape:export-ydpi="96" />
  </g>
</svg>
