<?xml version="1.0" encoding="UTF-8" standalone="no"?>
<!-- Created with Inkscape (http://www.inkscape.org/) -->

<svg
   xmlns:dc="http://purl.org/dc/elements/1.1/"
   xmlns:cc="http://creativecommons.org/ns#"
   xmlns:rdf="http://www.w3.org/1999/02/22-rdf-syntax-ns#"
   xmlns:svg="http://www.w3.org/2000/svg"
   xmlns="http://www.w3.org/2000/svg"
   xmlns:sodipodi="http://sodipodi.sourceforge.net/DTD/sodipodi-0.dtd"
   xmlns:inkscape="http://www.inkscape.org/namespaces/inkscape"
   width="600"
   height="600"
   viewBox="0 0 158.75 158.75"
   version="1.1"
   id="svg929"
   sodipodi:docname="entertainment.svg"
   inkscape:version="0.92.4 (5da689c313, 2019-01-14)">
  <defs
     id="defs923" />
  <sodipodi:namedview
     id="base"
     pagecolor="#ffffff"
     bordercolor="#666666"
     borderopacity="1.0"
     inkscape:pageopacity="0.0"
     inkscape:pageshadow="2"
     inkscape:zoom="0.35"
     inkscape:cx="-155.71429"
     inkscape:cy="-125.71429"
     inkscape:document-units="mm"
     inkscape:current-layer="layer1"
     showgrid="false"
     units="px"
     inkscape:pagecheckerboard="true"
     inkscape:window-width="1825"
     inkscape:window-height="1046"
     inkscape:window-x="84"
     inkscape:window-y="-11"
     inkscape:window-maximized="1" />
  <metadata
     id="metadata926">
    <rdf:RDF>
      <cc:Work
         rdf:about="">
        <dc:format>image/svg+xml</dc:format>
        <dc:type
           rdf:resource="http://purl.org/dc/dcmitype/StillImage" />
        <dc:title></dc:title>
      </cc:Work>
    </rdf:RDF>
  </metadata>
  <g
     inkscape:label="Layer 1"
     inkscape:groupmode="layer"
     id="layer1"
     transform="translate(0,-138.24999)">
    <path
       style="fill:#ffffff;stroke-width:0.26458338"
       d="m 41.275,217.62498 v -38.1 h 38.1 38.1 v 38.1 38.10001 h -38.1 -38.1 z m 10.84792,31.8823 v -2.77813 h -3.70417 -3.70417 v 2.77813 2.77812 h 3.70417 3.70417 z m 61.9125,0 v -2.77813 h -3.70417 -3.70416 v 2.77813 2.77812 h 3.70416 3.70417 z m -61.9125,-9.12813 v -2.64583 h -3.70417 -3.70417 v 2.64583 2.64584 h 3.70417 3.70417 z m 61.9125,0 v -2.64583 h -3.70417 -3.70416 v 2.64583 2.64584 h 3.70416 3.70417 z m -61.9125,-9.12812 v -2.77813 h -3.70417 -3.70417 v 2.77813 2.77812 h 3.70417 3.70417 z m 61.9125,0 v -2.77813 h -3.70417 -3.70416 v 2.77813 2.77812 h 3.70416 3.70417 z m -61.96939,-9.06198 0.0754,-2.71198 H 48.428 44.71458 v 2.60173 c 0,1.43096 0.0827,2.68441 0.18371,2.78545 0.10104,0.10104 1.73815,0.15065 3.63802,0.11024 l 3.45431,-0.0735 z m 61.9125,0 0.0754,-2.71198 h -3.71343 -3.71342 v 2.60173 c 0,1.43096 0.0827,2.68441 0.18371,2.78545 0.10104,0.10104 1.73815,0.15065 3.63802,0.11024 l 3.45431,-0.0735 z m -11.05561,-4.56407 V 215.7729 H 79.375 55.82708 v 1.85208 1.85209 H 79.375 102.92292 Z m -50.85689,-4.56406 -0.0754,-2.71198 h -3.57188 -3.57187 l -0.0754,2.71198 -0.0754,2.71198 h 3.72268 3.72267 z m 61.9125,0 -0.0754,-2.71198 h -3.57188 -3.57187 l -0.0754,2.71198 -0.0754,2.71198 h 3.72268 3.72268 z m -61.85561,-9.06198 v -2.77812 h -3.70417 -3.70417 v 2.77812 2.77813 h 3.70417 3.70417 z m 61.9125,0 v -2.77812 h -3.70417 -3.70416 v 2.77812 2.77813 h 3.70416 3.70417 z m -61.9125,-9.12812 v -2.64584 h -3.70417 -3.70417 v 2.64584 2.64583 h 3.70417 3.70417 z m 61.9125,0 v -2.64584 h -3.70417 -3.70416 v 2.64584 2.64583 h 3.70416 3.70417 z m -61.9125,-9.12813 v -2.77812 h -3.70417 -3.70417 v 2.77812 2.77813 h 3.70417 3.70417 z m 61.9125,0 v -2.77812 h -3.70417 -3.70416 v 2.77812 2.77813 h 3.70416 3.70417 z"
       id="path911"
       inkscape:connector-curvature="0"
       inkscape:export-xdpi="96"
       inkscape:export-ydpi="96" />
  </g>
</svg>
