<?xml version="1.0" encoding="UTF-8" standalone="no"?>
<!-- Created with Inkscape (http://www.inkscape.org/) -->

<svg
   xmlns:dc="http://purl.org/dc/elements/1.1/"
   xmlns:cc="http://creativecommons.org/ns#"
   xmlns:rdf="http://www.w3.org/1999/02/22-rdf-syntax-ns#"
   xmlns:svg="http://www.w3.org/2000/svg"
   xmlns="http://www.w3.org/2000/svg"
   xmlns:sodipodi="http://sodipodi.sourceforge.net/DTD/sodipodi-0.dtd"
   xmlns:inkscape="http://www.inkscape.org/namespaces/inkscape"
   width="600"
   height="600"
   viewBox="0 0 158.75 158.75"
   version="1.1"
   id="svg929"
   sodipodi:docname="food.svg"
   inkscape:version="0.92.4 (5da689c313, 2019-01-14)">
  <defs
     id="defs923" />
  <sodipodi:namedview
     id="base"
     pagecolor="#ffffff"
     bordercolor="#666666"
     borderopacity="1.0"
     inkscape:pageopacity="0.0"
     inkscape:pageshadow="2"
     inkscape:zoom="0.35"
     inkscape:cx="-155.71429"
     inkscape:cy="-125.71429"
     inkscape:document-units="mm"
     inkscape:current-layer="layer1"
     showgrid="false"
     units="px"
     inkscape:pagecheckerboard="true"
     inkscape:window-width="1825"
     inkscape:window-height="1046"
     inkscape:window-x="84"
     inkscape:window-y="-11"
     inkscape:window-maximized="1" />
  <metadata
     id="metadata926">
    <rdf:RDF>
      <cc:Work
         rdf:about="">
        <dc:format>image/svg+xml</dc:format>
        <dc:type
           rdf:resource="http://purl.org/dc/dcmitype/StillImage" />
        <dc:title></dc:title>
      </cc:Work>
    </rdf:RDF>
  </metadata>
  <g
     inkscape:label="Layer 1"
     inkscape:groupmode="layer"
     id="layer1"
     transform="translate(0,-138.24999)">
    <path
       style="fill:#ffffff;stroke-width:0.26458338"
       d="m 61.700304,262.75623 c -3.99036,-1.12275 -5.86831,-3.40367 -5.88462,-7.14734 -0.004,-1.01865 0.36785,-11.03472 0.82731,-22.25795 l 0.83537,-20.40587 -1.77961,-2.08372 c -2.3585,-2.76151 -4.19715,-5.54236 -4.91083,-7.42733 -0.49932,-1.3188 -0.55803,-1.85301 -0.41598,-3.78451 0.36366,-4.94448 3.18684,-25.96109 3.58809,-26.71083 0.36679,-0.68536 0.84533,-0.80583 3.20083,-0.80583 h 2.09274 l 0.0684,14.32485 c 0.0614,12.84844 0.112441,14.35261 0.49548,14.59419 0.23488,0.14813 0.62184,0.19459 0.8599,0.10324 0.3934,-0.15096 0.43283,-1.4805 0.43283,-14.59419 v -14.42809 h 3.70191 3.70191 l 0.0684,14.48234 c 0.0665,14.07866 0.0827,14.48509 0.58009,14.58085 1.18738,0.2286 1.20811,-0.0281 1.20811,-14.95856 v -14.10463 h 2.20284 c 3.34458,0 3.0975,-0.54969 4.522001,10.06024 2.03209,15.13536 2.412,18.92513 2.038588,20.33566 -0.460028,1.73768 -2.137839,4.44904 -4.740309,7.66038 l -2.24851,2.77457 0.88825,21.99831 c 0.87449,21.65749 0.88062,22.01828 0.39591,23.28749 -0.67343,1.76334 -2.34792,3.37013 -4.27404,4.10125 -2.01741,0.76576 -5.50119,0.95525 -7.45509,0.40548 z m 36.03102,0.0932 c -1.93108,-0.43444 -3.8051,-1.78766 -4.714139,-3.40407 l -0.818391,-1.45521 0.0521,-4.89479 c 0.0638,-5.99667 0.508169,-10.28722 2.049359,-19.78898 0.653989,-4.03195 1.26787,-8.46221 1.364189,-9.84502 l 0.17512,-2.51421 -1.984881,-3.96809 c -2.93624,-5.86998 -3.989429,-9.0975 -4.825039,-14.78639 -0.593058,-4.03767 -0.595141,-10.3178 -0.004,-12.8619 1.34177,-5.77708 5.049789,-11.78194 9.264501,-15.00316 3.997597,-3.05529 7.616957,-2.83274 9.371347,0.57622 l 0.67714,1.31577 0.0703,40.34023 c 0.0792,45.44763 0.21852,42.21375 -1.91021,44.34248 -1.88635,1.88634 -5.48485,2.68554 -8.767159,1.94712 z"
       id="path905"
       inkscape:connector-curvature="0"
       inkscape:export-xdpi="96"
       inkscape:export-ydpi="96" />
  </g>
</svg>
