<?xml version="1.0" encoding="UTF-8" standalone="no"?>
<!-- Created with Inkscape (http://www.inkscape.org/) -->

<svg
   xmlns:dc="http://purl.org/dc/elements/1.1/"
   xmlns:cc="http://creativecommons.org/ns#"
   xmlns:rdf="http://www.w3.org/1999/02/22-rdf-syntax-ns#"
   xmlns:svg="http://www.w3.org/2000/svg"
   xmlns="http://www.w3.org/2000/svg"
   xmlns:sodipodi="http://sodipodi.sourceforge.net/DTD/sodipodi-0.dtd"
   xmlns:inkscape="http://www.inkscape.org/namespaces/inkscape"
   width="600"
   height="600"
   viewBox="0 0 158.75 158.75"
   version="1.1"
   id="svg8"
   inkscape:version="0.92.4 (5da689c313, 2019-01-14)"
   sodipodi:docname="groceries.svg">
  <defs
     id="defs2" />
  <sodipodi:namedview
     id="base"
     pagecolor="#ffffff"
     bordercolor="#666666"
     borderopacity="1.0"
     inkscape:pageopacity="0.0"
     inkscape:pageshadow="2"
     inkscape:zoom="0.35"
     inkscape:cx="103.66469"
     inkscape:cy="133.44145"
     inkscape:document-units="mm"
     inkscape:current-layer="layer1"
     showgrid="false"
     units="px"
     inkscape:window-width="1818"
     inkscape:window-height="1046"
     inkscape:window-x="91"
     inkscape:window-y="-11"
     inkscape:window-maximized="1" />
  <metadata
     id="metadata5">
    <rdf:RDF>
      <cc:Work
         rdf:about="">
        <dc:format>image/svg+xml</dc:format>
        <dc:type
           rdf:resource="http://purl.org/dc/dcmitype/StillImage" />
        <dc:title />
      </cc:Work>
    </rdf:RDF>
  </metadata>
  <g
     inkscape:label="Layer 1"
     inkscape:groupmode="layer"
     id="layer1"
     transform="translate(0,-138.25001)">
    <path
       style="fill:#000000;stroke-width:0.26458335"
       d="m 49.212612,262.85768 c -0.90853,-0.36471 -1.71677,-1.16691 -2.66588,-2.64596 -1.02954,-1.60441 -6.82187,-20.23434 -7.0444,-22.657 l -0.15189,-1.65364 h 9.02858 9.02859 l 0.0696,9.06198 0.0696,9.06197 2.71198,0.0754 2.71198,0.0754 v -9.13738 -9.13738 h 3.70417 3.70416 v 9.12812 9.12813 h 2.64584 2.64583 v -9.12813 -9.12812 h 3.70417 3.70416 v 9.12812 9.12813 h 2.64584 2.64583 v -9.12813 -9.12812 h 3.70417 3.70416 v 9.13738 9.13738 l 2.71198,-0.0754 2.711978,-0.0754 0.0696,-9.06197 0.0696,-9.06198 h 8.99236 8.99236 v 1.17408 c 0,1.51512 -5.99366,21.25063 -7.03469,23.16334 -0.41633,0.76494 -1.16744,1.7039 -1.66913,2.08658 l -0.91218,0.69579 -29.918558,0.0511 c -19.51704,0.0334 -30.14848,-0.0412 -30.57989,-0.21432 z m -12.31421,-31.1581 c -1.29422,-0.58788 -2.38471,-1.82595 -2.78495,-3.16183 -0.18328,-0.61174 -0.26173,-2.55929 -0.20549,-5.10145 0.0872,-3.94402 0.11996,-4.15573 0.80076,-5.18371 0.39039,-0.58947 1.1643,-1.35431 1.71979,-1.69966 l 1.01,-0.6279 h 41.80417 41.804168 l 1.05833,0.55273 c 0.58209,0.304 1.41552,1.05808 1.85209,1.67572 0.7879,1.11471 0.79442,1.15344 0.88472,5.25888 0.0563,2.55964 -0.022,4.51301 -0.20549,5.12539 -0.40024,1.33588 -1.49074,2.57395 -2.78495,3.16183 -1.02281,0.4646 -2.86902,0.48571 -42.476578,0.48571 -39.60755,0 -41.45377,-0.0211 -42.47657,-0.48571 z m 5.86693,-21.00007 c 3.08053,-10.60466 14.26968,-16.1359 24.5711,-12.14646 1.01865,0.39449 1.85208,0.85306 1.85208,1.01905 0,0.16599 -2.91174,3.0501 -6.47054,6.40914 l -6.47054,6.10733 h -6.9428 -6.9428 z m 19.28678,0.90323 c 1.57096,-1.46264 10.30407,-9.65683 11.80703,-11.07842 1.04644,-0.98978 1.99272,-1.66491 2.33357,-1.66491 0.47688,0 22.62809,12.30526 23.40966,13.00434 0.13824,0.12365 -8.37142,0.22482 -18.91036,0.22482 -18.60513,0 -19.14656,-0.0141 -18.6399,-0.48583 z m 32.27182,-6.94419 c -7.13052,-4.05621 -13.08364,-7.42014 -13.22916,-7.4754 -0.33298,-0.12645 1.42507,-5.3307 2.85588,-8.45408 0.75845,-1.65566 1.17524,-2.287 1.44217,-2.18456 0.20649,0.0792 5.0559,0.14406 10.77647,0.14406 h 10.401038 l 1.25136,2.84427 c 2.40415,5.46451 5.0221,14.27454 5.82549,19.6042 0.2118,1.40506 0.38579,2.64396 0.38665,2.7531 7.9e-4,0.10914 -1.51649,0.18604 -3.37188,0.17088 l -3.37343,-0.0276 z m -9.5783,-22.1926 c -1.34854,-0.82225 -1.66649,-1.73542 -1.66649,-4.78623 0,-2.97075 0.3197,-3.99076 1.53011,-4.88177 0.68528,-0.50446 1.19449,-0.53245 10.90531,-0.59937 9.799628,-0.0675 10.219198,-0.05 11.048768,0.46061 1.53182,0.94291 1.9137,1.91242 1.91482,4.86127 0.001,3.01253 -0.37874,4.10658 -1.71205,4.93061 -0.82605,0.51052 -1.29735,0.53329 -11.018188,0.53235 -9.60542,-9.3e-4 -10.20109,-0.0289 -11.00228,-0.51747 z"
       id="path827"
       inkscape:connector-curvature="0" />
  </g>
</svg>
