<?xml version="1.0" encoding="UTF-8" standalone="no"?>
<!-- Created with Inkscape (http://www.inkscape.org/) -->

<svg
   xmlns:dc="http://purl.org/dc/elements/1.1/"
   xmlns:cc="http://creativecommons.org/ns#"
   xmlns:rdf="http://www.w3.org/1999/02/22-rdf-syntax-ns#"
   xmlns:svg="http://www.w3.org/2000/svg"
   xmlns="http://www.w3.org/2000/svg"
   xmlns:sodipodi="http://sodipodi.sourceforge.net/DTD/sodipodi-0.dtd"
   xmlns:inkscape="http://www.inkscape.org/namespaces/inkscape"
   width="600"
   height="600"
   viewBox="0 0 158.75 158.75"
   version="1.1"
   id="svg8"
   inkscape:version="0.92.4 (5da689c313, 2019-01-14)"
   sodipodi:docname="home.svg">
  <defs
     id="defs2" />
  <sodipodi:namedview
     id="base"
     pagecolor="#ffffff"
     bordercolor="#666666"
     borderopacity="1.0"
     inkscape:pageopacity="0.0"
     inkscape:pageshadow="2"
     inkscape:zoom="0.35"
     inkscape:cx="659.37898"
     inkscape:cy="133.44145"
     inkscape:document-units="mm"
     inkscape:current-layer="layer1"
     showgrid="false"
     units="px"
     inkscape:window-width="1818"
     inkscape:window-height="1046"
     inkscape:window-x="91"
     inkscape:window-y="-11"
     inkscape:window-maximized="1" />
  <metadata
     id="metadata5">
    <rdf:RDF>
      <cc:Work
         rdf:about="">
        <dc:format>image/svg+xml</dc:format>
        <dc:type
           rdf:resource="http://purl.org/dc/dcmitype/StillImage" />
        <dc:title />
      </cc:Work>
    </rdf:RDF>
  </metadata>
  <g
     inkscape:label="Layer 1"
     inkscape:groupmode="layer"
     id="layer1"
     transform="translate(0,-138.25001)">
    <path
       style="fill:#000000;stroke-width:0.26458335"
       d="m 41.712424,258.92698 c -0.40076,-0.44283 -0.43789,-2.5406 -0.43789,-24.73855 0,-13.34007 -0.0722,-24.25469 -0.16056,-24.25469 -0.0883,0 -0.76602,0.48208 -1.50602,1.07128 -1.09211,0.86955 -1.52117,1.05638 -2.27852,0.99219 -1.17927,-0.1 -1.86731,-1.12089 -1.47012,-2.18137 0.1707,-0.45574 7.25665,-6.14904 21.29022,-17.10591 11.56891,-9.03255 21.31581,-16.55713 21.65977,-16.7213 0.5101,-0.24346 0.78428,-0.20277 1.48727,0.22071 0.47404,0.28556 10.22747,7.83614 21.674316,16.77907 15.05932,11.76522 20.85787,16.44097 20.97685,16.915 0.26349,1.04986 -0.43048,2.00076 -1.52808,2.0938 -0.75736,0.0642 -1.18642,-0.12264 -2.27853,-0.99219 -0.74,-0.5892 -1.41772,-1.07128 -1.50602,-1.07128 -0.0883,0 -0.16056,10.9353 -0.16056,24.30066 0,23.20607 -0.0218,24.32039 -0.48386,24.73855 -0.43656,0.39508 -1.76839,0.43788 -13.62604,0.43788 H 90.222454 V 243.00666 226.6025 h -10.84792 -10.84791 v 16.40416 16.40417 h -13.18816 c -12.44046,0 -13.21299,-0.0274 -13.62604,-0.48385 z m 61.210036,-69.77632 c -5.057416,-3.98644 -5.160986,-4.08793 -5.240736,-5.13561 l -0.0814,-1.06881 h 5.439176 5.43917 v 5.15938 c 0,2.83766 -0.0893,5.14868 -0.19843,5.1356 -0.10915,-0.0131 -2.52016,-1.85382 -5.35782,-4.09056 z"
       id="path827"
       inkscape:connector-curvature="0" />
  </g>
</svg>
