<?xml version="1.0" encoding="UTF-8" standalone="no"?>
<!-- Created with Inkscape (http://www.inkscape.org/) -->

<svg
   width="600"
   height="600"
   viewBox="0 0 158.75 158.75"
   version="1.1"
   id="svg5"
   xml:space="preserve"
   inkscape:version="1.2.2 (b0a8486541, 2022-12-01)"
   sodipodi:docname="home.svg"
   xmlns:inkscape="http://www.inkscape.org/namespaces/inkscape"
   xmlns:sodipodi="http://sodipodi.sourceforge.net/DTD/sodipodi-0.dtd"
   xmlns="http://www.w3.org/2000/svg"
   xmlns:svg="http://www.w3.org/2000/svg"><sodipodi:namedview
     id="namedview7"
     pagecolor="#ffffff"
     bordercolor="#111111"
     borderopacity="1"
     inkscape:showpageshadow="0"
     inkscape:pageopacity="0"
     inkscape:pagecheckerboard="1"
     inkscape:deskcolor="#d1d1d1"
     inkscape:document-units="mm"
     showgrid="false"
     inkscape:zoom="0.35355339"
     inkscape:cx="1011.1627"
     inkscape:cy="217.78889"
     inkscape:window-width="1858"
     inkscape:window-height="1040"
     inkscape:window-x="55"
     inkscape:window-y="33"
     inkscape:window-maximized="1"
     inkscape:current-layer="layer1" /><defs
     id="defs2" /><g
     inkscape:label="Layer 1"
     inkscape:groupmode="layer"
     id="layer1"><path
       style="fill:#000000;stroke-width:0.1862"
       d="m 50.059179,116.35377 c -0.20482,-0.0838 -0.53998,-0.33843 -0.74481,-0.56577 -0.33105,-0.36745 -0.37928,-0.72651 -0.4344,-3.23393 l -0.062,-2.82059 -1.14831,-0.64934 c -1.75129,-0.9903 -3.98942,-3.32421 -4.91262,-5.12289 -1.36056,-2.65076 -1.40387,-2.94317 -1.49272,-10.076319 l -0.0791,-6.352305 -0.77664,-0.23254 c -5.25338,-1.572946 -9.01561,-7.052783 -8.63164,-12.572334 0.49087,-7.056245 7.02636,-12.447966 13.88797,-11.457458 4.98914,0.720211 9.07022,4.241602 10.36527,8.943753 0.15514,0.563254 0.36208,2.148642 0.45988,3.523088 0.0978,1.374438 0.31439,3.050244 0.48132,3.724008 0.71413,2.882548 2.16045,4.950448 4.14355,5.924333 l 1.04729,0.514315 h 17.22356 17.22356 l 1.04729,-0.514315 c 1.98226,-0.97347 3.429461,-3.041912 4.142741,-5.921089 0.16648,-0.67199 0.38263,-2.38969 0.48033,-3.817114 0.26809,-3.916548 1.11868,-6.098476 3.29285,-8.446772 5.61239,-6.06191 15.12131,-5.172489 19.60256,1.83353 3.23639,5.059783 2.06236,12.06906 -2.68388,16.023554 -1.02039,0.850173 -2.91377,1.878873 -4.12653,2.241987 l -0.77492,0.23202 -0.0826,6.352826 c -0.0923,7.099412 -0.11329,7.242962 -1.46249,9.983732 -0.60977,1.23867 -1.10686,1.91033 -2.28683,3.08992 -0.85846,0.85817 -2.00349,1.78006 -2.65903,2.14085 l -1.15132,0.63365 -0.059,2.83629 c -0.0586,2.81706 -0.0625,2.83979 -0.57506,3.35207 l -0.51607,0.51577 -6.43152,0.0536 -6.431531,0.0536 -0.64008,-0.64008 -0.64008,-0.64008 v -2.25303 -2.25303 h -15.26839 -15.26845 v 2.25303 2.25303 l -0.63309,0.63308 -0.63308,0.63308 -6.20979,-0.0118 c -3.41538,-0.006 -6.37737,-0.0804 -6.58219,-0.16422 z m 13.03404,-34.361377 c -1.68734,-0.598962 -2.44864,-2.318042 -2.71584,-6.132588 -0.21063,-3.006823 -0.66381,-5.14799 -1.46233,-6.909091 -1.70273,-3.755304 -5.02375,-6.947199 -8.79558,-8.453605 -2.13711,-0.853529 -4.15065,-1.188691 -6.5821,-1.095623 l -2.09158,0.08006 0.0951,-0.755926 c 0.33344,-2.650827 1.64097,-6.149886 3.14785,-8.423934 2.69993,-4.074477 7.33273,-6.933078 12.62806,-7.791956 2.49528,-0.40472 41.64272,-0.40472 44.137991,0 5.32184,0.863178 9.90827,3.696237 12.63553,7.805036 1.49773,2.256424 2.80747,5.764306 3.14038,8.410854 l 0.0951,0.755926 -2.09158,-0.08006 c -4.48206,-0.17156 -8.33275,1.281701 -11.66579,4.402708 -3.20474,3.000876 -4.845811,6.66128 -5.105601,11.388005 -0.14383,2.616967 -0.5396,4.41987 -1.19822,5.458402 -1.03955,1.639211 0.30192,1.519869 -17.59951,1.565676 -13.27325,0.03399 -15.94723,-0.0021 -16.57185,-0.223884 z"
       id="path1503" /></g></svg>
