<?xml version="1.0" encoding="UTF-8" standalone="no"?>
<!-- Created with Inkscape (http://www.inkscape.org/) -->

<svg
   width="600"
   height="600"
   viewBox="0 0 158.75 158.75"
   version="1.1"
   id="svg929"
   sodipodi:docname="multi.svg"
   inkscape:version="1.2.2 (b0a8486541, 2022-12-01)"
   xmlns:inkscape="http://www.inkscape.org/namespaces/inkscape"
   xmlns:sodipodi="http://sodipodi.sourceforge.net/DTD/sodipodi-0.dtd"
   xmlns="http://www.w3.org/2000/svg"
   xmlns:svg="http://www.w3.org/2000/svg"
   xmlns:rdf="http://www.w3.org/1999/02/22-rdf-syntax-ns#"
   xmlns:cc="http://creativecommons.org/ns#"
   xmlns:dc="http://purl.org/dc/elements/1.1/">
  <defs
     id="defs923" />
  <sodipodi:namedview
     id="base"
     pagecolor="#ffffff"
     bordercolor="#666666"
     borderopacity="1.0"
     inkscape:pageopacity="0.0"
     inkscape:pageshadow="2"
     inkscape:zoom="0.35"
     inkscape:cx="-251.42857"
     inkscape:cy="-125.71429"
     inkscape:document-units="mm"
     inkscape:current-layer="layer1"
     showgrid="false"
     units="px"
     inkscape:pagecheckerboard="true"
     inkscape:window-width="1858"
     inkscape:window-height="1040"
     inkscape:window-x="55"
     inkscape:window-y="33"
     inkscape:window-maximized="1"
     inkscape:showpageshadow="0"
     inkscape:deskcolor="#d1d1d1" />
  <metadata
     id="metadata926">
    <rdf:RDF>
      <cc:Work
         rdf:about="">
        <dc:format>image/svg+xml</dc:format>
        <dc:type
           rdf:resource="http://purl.org/dc/dcmitype/StillImage" />
      </cc:Work>
    </rdf:RDF>
  </metadata>
  <g
     inkscape:label="Layer 1"
     inkscape:groupmode="layer"
     id="layer1"
     transform="translate(0,-138.24999)">
    <path
       style="fill:#000000;stroke-width:0.171065"
       d="m 45.97842,258.42062 c -3.02165,-0.73248 -5.54292,-3.36545 -6.11592,-6.38687 -0.11357,-0.59888 -0.17461,-9.33102 -0.17461,-24.98162 0,-26.21256 -0.0461,-24.92217 0.96155,-26.91068 0.57896,-1.14251 2.3026,-2.86627 3.44492,-3.44512 1.95738,-0.99188 1.01932,-0.95735 25.78657,-0.94936 20.94138,0.007 22.84127,0.0307 23.8775,0.30122 2.08144,0.54334 3.83921,1.89382 5.01202,3.85069 1.18527,1.97763 1.13245,0.70523 1.13245,27.27938 0,15.31522 -0.0619,24.26662 -0.17198,24.85623 -0.39025,2.09105 -1.95982,4.30805 -3.85865,5.45029 -2.07653,1.24913 -0.60405,1.18262 -26.07688,1.17772 -18.88779,-0.004 -23.00666,-0.0455 -23.81697,-0.24188 z m 20.04952,-17.7002 c 0.33151,-0.17263 5.51019,-5.22811 11.50816,-11.23438 l 10.90542,-10.9205 v -0.81793 c 0,-1.10904 -0.24379,-1.50195 -1.99777,-3.21973 -1.70935,-1.67409 -1.99671,-1.85784 -2.90548,-1.85784 -0.62938,0 -0.93264,0.28336 -9.97756,9.32275 l -9.32848,9.32275 -3.76167,-3.76749 c -5.04916,-5.05698 -4.88507,-5.01602 -7.91,-1.97432 -1.83604,1.84622 -1.92449,1.968 -1.92449,2.64983 0,0.39308 0.10912,0.92255 0.24249,1.17661 0.13337,0.25407 2.69293,2.89552 5.68792,5.8699 5.38312,5.34607 5.58838,5.5182 6.98503,5.85768 0.56272,0.13679 1.8327,-0.0721 2.47643,-0.40733 z m 42.50598,-1.61301 -0.41989,-0.41989 -0.01,-21.9469 c -0.011,-24.47283 0.0532,-23.11661 -1.19198,-25.18656 -0.70929,-1.1791 -2.12295,-2.52074 -3.26685,-3.1004 -1.90299,-0.96432 -1.04626,-0.93022 -23.37314,-0.93022 H 59.68685 l -0.41989,-0.41989 c -0.37864,-0.37864 -0.41989,-0.55996 -0.41989,-1.84578 0,-2.60803 0.75204,-4.50534 2.46461,-6.21791 0.57852,-0.57852 1.45236,-1.2548 1.94186,-1.50285 1.95738,-0.99188 1.01932,-0.95735 25.78657,-0.94936 20.94138,0.007 22.84127,0.0307 23.8775,0.30121 2.08144,0.54335 3.83921,1.89383 5.01202,3.85069 1.18527,1.97764 1.13245,0.70525 1.13245,27.27939 0,15.31523 -0.0619,24.26662 -0.17197,24.85623 -0.24103,1.29147 -1.06776,2.89196 -2.04212,3.95339 -1.62631,1.77165 -3.79022,2.67023 -6.47526,2.68888 -1.28546,0.009 -1.45859,-0.0297 -1.83895,-0.41003 z"
       id="path452" />
  </g>
</svg>
