<?xml version="1.0" encoding="UTF-8" standalone="no"?>
<!-- Created with Inkscape (http://www.inkscape.org/) -->

<svg
   xmlns:dc="http://purl.org/dc/elements/1.1/"
   xmlns:cc="http://creativecommons.org/ns#"
   xmlns:rdf="http://www.w3.org/1999/02/22-rdf-syntax-ns#"
   xmlns:svg="http://www.w3.org/2000/svg"
   xmlns="http://www.w3.org/2000/svg"
   xmlns:sodipodi="http://sodipodi.sourceforge.net/DTD/sodipodi-0.dtd"
   xmlns:inkscape="http://www.inkscape.org/namespaces/inkscape"
   width="600"
   height="600"
   viewBox="0 0 158.75 158.75"
   version="1.1"
   id="svg929"
   sodipodi:docname="nets.svg"
   inkscape:version="0.92.4 (5da689c313, 2019-01-14)">
  <defs
     id="defs923" />
  <sodipodi:namedview
     id="base"
     pagecolor="#ffffff"
     bordercolor="#666666"
     borderopacity="1.0"
     inkscape:pageopacity="0.0"
     inkscape:pageshadow="2"
     inkscape:zoom="0.35"
     inkscape:cx="-155.71429"
     inkscape:cy="-125.71429"
     inkscape:document-units="mm"
     inkscape:current-layer="layer1"
     showgrid="false"
     units="px"
     inkscape:pagecheckerboard="true"
     inkscape:window-width="1825"
     inkscape:window-height="1046"
     inkscape:window-x="84"
     inkscape:window-y="-11"
     inkscape:window-maximized="1" />
  <metadata
     id="metadata926">
    <rdf:RDF>
      <cc:Work
         rdf:about="">
        <dc:format>image/svg+xml</dc:format>
        <dc:type
           rdf:resource="http://purl.org/dc/dcmitype/StillImage" />
        <dc:title></dc:title>
      </cc:Work>
    </rdf:RDF>
  </metadata>
  <g
     inkscape:label="Layer 1"
     inkscape:groupmode="layer"
     id="layer1"
     transform="translate(0,-138.24999)">
    <path
       style="fill:#000000;stroke-width:0.26458338"
       d="m 40.86727,184.91821 -1.75234,0.86248 c -2.03891,1.00375 -3.43811,2.43831 -4.41886,4.52995 l -0.69711,1.48673 v 25.79688 25.79687 l 0.68833,1.4671 c 1.24924,2.6634 3.32898,4.4487 6.03994,5.18469 0.94056,0.25538 9.64736,0.31732 39.17694,0.27802 l 37.96771,-0.0506 1.48724,-0.69712 c 2.09164,-0.98075 3.52569,-2.37995 4.52944,-4.41885 l 0.86248,-1.75183 v -25.80256 -25.80256 l -0.69711,-1.48673 c -0.98075,-2.09164 -2.37995,-3.5262 -4.41885,-4.52995 l -1.75183,-0.86248 H 79.375 Z m 7.37061,23.57892 0.19792,0.10077 c 0.26697,0.13645 0.3541,0.23452 1.17926,1.32291 0.96185,1.26869 2.22305,2.93097 3.41529,4.50205 2.07023,2.72807 3.62146,4.77383 4.26383,5.62292 0.37029,0.48945 0.55759,0.70605 0.58032,0.67024 0.0185,-0.0291 0.0341,-2.6067 0.0346,-5.72782 l 0.002,-5.67458 0.0977,-0.20981 c 0.11567,-0.24839 0.32531,-0.44484 0.57723,-0.54002 0.16869,-0.0637 2.10465,-0.0681 25.77155,-0.0574 l 25.58862,0.0119 0.5023,0.0925 c 1.35552,0.24933 2.27445,0.65168 3.07577,1.34772 1.00406,0.87212 1.57896,2.27755 1.60663,3.92586 0.008,0.47049 0.002,0.50966 -0.11162,0.74052 -0.1332,0.27128 -0.35495,0.46171 -0.6227,0.53382 -0.10209,0.0275 -0.57281,0.0391 -1.23973,0.031 -1.18589,-0.0144 -1.23314,-0.0237 -1.51514,-0.29765 -0.20038,-0.1947 -0.28198,-0.41449 -0.33126,-0.89452 -0.0765,-0.74572 -0.26317,-1.08525 -0.70641,-1.28416 -0.70425,-0.31605 -0.80799,-0.32143 -6.19187,-0.32143 -5.14473,0 -5.11258,-0.001 -5.60121,0.22996 -0.20202,0.0956 -0.24579,0.13906 -0.3483,0.34778 -0.11081,0.22568 -0.1173,0.26966 -0.1173,0.80409 0,0.54061 0.005,0.57385 0.11472,0.76016 0.26825,0.45634 0.9407,0.73449 2.20969,0.91415 0.17828,0.0252 1.77185,0.0617 3.68556,0.0842 4.58601,0.054 5.41002,0.0878 6.21823,0.25476 1.51939,0.31393 2.46121,0.76273 3.24735,1.54668 1.08343,1.08042 1.55871,2.54588 1.42625,4.39973 -0.14302,2.00191 -0.72621,3.16499 -2.11097,4.21163 -0.48119,0.36369 -0.87583,0.57244 -1.32085,0.69867 -0.31956,0.0906 -0.32379,0.0907 -5.91075,0.10438 -5.67745,0.0139 -6.08688,0.005 -6.82645,-0.14211 -1.57148,-0.3136 -2.81638,-1.10908 -3.63132,-2.32027 -0.51304,-0.76252 -0.81862,-1.84832 -0.82527,-2.9316 -0.003,-0.55788 -0.002,-0.56854 0.12662,-0.79582 0.1456,-0.25802 0.38073,-0.44728 0.62682,-0.50436 0.27068,-0.0628 2.10446,-0.0462 2.29185,0.0207 0.46485,0.1658 0.68232,0.47908 0.74363,1.07176 0.10947,1.05807 0.32978,1.33021 1.27072,1.5689 0.71571,0.18156 1.21366,0.19687 5.82548,0.17829 3.73785,-0.0151 4.35293,-0.0263 4.60697,-0.0837 1.04794,-0.2367 1.3193,-0.57822 1.3193,-1.65985 0,-0.58682 -0.0742,-0.80585 -0.37052,-1.09605 -0.26587,-0.26041 -0.57961,-0.40756 -1.17927,-0.55346 -0.3436,-0.0836 -0.5047,-0.0876 -4.64829,-0.11575 -2.77504,-0.0189 -4.4559,-0.0464 -4.75372,-0.078 -1.19735,-0.12706 -2.32082,-0.37635 -3.03392,-0.67283 -1.59467,-0.66299 -2.5641,-1.86815 -2.87528,-3.57394 -0.12147,-0.66593 -0.11601,-2.07057 0.0103,-2.57401 l 0.0238,-0.0941 h -3.81527 -3.81321 c -7.9e-4,0.006 -0.002,0.007 -0.003,0.0139 v 6.68022 c 0,7.29064 0.0125,6.90118 -0.23513,7.25847 -0.0633,0.0914 -0.20116,0.21665 -0.30644,0.27853 l -0.19119,0.11266 -1.09606,0.0129 c -0.71435,0.008 -1.15627,-0.003 -1.26917,-0.0336 -0.20873,-0.0562 -0.47638,-0.28808 -0.601,-0.5209 l -0.0915,-0.17053 -0.0207,-6.80527 -0.0212,-6.80579 -3.99924,-0.0207 c -2.19975,-0.0115 -7.01034,-0.0159 -10.6903,-0.01 l -6.69107,0.0109 0.0109,1.64331 0.0114,1.6433 6.42855,0.0207 c 4.36932,5.3e-4 5.82057,-0.006 6.3376,0.0543 0.0996,0.005 0.16879,0.0114 0.18036,0.0181 0.0114,0.007 0.0214,0.0172 0.0326,0.0248 0.0957,0.0359 0.1064,0.0854 0.16278,0.15244 0.0664,0.0789 0.11177,0.16531 0.1416,0.3142 0.004,0.0144 0.01,0.0277 0.0129,0.0424 0.0171,0.0822 0.0272,0.28542 0.0326,0.56586 0.005,0.23055 0.006,0.50826 0.002,0.88987 -0.006,0.58615 -0.0108,0.89471 -0.0248,1.07952 -0.014,0.1848 -0.0376,0.24599 -0.0827,0.33744 -0.0162,0.0328 -0.0337,0.0633 -0.0527,0.0915 -0.019,0.0282 -0.0397,0.054 -0.062,0.078 -0.0222,0.024 -0.0463,0.0462 -0.0724,0.0667 0,0 -5.3e-4,0 -5.3e-4,0 -0.0261,0.0204 -0.0543,0.0394 -0.0847,0.0568 l -0.17777,0.10232 -6.39755,0.0109 -6.39702,0.0114 v 1.63246 1.63246 h 6.55205 c 3.13746,0 5.09298,0.007 6.05028,0.0222 0.38992,0.005 0.65636,0.0125 0.69867,0.0212 7.9e-4,1.4e-4 10e-4,2.7e-4 0.002,5.3e-4 5.3e-4,1.1e-4 0.007,5.3e-4 0.007,5.3e-4 0.0575,0.0123 0.11176,0.0323 0.1633,0.0574 0.002,0.001 0.005,0.002 0.007,0.003 0.0357,0.0178 0.0669,0.0425 0.0987,0.0656 0.0178,0.0128 0.0384,0.0224 0.0548,0.0367 0,0 5.3e-4,5.3e-4 5.3e-4,5.3e-4 0.0652,0.0573 0.11225,0.12866 0.14883,0.20515 0.0136,0.0282 0.031,0.0548 0.0398,0.0847 0.007,0.0247 0.0131,0.0774 0.0181,0.1571 0.005,0.0797 0.009,0.18631 0.0114,0.31833 0.005,0.26403 0.006,0.62998 0.002,1.08727 -0.0124,1.34848 -0.0167,1.4155 -0.0992,1.526 -0.0475,0.0636 -0.13844,0.15457 -0.20205,0.20206 l -0.11576,0.0863 -7.12721,0.002 c -0.58792,1.3e-4 -1.06212,-0.001 -1.63711,-0.002 h -8.42157 l -0.16795,-0.0899 c -0.24059,-0.12915 -0.58862,-0.5144 -1.25677,-1.39061 -0.32226,-0.42261 -0.79307,-1.0379 -1.04645,-1.36736 -0.25337,-0.32946 -1.09498,-1.42548 -1.87017,-2.43551 -2.15375,-2.80621 -4.46527,-5.81723 -5.41982,-7.06055 -0.47306,-0.61616 -0.87785,-1.12035 -0.89969,-1.12035 -0.0249,0 -0.0398,2.35535 -0.0398,6.29729 0,4.53273 0.004,5.88497 -0.0625,6.38514 v 0.0279 l -0.007,0.0124 c -0.0345,0.21731 -0.0847,0.26801 -0.1633,0.37103 -0.0579,0.0759 -0.19419,0.1904 -0.30282,0.25426 l -0.1974,0.11626 -1.13068,0.0114 c -1.11867,0.0113 -1.13333,0.0105 -1.34049,-0.0889 -0.25835,-0.12396 -0.45101,-0.32401 -0.55139,-0.57154 -0.0731,-0.18021 -0.0765,-0.5488 -0.0765,-8.41809 0,-6.88096 0.01,-8.26226 0.0579,-8.42894 0.0715,-0.24628 0.34053,-0.56052 0.56844,-0.66404 0.15633,-0.071 0.31908,-0.0767 2.14923,-0.0775 z"
       id="path1913"
       inkscape:connector-curvature="0" />
  </g>
</svg>
