<?xml version="1.0" encoding="UTF-8" standalone="no"?>
<!-- Created with Inkscape (http://www.inkscape.org/) -->

<svg
   xmlns:dc="http://purl.org/dc/elements/1.1/"
   xmlns:cc="http://creativecommons.org/ns#"
   xmlns:rdf="http://www.w3.org/1999/02/22-rdf-syntax-ns#"
   xmlns:svg="http://www.w3.org/2000/svg"
   xmlns="http://www.w3.org/2000/svg"
   xmlns:sodipodi="http://sodipodi.sourceforge.net/DTD/sodipodi-0.dtd"
   xmlns:inkscape="http://www.inkscape.org/namespaces/inkscape"
   width="600"
   height="600"
   viewBox="0 0 158.75 158.75"
   version="1.1"
   id="svg8"
   inkscape:version="0.92.4 (5da689c313, 2019-01-14)"
   sodipodi:docname="snacks.svg">
  <defs
     id="defs2" />
  <sodipodi:namedview
     id="base"
     pagecolor="#ffffff"
     bordercolor="#666666"
     borderopacity="1.0"
     inkscape:pageopacity="0.0"
     inkscape:pageshadow="2"
     inkscape:zoom="0.35"
     inkscape:cx="-727.76388"
     inkscape:cy="133.44145"
     inkscape:document-units="mm"
     inkscape:current-layer="layer1"
     showgrid="false"
     units="px"
     inkscape:window-width="1818"
     inkscape:window-height="1046"
     inkscape:window-x="91"
     inkscape:window-y="-11"
     inkscape:window-maximized="1" />
  <metadata
     id="metadata5">
    <rdf:RDF>
      <cc:Work
         rdf:about="">
        <dc:format>image/svg+xml</dc:format>
        <dc:type
           rdf:resource="http://purl.org/dc/dcmitype/StillImage" />
        <dc:title />
      </cc:Work>
    </rdf:RDF>
  </metadata>
  <g
     inkscape:label="Layer 1"
     inkscape:groupmode="layer"
     id="layer1"
     transform="translate(0,-138.25001)">
    <path
       style="fill:#000000;stroke-width:0.26458335"
       d="m 67.867225,258.7706 c -2.35352,-1.41087 -13.0904,-15.61918 -19.78647,-26.1838 -3.05381,-4.81812 -5.11056,-8.42863 -7.2551,-12.73595 -4.51767,-9.07376 -4.41505,-10.27358 1.10201,-12.88369 9.72254,-4.5997 26.38189,-8.38466 39.99985,-9.08787 3.895261,-0.20114 4.904951,-5.5e-4 6.340151,1.25957 1.9345,1.69851 1.96623,3.78859 0.16608,10.93898 -4.069261,16.16354 -12.700381,43.27818 -15.065211,47.32733 -1.16423,1.99345 -3.49053,2.57084 -5.50131,1.36543 z m 1.97753,-15.32172 c 0.43481,-0.52392 0.0724,-1.22416 -0.63362,-1.22416 -0.65197,0 -1.0025,0.55122 -0.75714,1.19062 0.19055,0.49658 0.99046,0.51587 1.39076,0.0335 z m 2.40908,-11.93979 c 0,-0.928 -0.93984,-1.37987 -1.60951,-0.77383 -0.65963,0.59696 -0.64126,1.04677 0.0629,1.54 0.74054,0.51869 1.54659,0.11938 1.54659,-0.76617 z m -10.7157,0.0841 c 0.55466,-0.65917 0.67444,-1.0181 0.55189,-1.65364 -0.42941,-2.22685 -3.77067,-2.35986 -4.25181,-0.16927 -0.18085,0.82344 0.38081,2.24567 0.98245,2.48774 1.00628,0.40487 2.02763,0.155 2.71747,-0.66483 z m 2.36243,-7.51136 c 0.8024,-0.80241 0.22167,-2.23006 -0.90714,-2.23006 -0.6032,0 -1.32292,0.68268 -1.32292,1.25484 0,0.58567 0.7787,1.39099 1.34503,1.39099 0.25809,0 0.65636,-0.1871 0.88503,-0.41577 z m 11.20482,-1.05444 c 0.76771,-0.53772 0.81745,-2.20891 0.0855,-2.87135 -1.22384,-1.10756 -3.28978,-0.2202 -3.28978,1.41303 0,1.62318 1.79962,2.44221 3.20432,1.45832 z m -23.23501,-4.99937 c 0.70285,-0.84689 -0.32947,-2.14783 -1.24622,-1.5705 -0.91608,0.5769 -0.58971,1.95467 0.46302,1.95467 0.2554,0 0.60784,-0.17288 0.7832,-0.38417 z m 8.21263,-5.17209 c 0.72186,-0.72185 0.66411,-1.44295 -0.16797,-2.09746 -0.88608,-0.69699 -1.03882,-0.68855 -1.82843,0.10106 -0.78961,0.78962 -0.79805,0.94235 -0.10106,1.82843 0.65451,0.83208 1.37561,0.88983 2.09746,0.16797 z m 15.0707,-1.17791 c 0.70286,-0.84689 -0.32946,-2.14783 -1.24622,-1.5705 -0.91607,0.5769 -0.58971,1.95466 0.46302,1.95466 0.25541,0 0.60785,-0.17287 0.7832,-0.38416 z m 10.660031,24.18842 c -0.763151,-0.30675 -0.753501,-0.47203 0.2102,-3.59723 0.44303,-1.43673 1.28402,-4.27911 1.86888,-6.3164 2.17584,-7.57932 2.09051,-7.33884 2.48714,-7.00967 0.64454,0.53492 1.57601,0.21129 1.66735,-0.5793 0.0849,-0.73524 -0.74075,-1.471 -1.2781,-1.1389 -0.38598,0.23855 -0.36498,0.12892 1.04191,-5.43836 0.71556,-2.83159 1.38392,-5.7139 1.48525,-6.40512 0.15537,-1.05994 0.27483,-1.25678 0.76272,-1.25678 0.69879,0 1.21351,-0.46739 1.21351,-1.10194 0,-0.56372 -0.85956,-1.07439 -1.43605,-0.85318 -0.31249,0.11992 -0.41604,-0.0113 -0.41604,-0.52727 0,-1.10526 -0.94323,-3.27576 -1.96587,-4.52377 -1.15565,-1.41032 -3.57108,-2.67682 -5.58504,-2.92844 -1.685101,-0.21054 -8.579981,0.25001 -13.610681,0.90915 -1.91246,0.25057 -3.5165,0.38951 -3.56453,0.30875 -0.16411,-0.27596 -1.96179,-6.49111 -3.03839,-10.5047 -1.19585,-4.45815 -1.32829,-6.15697 -0.57615,-7.3904 1.05573,-1.73127 3.26913,-2.09552 6.99762,-1.15157 14.115511,3.57369 31.753595,10.10551 41.848255,15.49745 6.24581,3.33612 7.38624,4.42134 7.20701,6.85806 -0.2001,2.72043 -5.57799,10.94114 -12.3652,18.90161 -5.19821,6.0968 -15.908314,16.08259 -19.083854,17.79323 -1.3803,0.74356 -2.7508,0.90462 -3.86994,0.45478 z m 18.917714,-25.8031 c 0.78936,-0.89701 0.75641,-2.00243 -0.0897,-3.00794 -1.82297,-2.16646 -5.277774,0.52962 -3.65234,2.85025 0.88701,1.26638 2.69915,1.34275 3.742,0.15769 z m 2.13098,-10.66881 c -0.0956,-0.82412 -0.92185,-0.95354 -1.37454,-0.21529 -0.23357,0.38091 -0.19373,0.55261 0.19532,0.84173 0.69583,0.5171 1.27609,0.20886 1.17922,-0.62644 z M 93.354366,194.7908 c 0.58976,-0.45634 0.39335,-1.72538 -0.34157,-2.20692 -0.54144,-0.35477 -0.80038,-0.38215 -1.33034,-0.14068 -0.79238,0.36103 -1.02194,0.87188 -0.79611,1.77165 0.26136,1.04136 1.4946,1.32915 2.46802,0.57595 z m -16.126211,-6.29918 c 0.1514,-1.30245 -1.54564,-1.7226 -1.93993,-0.48029 -0.23015,0.72513 0.35115,1.33984 1.1763,1.24392 0.51296,-0.0596 0.704,-0.25067 0.76363,-0.76363 z"
       id="path831"
       inkscape:connector-curvature="0" />
  </g>
</svg>
