<?xml version="1.0" encoding="UTF-8" standalone="no"?>
<!-- Created with Inkscape (http://www.inkscape.org/) -->

<svg
   xmlns:dc="http://purl.org/dc/elements/1.1/"
   xmlns:cc="http://creativecommons.org/ns#"
   xmlns:rdf="http://www.w3.org/1999/02/22-rdf-syntax-ns#"
   xmlns:svg="http://www.w3.org/2000/svg"
   xmlns="http://www.w3.org/2000/svg"
   xmlns:sodipodi="http://sodipodi.sourceforge.net/DTD/sodipodi-0.dtd"
   xmlns:inkscape="http://www.inkscape.org/namespaces/inkscape"
   width="600"
   height="600"
   viewBox="0 0 158.75 158.75"
   version="1.1"
   id="svg929"
   sodipodi:docname="social.svg"
   inkscape:version="0.92.4 (5da689c313, 2019-01-14)">
  <defs
     id="defs923" />
  <sodipodi:namedview
     id="base"
     pagecolor="#ffffff"
     bordercolor="#666666"
     borderopacity="1.0"
     inkscape:pageopacity="0.0"
     inkscape:pageshadow="2"
     inkscape:zoom="0.35"
     inkscape:cx="-155.71429"
     inkscape:cy="-125.71429"
     inkscape:document-units="mm"
     inkscape:current-layer="layer1"
     showgrid="false"
     units="px"
     inkscape:pagecheckerboard="true"
     inkscape:window-width="1825"
     inkscape:window-height="1046"
     inkscape:window-x="84"
     inkscape:window-y="-11"
     inkscape:window-maximized="1" />
  <metadata
     id="metadata926">
    <rdf:RDF>
      <cc:Work
         rdf:about="">
        <dc:format>image/svg+xml</dc:format>
        <dc:type
           rdf:resource="http://purl.org/dc/dcmitype/StillImage" />
        <dc:title></dc:title>
      </cc:Work>
    </rdf:RDF>
  </metadata>
  <g
     inkscape:label="Layer 1"
     inkscape:groupmode="layer"
     id="layer1"
     transform="translate(0,-138.24999)">
    <path
       style="fill:#000000;stroke-width:0.26458338"
       d="m 71.924745,259.00494 c -4.312539,-0.70198 -7.80111,-1.98955 -8.57001,-3.16305 -0.400688,-0.61154 -0.437959,-1.24699 -0.315608,-5.38211 0.11276,-3.81103 0.247189,-5.03541 0.71815,-6.5408 2.488719,-7.955 10.44792,-12.85374 18.528578,-11.40401 4.96634,0.891 9.26515,4.06474 11.595981,8.56111 1.540539,2.97184 1.88763,4.83482 1.893181,10.16157 l 0.005,4.40825 -0.78962,0.66442 c -0.970079,0.81627 -3.120348,1.6421 -6.089539,2.33876 -3.00672,0.70545 -13.47928,0.92499 -16.975701,0.35586 z M 44.582736,248.2613 c -4.6535,-0.4782 -9.76447,-2.13339 -10.43053,-3.37794 -0.43228,-0.80772 -0.35352,-8.53556 0.10924,-10.7198 0.63754,-3.00918 2.06782,-5.54983 4.49459,-7.98391 2.42506,-2.43236 4.37798,-3.57684 7.4396,-4.35987 8.08967,-2.06899 16.121189,2.11534 19.33571,10.07369 l 0.652639,1.61576 -1.32062,1.39636 c -2.73014,2.88672 -4.622749,6.7911 -5.143649,10.61113 -0.29414,2.15708 -0.3161,2.20382 -1.10397,2.34951 -3.49633,0.64653 -9.84627,0.8253 -14.03301,0.39507 z m 58.341164,-5.3e-4 c -3.310514,-0.31849 -3.393474,-0.35339 -3.565723,-1.49966 -0.728491,-4.84772 -2.327781,-8.4594 -5.045951,-11.39527 l -1.73731,-1.87646 0.648621,-1.60584 c 1.046459,-2.59076 2.303701,-4.44932 4.205769,-6.21729 4.075354,-3.78805 9.731034,-5.22627 15.125944,-3.84648 3.06162,0.78303 5.01454,1.92751 7.4396,4.35987 2.42677,2.43408 3.85705,4.97473 4.49459,7.98391 0.45427,2.14417 0.54158,9.91197 0.12026,10.69922 -0.7041,1.31561 -5.66154,2.89108 -10.68594,3.39598 -3.23975,0.32556 -7.62847,0.32637 -10.99986,0.002 z M 75.992516,229.79259 c -5.370619,-1.85511 -8.487979,-7.53718 -7.101729,-12.94447 0.573698,-2.23778 1.477708,-3.70544 3.350199,-5.43904 2.212581,-2.04845 3.884501,-2.66314 7.266749,-2.67167 2.422181,-0.006 2.791212,0.0628 4.36562,0.8156 2.520291,1.20503 4.040751,2.68141 5.21961,5.06831 0.972452,1.96897 0.998083,2.09599 0.997321,4.94365 -7.94e-4,2.65439 -0.0678,3.0594 -0.731039,4.41078 -1.42082,2.8951 -3.906411,5.05356 -6.790679,5.89696 -1.916081,0.5603 -4.824593,0.52486 -6.576052,-0.0801 z m -11.577929,-6.22077 c -0.879671,-0.90538 -2.336371,-2.10104 -3.237121,-2.65701 l -1.63773,-1.01087 1.385039,-1.49647 c 2.809531,-3.03557 4.039172,-6.44215 3.827661,-10.60411 -0.194119,-3.81962 -1.639239,-7.06275 -4.298971,-9.64771 l -1.178879,-1.14574 1.120739,-0.46984 c 0.742921,-0.31146 2.057281,-0.50782 3.898861,-0.5825 2.344071,-0.0951 3.04215,-0.0236 4.46791,0.45759 3.350339,1.13064 5.875049,3.31628 7.433641,6.43527 0.43915,0.87883 0.79734,1.72768 0.79598,1.88633 -0.0011,0.15866 -0.87726,0.55402 -1.946449,0.87859 -7.516853,2.28184 -11.962212,10.82021 -9.47266,18.19451 0.270338,0.8008 0.480247,1.44522 0.466457,1.43205 -0.01378,-0.0132 -0.74481,-0.76471 -1.624478,-1.67009 z m 28.911029,0.24538 c 0.545981,-1.48734 0.735862,-5.4957 0.348681,-7.36043 -0.54823,-2.64037 -2.1551,-5.45485 -4.234032,-7.41601 -1.98047,-1.86827 -4.85439,-3.45659 -6.823678,-3.77122 -1.35109,-0.21585 -1.402831,-0.50787 -0.43434,-2.45137 1.441289,-2.8923 4.457308,-5.4616 7.536011,-6.41979 2.238967,-0.69685 5.56278,-0.67451 7.723348,0.0519 0.90491,0.30424 1.691259,0.59825 1.747441,0.65336 0.0562,0.0551 -0.560102,0.81549 -1.36951,1.68974 -4.038301,4.36185 -4.963512,10.71879 -2.33182,16.02143 0.577778,1.16417 1.637969,2.77084 2.35599,3.57038 l 1.305489,1.45371 -1.595941,1.04278 c -0.877757,0.57354 -2.27602,1.70825 -3.107237,2.5216 l -1.5113,1.47881 z m -45.91597,-4.78548 c -1.9957,-0.53706 -3.51085,-1.50343 -5.17431,-3.30016 -4.90094,-5.2936 -3.14919,-13.86763 3.47432,-17.00523 1.66986,-0.79102 1.96893,-0.8448 4.69391,-0.84407 2.64091,7.1e-4 3.04821,0.0684 4.39843,0.73105 2.86102,1.40409 4.9619,3.80706 5.92054,6.77186 0.6311,1.95181 0.45697,5.47827 -0.361109,7.31298 -0.924941,2.07438 -1.894641,3.30925 -3.566981,4.54242 -2.71174,1.99961 -6.16269,2.65825 -9.3848,1.79115 z m 58.621494,0.12605 c -3.73163,-0.87947 -7.000303,-4.13884 -8.030374,-8.00748 -1.3091,-4.91662 1.22577,-10.19416 5.980934,-12.45216 1.59786,-0.75875 1.92611,-0.81665 4.6302,-0.81665 2.74058,0 3.01192,0.0497 4.6497,0.85115 4.25386,2.08169 6.5832,6.46103 6.02762,11.33237 -0.70296,6.16361 -7.09266,10.54585 -13.25808,9.09277 z M 61.386666,193.21064 c -2.04353,-0.80584 -4.2287,-3.03939 -5.00979,-5.12069 -0.80816,-2.15343 -0.70708,-5.21528 0.23578,-7.1418 0.8253,-1.68633 2.67943,-3.53865 4.374241,-4.36997 1.119449,-0.5491 1.709499,-0.64953 3.836458,-0.65301 2.36488,-0.004 2.612541,0.0496 4.187301,0.90337 3.02785,1.64164 4.55453,4.07405 4.744472,7.55919 0.0936,1.71748 0.008,2.40117 -0.453671,3.62523 -0.70961,1.88122 -2.434942,3.83013 -4.28489,4.84016 -1.21552,0.66366 -1.750901,0.78373 -3.796332,0.85142 -1.94537,0.0644 -2.647098,-0.026 -3.833569,-0.4939 z m 29.630442,0.32238 c -2.209983,-0.67468 -4.486881,-2.6197 -5.546432,-4.73797 -2.195308,-4.38892 -0.278421,-9.94851 4.186071,-12.14097 1.29531,-0.6361 1.80748,-0.73302 3.8739,-0.73302 2.022869,0 2.606159,0.10545 3.875609,0.70061 0.821901,0.38533 1.99491,1.20116 2.606694,1.81294 1.77096,1.77096 2.51353,3.64859 2.51353,6.35556 0,2.01405 -0.0928,2.44294 -0.86961,4.02097 -1.61346,3.2774 -4.407782,4.9902 -8.069994,4.94656 -1.04957,-0.0125 -2.205969,-0.11361 -2.569768,-0.22468 z"
       id="path1739"
       inkscape:connector-curvature="0" />
  </g>
</svg>
