<?xml version="1.0" encoding="UTF-8" standalone="no"?>
<!-- Created with Inkscape (http://www.inkscape.org/) -->

<svg
   width="600"
   height="600"
   viewBox="0 0 158.75 158.75"
   version="1.1"
   id="svg5"
   xml:space="preserve"
   inkscape:version="1.2.2 (b0a8486541, 2022-12-01)"
   sodipodi:docname="subscription.svg"
   xmlns:inkscape="http://www.inkscape.org/namespaces/inkscape"
   xmlns:sodipodi="http://sodipodi.sourceforge.net/DTD/sodipodi-0.dtd"
   xmlns="http://www.w3.org/2000/svg"
   xmlns:svg="http://www.w3.org/2000/svg"><sodipodi:namedview
     id="namedview7"
     pagecolor="#ffffff"
     bordercolor="#111111"
     borderopacity="1"
     inkscape:showpageshadow="0"
     inkscape:pageopacity="0"
     inkscape:pagecheckerboard="1"
     inkscape:deskcolor="#d1d1d1"
     inkscape:document-units="mm"
     showgrid="false"
     inkscape:zoom="0.5"
     inkscape:cx="453"
     inkscape:cy="218"
     inkscape:window-width="1858"
     inkscape:window-height="1040"
     inkscape:window-x="55"
     inkscape:window-y="33"
     inkscape:window-maximized="1"
     inkscape:current-layer="layer1" /><defs
     id="defs2" /><g
     inkscape:label="Layer 1"
     inkscape:groupmode="layer"
     id="layer1"><path
       style="fill:#000000;stroke-width:0.170506"
       d="m 101.57611,120.19397 c -2.977141,-0.34646 -5.969218,-1.47466 -8.633582,-3.25593 -1.557664,-1.04131 -4.300632,-3.92349 -5.352782,-5.62437 -0.745305,-1.20434 -1.631621,-3.11468 -2.141782,-4.61476 -0.09704,-0.282 -1.235373,-0.29841 -20.71436,-0.29841 -19.411729,0 -22.195063,-0.0427 -22.195063,-0.33723 0,-0.066 0.326076,-0.2166 0.724924,-0.33432 1.204613,-0.35566 2.701046,-1.23701 3.752419,-2.21009 1.048479,-0.97046 1.62735,-1.82626 2.232035,-3.30017 l 0.366827,-0.894253 0.08729,-30.066667 0.08738,-30.066668 0.478432,-0.411467 0.478422,-0.41147 h 32.121662 32.121548 l 0.47843,0.41147 0.47845,0.411467 0.0486,23.534387 0.0486,23.534382 1.03983,0.990795 c 2.4859,2.368581 4.49326,5.861721 5.37065,9.345633 0.40856,1.621793 0.47357,2.221643 0.48133,4.433181 0.009,2.97048 -0.27464,4.61053 -1.21431,6.99079 -0.82196,2.08204 -1.92304,3.89767 -3.41394,5.62856 l -1.24683,1.44748 h 2.98548 2.98549 v 1.70507 1.70508 h -6.13827 -6.13815 v -6.05294 -6.05299 h 1.78639 1.78649 l 0.0486,3.11175 0.0486,3.11175 0.90834,-0.93774 c 1.87819,-1.93876 3.31483,-4.67008 3.89992,-7.41424 0.14945,-0.6994 0.25232,-2.04627 0.24843,-3.24246 -0.009,-4.035161 -1.39734,-7.572449 -4.12846,-10.552296 -1.88267,-2.054065 -4.81041,-3.819562 -7.57804,-4.569619 -2.00695,-0.543934 -5.9261,-0.546266 -7.81187,-0.0049 -2.898825,0.832645 -4.994306,2.012183 -6.995453,3.937768 -2.135274,2.054716 -3.608421,4.574627 -4.39768,7.522856 -0.495898,1.852831 -0.54053,5.398131 -0.08736,7.223151 1.649963,6.69512 7.335605,11.67576 13.882333,12.16105 l 1.40666,0.10423 v 1.76499 1.76501 l -0.46872,-0.0193 c -0.25814,-0.01 -1.02538,-0.0873 -1.70557,-0.16595 z M 81.0731,95.914332 v -1.790324 h -8.695873 -8.695773 v 1.790324 1.790335 h 8.695773 8.695873 z m 0,-6.99079 v -1.790324 h -8.695873 -8.695773 v 1.790324 1.790333 h 8.695773 8.695873 z m 0,-6.990789 v -1.790324 h -8.695873 -8.695773 v 1.790324 1.790324 h 8.695773 8.695873 z m 16.249636,1.192843 c 1.273318,-0.455141 4.018314,-1.10759 4.659874,-1.10759 0.0389,0 0.0583,-0.422044 0.0583,-0.937736 v -0.937841 h -8.695874 -8.695874 v 1.790324 1.790324 l 5.498835,-5.8e-5 5.498843,-3.8e-5 z M 81.0731,74.941963 V 73.15164 h -8.695873 -8.695773 v 1.790323 1.790325 h 8.695773 8.695873 z m 20.97241,0 V 73.15164 h -8.69589 -8.695864 v 1.790323 1.790325 h 8.695864 8.69589 z m 0,-13.981578 V 59.170072 H 82.863478 63.681454 v 1.790313 1.790324 h 19.182024 19.182032 z m 0,-6.990788 V 52.179282 H 82.863478 63.681454 v 1.790315 1.790313 H 82.863478 102.04551 Z M 39.248246,102.58419 c -1.588718,-0.59178 -2.819338,-1.89026 -3.297569,-3.479267 -0.190211,-0.633893 -0.23194,-4.486655 -0.23194,-21.478999 V 56.91936 l 0.57936,-0.579744 0.57935,-0.579743 h 4.62078 4.62078 v 21.541923 21.541905 l -0.519194,1.039628 c -0.563828,1.128471 -1.300782,1.873141 -2.426504,2.452191 -0.914155,0.47009 -2.979261,0.6009 -3.924969,0.24863 z"
       id="path302" /></g></svg>
