<?xml version="1.0" encoding="UTF-8" standalone="no"?>
<!-- Created with Inkscape (http://www.inkscape.org/) -->

<svg
   xmlns:dc="http://purl.org/dc/elements/1.1/"
   xmlns:cc="http://creativecommons.org/ns#"
   xmlns:rdf="http://www.w3.org/1999/02/22-rdf-syntax-ns#"
   xmlns:svg="http://www.w3.org/2000/svg"
   xmlns="http://www.w3.org/2000/svg"
   xmlns:sodipodi="http://sodipodi.sourceforge.net/DTD/sodipodi-0.dtd"
   xmlns:inkscape="http://www.inkscape.org/namespaces/inkscape"
   width="600"
   height="600"
   viewBox="0 0 158.75 158.75"
   version="1.1"
   id="svg8"
   inkscape:version="0.92.4 (5da689c313, 2019-01-14)"
   sodipodi:docname="taxi.svg">
  <defs
     id="defs2" />
  <sodipodi:namedview
     id="base"
     pagecolor="#ffffff"
     bordercolor="#666666"
     borderopacity="1.0"
     inkscape:pageopacity="0.0"
     inkscape:pageshadow="2"
     inkscape:zoom="0.35"
     inkscape:cx="-452.0496"
     inkscape:cy="133.44145"
     inkscape:document-units="mm"
     inkscape:current-layer="layer1"
     showgrid="false"
     units="px"
     inkscape:window-width="1818"
     inkscape:window-height="1046"
     inkscape:window-x="91"
     inkscape:window-y="-11"
     inkscape:window-maximized="1"
     inkscape:pagecheckerboard="true" />
  <metadata
     id="metadata5">
    <rdf:RDF>
      <cc:Work
         rdf:about="">
        <dc:format>image/svg+xml</dc:format>
        <dc:type
           rdf:resource="http://purl.org/dc/dcmitype/StillImage" />
        <dc:title></dc:title>
      </cc:Work>
    </rdf:RDF>
  </metadata>
  <g
     inkscape:label="Layer 1"
     inkscape:groupmode="layer"
     id="layer1"
     transform="translate(0,-138.25001)">
    <path
       style="fill:#000000;stroke-width:0.26458335"
       d="m 46.730605,251.87527 c -1.165685,-0.34989 -2.51176,-1.50967 -3.160239,-2.72285 -0.583803,-1.09219 -0.594115,-1.2838 -0.674293,-12.53014 l -0.08142,-11.42099 3.08941,-8.15818 c 4.669608,-12.33099 6.9583,-18.0975 7.657198,-19.29281 1.298426,-2.22067 3.860046,-3.91225 8.201656,-5.41602 1.164166,-0.40323 2.890573,-0.86536 3.836458,-1.02696 3.17214,-0.54197 2.910417,-0.33696 2.910417,-2.27968 0,-2.69849 0.921681,-4.38777 2.966022,-5.43616 0.890886,-0.45688 1.619633,-0.50342 7.881895,-0.50342 6.262262,0 6.991009,0.0465 7.881895,0.50342 2.044341,1.04839 2.966022,2.73767 2.966022,5.43616 0,1.93558 -0.246639,1.73506 2.778125,2.25863 2.234033,0.38669 6.33376,1.75362 8.149859,2.71733 0.84441,0.44808 2.09615,1.42837 2.78165,2.17842 1.40253,1.53459 1.15681,0.96234 7.76461,18.08273 l 4.2209,10.93608 -0.0814,11.42122 c -0.0802,11.24657 -0.0905,11.43818 -0.6743,12.53037 -0.65961,1.23401 -1.85678,2.23537 -3.21692,2.69077 -1.43397,0.48011 -9.60325,0.39719 -10.81693,-0.10979 -2.128355,-0.88906 -3.247027,-2.54437 -3.47728,-5.14534 l -0.152247,-1.71979 H 79.357714 61.233755 l -0.152247,1.71979 c -0.229626,2.5939 -1.216763,4.12368 -3.259549,5.05138 -0.93284,0.42364 -1.739569,0.49086 -5.716329,0.47632 -2.546615,-0.009 -4.965372,-0.11753 -5.375017,-0.24049 z M 63.352684,235.2467 c 1.851702,-0.84121 3.302071,-3.00684 3.302071,-4.93052 0,-1.87481 -1.370094,-3.9755 -3.202604,-4.91037 -0.888145,-0.4531 -1.576583,-0.51347 -5.845884,-0.51259 -5.459133,10e-4 -6.079515,0.174 -6.910884,1.92598 -0.82081,1.72973 -0.346576,3.65053 1.232577,4.99232 0.974701,0.8282 5.202168,3.18888 6.358214,3.55052 1.596543,0.49945 3.824881,0.44872 5.06651,-0.11534 z m 36.975196,0.12913 c 1.23459,-0.37156 5.42006,-2.68105 6.45957,-3.56431 1.57916,-1.34179 2.05339,-3.26259 1.23258,-4.99232 -0.83054,-1.75022 -1.45468,-1.92487 -6.88312,-1.92598 -2.646283,-5.3e-4 -5.103601,0.11009 -5.460711,0.24586 -1.056781,0.40179 -2.607829,1.91964 -3.12505,3.05817 -1.599742,3.52141 1.168887,7.51961 5.219195,7.53708 0.740857,0.003 1.891747,-0.15813 2.557536,-0.3585 z m 5.65397,-18.60827 c 2.07768,-1.11138 1.98829,-2.0229 -0.93315,-9.51583 -1.29517,-3.32184 -2.59471,-6.59146 -2.88788,-7.26582 -0.81519,-1.87518 -2.613571,-3.04009 -6.66353,-4.31634 -4.201777,-1.3241 -6.737454,-1.57568 -16.007292,-1.58817 -9.698885,-0.0131 -12.720263,0.31319 -16.971646,1.83269 -3.154376,1.12742 -4.954138,2.27298 -5.776841,3.67701 -0.351843,0.60047 -1.735267,3.88972 -3.074275,7.30946 -2.698112,6.8908 -2.915537,7.96827 -1.839182,9.11419 1.375952,1.46488 0.913194,1.442 28.058819,1.38726 L 104.89,217.35161 Z m -66.75079,4.16713 c -2.496857,-0.59493 -3.631936,-2.15068 -3.444969,-4.72172 0.253449,-3.48524 2.630684,-5.59256 6.565872,-5.82037 1.144408,-0.0662 2.080742,-0.0627 2.080742,0.008 0,0.0706 -0.666621,1.90156 -1.481379,4.06889 -0.814759,2.16733 -1.716282,4.56568 -2.003385,5.32967 -0.287104,0.76398 -0.602749,1.37687 -0.701434,1.36198 -0.09869,-0.0149 -0.555636,-0.11673 -1.015447,-0.22629 z m 77.81142,-2.99804 c -0.68502,-1.77699 -1.64235,-4.2279 -2.12741,-5.44648 l -0.88192,-2.2156 2.19872,0.11541 c 2.79995,0.14696 4.66575,1.0898 5.81923,2.94064 1.01357,1.62633 1.23722,4.11652 0.49185,5.47619 -0.54117,0.98717 -2.03282,1.951 -3.41335,2.20554 l -0.84164,0.15518 z"
       id="path828"
       inkscape:connector-curvature="0" />
  </g>
</svg>
