<?xml version="1.0" encoding="UTF-8" standalone="no"?>
<!-- Created with Inkscape (http://www.inkscape.org/) -->

<svg
   xmlns:dc="http://purl.org/dc/elements/1.1/"
   xmlns:cc="http://creativecommons.org/ns#"
   xmlns:rdf="http://www.w3.org/1999/02/22-rdf-syntax-ns#"
   xmlns:svg="http://www.w3.org/2000/svg"
   xmlns="http://www.w3.org/2000/svg"
   xmlns:sodipodi="http://sodipodi.sourceforge.net/DTD/sodipodi-0.dtd"
   xmlns:inkscape="http://www.inkscape.org/namespaces/inkscape"
   width="600"
   height="600"
   viewBox="0 0 158.75 158.75"
   version="1.1"
   id="svg929"
   sodipodi:docname="transport.svg"
   inkscape:version="0.92.4 (5da689c313, 2019-01-14)">
  <defs
     id="defs923" />
  <sodipodi:namedview
     id="base"
     pagecolor="#ffffff"
     bordercolor="#666666"
     borderopacity="1.0"
     inkscape:pageopacity="0.0"
     inkscape:pageshadow="2"
     inkscape:zoom="0.35"
     inkscape:cx="-155.71429"
     inkscape:cy="-125.71429"
     inkscape:document-units="mm"
     inkscape:current-layer="layer1"
     showgrid="false"
     units="px"
     inkscape:pagecheckerboard="true"
     inkscape:window-width="1825"
     inkscape:window-height="1046"
     inkscape:window-x="84"
     inkscape:window-y="-11"
     inkscape:window-maximized="1" />
  <metadata
     id="metadata926">
    <rdf:RDF>
      <cc:Work
         rdf:about="">
        <dc:format>image/svg+xml</dc:format>
        <dc:type
           rdf:resource="http://purl.org/dc/dcmitype/StillImage" />
        <dc:title></dc:title>
      </cc:Work>
    </rdf:RDF>
  </metadata>
  <g
     inkscape:label="Layer 1"
     inkscape:groupmode="layer"
     id="layer1"
     transform="translate(0,-138.24999)">
    <path
       style="fill:#000000;stroke-width:0.26458338"
       d="m 50.786764,257.99798 c -1.13782,-1.13782 -0.91215,-1.55656 2.92648,-5.43056 l 3.57592,-3.60887 -1.3931,-0.57847 c -3.12261,-1.29666 -5.85271,-4.29567 -6.8617,-7.5376 -0.47102,-1.51339 -0.49096,-2.84809 -0.42327,-28.33799 l 0.071,-26.74979 0.90367,-1.85208 c 1.71556,-3.51606 5.02071,-6.05512 8.97225,-6.89262 2.58635,-0.54816 39.03547,-0.55022 41.620216,-0.002 4.54305,0.96294 8.25138,4.20987 9.49774,8.31597 0.52045,1.7147 0.53078,2.3502 0.46092,28.35851 l -0.0715,26.60451 -1.01495,2.05345 c -1.28384,2.59747 -3.22449,4.55294 -5.71517,5.75884 l -1.84074,0.89119 3.46964,3.48732 c 3.01184,3.0272 3.46963,3.59992 3.46963,4.34072 0,0.56883 -0.20093,1.0161 -0.60258,1.34132 -1.25883,1.01935 -1.64896,0.77502 -6.6146,-4.14228 l -4.675716,-4.6302 -17.18255,0.008 -17.18254,0.008 -3.84297,3.76264 c -6.14496,6.0165 -6.27766,6.10148 -7.54614,4.833 z m 15.26596,-20.39713 c 1.64951,-1.16184 2.40646,-2.75687 2.28313,-4.81101 -0.12224,-2.03612 -1.08786,-3.56058 -2.85269,-4.50367 -1.6948,-0.90566 -4.02657,-0.76265 -5.59664,0.34324 -1.64952,1.16183 -2.40646,2.75686 -2.28313,4.811 0.12224,2.03612 1.08786,3.56058 2.85269,4.50366 1.69479,0.90567 4.02657,0.76266 5.59664,-0.34322 z m 32.26563,0.20155 c 1.1416,-0.59639 1.5505,-1.0053 2.146866,-2.14689 0.93638,-1.79241 0.95504,-3.18895 0.0665,-4.97206 -0.939406,-1.88517 -2.340546,-2.8094 -4.451006,-2.936 -2.03609,-0.12214 -3.63243,0.64331 -4.80064,2.30192 -0.7072,1.00408 -0.79375,1.33836 -0.79375,3.06575 0,1.7274 0.0865,2.06168 0.79375,3.06576 1.65419,2.3486 4.42468,2.98688 7.0383,1.62152 z m -20.72778,-31.07947 0.0689,-11.8401 h -12.83501 -12.83502 v 11.72986 c 0,6.45142 0.0805,11.81038 0.17893,11.90879 0.0984,0.0984 5.84317,0.14801 12.76614,0.11024 l 12.58723,-0.0687 z m 29.104166,0 0.0689,-11.8401 H 93.928644 81.093624 v 11.72986 c 0,6.45142 0.0805,11.81038 0.17891,11.90879 0.0984,0.0984 5.84318,0.14801 12.76616,0.11024 l 12.587206,-0.0687 z M 95.088884,187.10276 c 0.67401,-0.61015 0.73359,-1.90477 0.1189,-2.584 -0.41466,-0.45819 -1.2545,-0.48385 -15.83399,-0.48385 -14.97364,0 -15.40904,0.0143 -15.86707,0.5204 -0.86867,0.95987 -0.48319,2.41686 0.77663,2.93537 0.2961,0.12186 7.22319,0.19784 15.39354,0.16884 14.19652,-0.0504 14.87988,-0.0751 15.41199,-0.55676 z"
       id="path1737"
       inkscape:connector-curvature="0" />
  </g>
</svg>
