<?xml version="1.0" encoding="UTF-8" standalone="no"?>
<!-- Created with Inkscape (http://www.inkscape.org/) -->

<svg
   width="600"
   height="600"
   viewBox="0 0 158.75 158.75"
   version="1.1"
   id="svg5"
   xml:space="preserve"
   inkscape:version="1.2.2 (b0a8486541, 2022-12-01)"
   sodipodi:docname="utilities.svg"
   xmlns:inkscape="http://www.inkscape.org/namespaces/inkscape"
   xmlns:sodipodi="http://sodipodi.sourceforge.net/DTD/sodipodi-0.dtd"
   xmlns="http://www.w3.org/2000/svg"
   xmlns:svg="http://www.w3.org/2000/svg"><sodipodi:namedview
     id="namedview7"
     pagecolor="#ffffff"
     bordercolor="#111111"
     borderopacity="1"
     inkscape:showpageshadow="0"
     inkscape:pageopacity="0"
     inkscape:pagecheckerboard="1"
     inkscape:deskcolor="#d1d1d1"
     inkscape:document-units="mm"
     showgrid="false"
     inkscape:zoom="0.35355339"
     inkscape:cx="1011.1627"
     inkscape:cy="217.78889"
     inkscape:window-width="1858"
     inkscape:window-height="1040"
     inkscape:window-x="55"
     inkscape:window-y="33"
     inkscape:window-maximized="1"
     inkscape:current-layer="layer1" /><defs
     id="defs2" /><g
     inkscape:label="Layer 1"
     inkscape:groupmode="layer"
     id="layer1"><path
       style="fill:#000000;stroke-width:0.186035"
       d="m 61.287758,126.71001 c -0.609239,-0.33062 -0.888344,-0.80584 -0.888344,-1.51253 0,-0.2886 3.223059,-10.19309 7.162354,-22.00998 3.939294,-11.816886 7.162353,-21.590301 7.162353,-21.718699 0,-0.183399 -1.614733,-0.233449 -7.531488,-0.233449 h -7.53149 l -0.578279,-0.516693 c -0.424683,-0.379454 -0.583079,-0.688285 -0.596345,-1.162719 -0.01282,-0.458408 2.727483,-7.237518 9.43561,-23.342317 5.199522,-12.482959 9.606078,-22.998239 9.792345,-23.367289 0.187537,-0.371566 0.573123,-0.768115 0.864052,-0.888622 0.383695,-0.158932 3.125026,-0.203742 10.164929,-0.166158 l 9.639544,0.05146 0.448882,0.52197 c 0.2995,0.348268 0.448881,0.750963 0.448881,1.210082 0,0.505374 -1.992785,5.134245 -7.504007,17.430423 -4.127205,9.208269 -7.470897,16.805097 -7.430427,16.881836 0.04047,0.07674 3.40161,0.139526 7.469202,0.139526 h 7.395621 l 0.474658,0.511597 c 0.582381,0.627705 0.745191,1.235035 0.502321,1.87383 -0.327958,0.862598 -36.089433,55.358052 -36.737713,55.983112 -0.695089,0.67018 -1.335722,0.76338 -2.162659,0.31462 z"
       id="path1468" /></g></svg>
