<?xml version="1.0" encoding="UTF-8" standalone="no"?>
<!-- Created with Inkscape (http://www.inkscape.org/) -->

<svg
   xmlns:dc="http://purl.org/dc/elements/1.1/"
   xmlns:cc="http://creativecommons.org/ns#"
   xmlns:rdf="http://www.w3.org/1999/02/22-rdf-syntax-ns#"
   xmlns:svg="http://www.w3.org/2000/svg"
   xmlns="http://www.w3.org/2000/svg"
   xmlns:sodipodi="http://sodipodi.sourceforge.net/DTD/sodipodi-0.dtd"
   xmlns:inkscape="http://www.inkscape.org/namespaces/inkscape"
   width="600"
   height="600"
   viewBox="0 0 158.75 158.75"
   version="1.1"
   id="svg929"
   sodipodi:docname="visa.svg"
   inkscape:version="0.92.4 (5da689c313, 2019-01-14)">
  <defs
     id="defs923" />
  <sodipodi:namedview
     id="base"
     pagecolor="#ffffff"
     bordercolor="#666666"
     borderopacity="1.0"
     inkscape:pageopacity="0.0"
     inkscape:pageshadow="2"
     inkscape:zoom="0.35"
     inkscape:cx="-155.71429"
     inkscape:cy="-125.71429"
     inkscape:document-units="mm"
     inkscape:current-layer="layer1"
     showgrid="false"
     units="px"
     inkscape:pagecheckerboard="true"
     inkscape:window-width="1825"
     inkscape:window-height="1046"
     inkscape:window-x="84"
     inkscape:window-y="-11"
     inkscape:window-maximized="1" />
  <metadata
     id="metadata926">
    <rdf:RDF>
      <cc:Work
         rdf:about="">
        <dc:format>image/svg+xml</dc:format>
        <dc:type
           rdf:resource="http://purl.org/dc/dcmitype/StillImage" />
        <dc:title></dc:title>
      </cc:Work>
    </rdf:RDF>
  </metadata>
  <g
     inkscape:label="Layer 1"
     inkscape:groupmode="layer"
     id="layer1"
     transform="translate(0,-138.24999)">
    <path
       style="fill:#000000;stroke-width:0.26458338"
       d="m 40.727139,250.0431 c -2.710963,-0.73599 -4.790734,-2.52124 -6.039971,-5.18464 l -0.688211,-1.46728 V 217.5943 191.79743 l 0.697221,-1.48696 c 0.980747,-2.09164 2.380012,-3.526 4.418917,-4.52975 l 1.751902,-0.86246 H 79.375001 117.883 l 1.75191,0.86246 c 2.0389,1.00375 3.43816,2.43811 4.41891,4.52975 l 0.69722,1.48696 v 25.80244 25.80244 l -0.86245,1.7519 c -1.00375,2.0389 -2.43811,3.43817 -4.52975,4.41892 l -1.48696,0.69722 -37.967712,0.0505 c -29.529586,0.0393 -38.236476,-0.0224 -39.177029,-0.27778 z m 44.600987,-21.69596 c 4.063577,-1.08547 6.748727,-3.84556 6.745521,-6.93376 -0.0024,-2.25347 -1.262603,-3.74771 -4.594686,-5.44772 -1.72821,-0.88173 -2.812293,-1.83479 -2.812293,-2.4724 0,-0.84833 1.191678,-1.66531 2.704864,-1.85437 1.206958,-0.1508 1.726907,-0.0709 3.071059,0.47204 1.841656,0.74388 1.656056,0.90391 2.186051,-1.8849 0.266848,-1.40415 0.258471,-1.7177 -0.05107,-1.91121 -0.675817,-0.42249 -3.244514,-0.8376 -5.076357,-0.82037 -4.61578,0.0434 -7.688352,2.22962 -8.049339,5.72724 -0.296214,2.87005 0.961612,4.70558 4.478335,6.53518 2.987804,1.55443 3.605437,2.8156 1.972916,4.0286 -0.628738,0.46716 -1.092502,0.55006 -2.910417,0.52025 -1.250064,-0.0205 -2.651001,-0.21586 -3.320251,-0.46302 -0.636759,-0.23516 -1.251683,-0.42756 -1.366496,-0.42756 -0.36182,0 -1.177703,3.94451 -0.877898,4.24432 0.39348,0.39348 3.442298,1.00252 5.121931,1.02317 0.800365,0.01 2.050521,-0.14113 2.778125,-0.33549 z m -20.271531,-9.29763 c 1.998747,-4.94771 3.834437,-9.50185 4.079312,-10.12031 l 0.445227,-1.12448 h -2.886262 -2.886255 l -2.292149,6.87664 c -2.129249,6.38792 -2.778969,7.94696 -2.778969,6.66827 0,-0.79751 -1.713285,-3.99724 -3.036728,-5.67139 -1.277378,-1.61588 -4.183139,-4.07229 -4.3227,-3.65423 -0.06681,0.20013 3.61381,14.56709 4.055848,15.83161 0.08912,0.25493 0.849389,0.3208 3.053624,0.26459 l 2.934968,-0.0749 z m 10.481268,-1.05833 1.607918,-10.05417 -2.624021,-0.0758 c -1.44321,-0.0417 -2.679391,-0.0204 -2.747074,0.0473 -0.104058,0.10406 -3.233658,19.47566 -3.244035,20.07995 -0.0019,0.11423 1.212075,0.17376 2.697864,0.13229 l 2.701435,-0.0754 z m 22.406531,8.6651 0.517588,-1.38906 h 3.391648 3.39165 l 0.17584,0.99219 c 0.35715,2.0152 0.21504,1.91823 2.81129,1.91823 1.29988,0 2.36459,-0.0893 2.36602,-0.19844 0.001,-0.10914 -0.91246,-4.69305 -2.03085,-10.18646 l -2.03345,-9.98802 h -2.83563 c -2.02038,0 -2.87431,0.0951 -2.97015,0.33073 -0.074,0.1819 -2.004684,4.61698 -4.290438,9.85573 -2.285754,5.23875 -4.21689,9.67815 -4.29141,9.86534 -0.106256,0.2669 0.448779,0.32399 2.572406,0.26458 l 2.707894,-0.0757 z m 2.145926,-5.68854 c 0.0739,-0.1819 0.70041,-1.79464 1.39214,-3.58387 0.69174,-1.78923 1.34412,-3.15844 1.44973,-3.04271 0.18278,0.20032 1.32117,5.93221 1.31607,6.62658 -0.002,0.23719 -0.6091,0.33073 -2.1474,0.33073 -1.61129,0 -2.111526,-0.0823 -2.01054,-0.33073 z m -42.853803,-7.24546 c -0.66392,-3.55635 -0.815304,-4.02191 -1.580069,-4.85923 l -0.845801,-0.92604 -4.717303,-0.058 c -3.694609,-0.0454 -4.573902,0.007 -4.055845,0.24231 6.047019,2.74505 9.777744,5.66886 11.323455,8.87431 0.227178,0.47112 0.457327,0.8123 0.511442,0.75818 0.05411,-0.0541 -0.23203,-1.86832 -0.635879,-4.03157 z"
       id="path1894"
       inkscape:connector-curvature="0" />
  </g>
</svg>
