<?xml version="1.0" encoding="UTF-8" standalone="no"?>
<!-- Created with Inkscape (http://www.inkscape.org/) -->

<svg
   width="600"
   height="600"
   viewBox="0 0 158.75 158.75001"
   version="1.1"
   id="svg839"
   inkscape:version="1.2.2 (b0a8486541, 2022-12-01)"
   sodipodi:docname="acc_master.svg"
   xml:space="preserve"
   xmlns:inkscape="http://www.inkscape.org/namespaces/inkscape"
   xmlns:sodipodi="http://sodipodi.sourceforge.net/DTD/sodipodi-0.dtd"
   xmlns="http://www.w3.org/2000/svg"
   xmlns:svg="http://www.w3.org/2000/svg"
   xmlns:rdf="http://www.w3.org/1999/02/22-rdf-syntax-ns#"
   xmlns:cc="http://creativecommons.org/ns#"
   xmlns:dc="http://purl.org/dc/elements/1.1/"><defs
     id="defs833" /><sodipodi:namedview
     id="base"
     pagecolor="#ffffff"
     bordercolor="#666666"
     borderopacity="1.0"
     inkscape:pageopacity="0.0"
     inkscape:pageshadow="2"
     inkscape:zoom="0.7"
     inkscape:cx="365.71429"
     inkscape:cy="344.28571"
     inkscape:document-units="mm"
     inkscape:current-layer="layer1"
     showgrid="false"
     inkscape:pagecheckerboard="true"
     units="px"
     inkscape:window-width="1858"
     inkscape:window-height="1040"
     inkscape:window-x="55"
     inkscape:window-y="33"
     inkscape:window-maximized="1"
     inkscape:showpageshadow="0"
     inkscape:deskcolor="#d1d1d1" /><metadata
     id="metadata836"><rdf:RDF><cc:Work
         rdf:about=""><dc:format>image/svg+xml</dc:format><dc:type
           rdf:resource="http://purl.org/dc/dcmitype/StillImage" /></cc:Work></rdf:RDF></metadata><g
     inkscape:label="Layer 1"
     inkscape:groupmode="layer"
     id="layer1"
     transform="translate(0,-201.74998)"><path
       id="path1894"
       style="opacity:1;fill:#000000;stroke-width:0.262269"
       d="M 41.203687 248.70422 L 39.467358 249.55946 C 37.4463 250.55443 36.058906 251.97578 35.086747 254.04911 L 34.395833 255.52344 L 34.395833 281.09449 L 34.395833 306.66606 L 35.077962 308.12023 C 36.316261 310.76034 38.377946 312.5299 41.065194 313.25945 C 41.997523 313.51261 50.628225 313.57379 79.899516 313.53489 L 117.53494 313.48476 L 119.00927 312.79385 C 121.08261 311.82168 122.50447 310.4343 123.49944 308.41324 L 124.35417 306.67691 L 124.35417 281.10018 L 124.35417 255.52344 L 123.66325 254.04911 C 122.69109 251.97578 121.30372 250.55443 119.28264 249.55946 L 117.54631 248.70422 L 79.375 248.70422 L 41.203687 248.70422 z M 68.767896 263.20979 C 69.262047 263.2097 69.75862 263.23129 70.256177 263.27491 C 73.281379 263.54011 76.062533 264.4798 78.453092 266.04425 L 79.35588 266.63491 L 80.016305 266.18946 C 84.518234 263.15562 90.25845 262.39825 95.515617 264.1441 C 102.78825 266.55929 107.71539 273.41014 107.71539 281.10741 C 107.71539 287.1253 104.74691 292.66429 99.725696 296.01503 C 93.785201 299.97922 85.921741 299.98215 80.016305 296.02278 L 79.35588 295.57991 L 78.453092 296.17006 C 76.748875 297.28535 74.454895 298.22697 72.4054 298.65156 C 71.597019 298.81902 69.146396 299.06947 68.63457 299.03706 C 68.507197 299.02906 67.924664 298.98331 67.339559 298.93526 C 60.196977 298.34891 53.986326 293.39495 51.811825 286.54946 C 51.140592 284.43636 51.035332 283.6984 51.034611 281.10741 C 51.033735 278.44241 51.197817 277.40797 51.976156 275.17185 C 54.456466 268.0461 61.355616 263.21122 68.767896 263.20979 z M 89.896838 266.90776 C 87.80045 266.90874 85.672216 267.38323 83.658976 268.37124 C 82.878813 268.75411 82.240458 269.11043 82.240458 269.16292 C 82.240458 269.21542 82.509817 269.59264 82.838871 270.00111 C 84.632561 272.22775 85.902048 275.02603 86.485677 278.03886 C 86.765138 279.48153 86.765138 282.7333 86.485677 284.17596 C 85.907729 287.15946 84.641703 289.965 82.88383 292.15738 C 82.530026 292.59863 82.240458 293.00187 82.240458 293.05345 C 82.240458 293.10505 82.878813 293.4602 83.658976 293.84307 C 85.152874 294.57621 86.657145 295.02997 88.244226 295.22593 C 89.366702 295.36452 91.401748 295.28039 92.538538 295.04868 C 96.38754 294.26416 99.556582 292.13027 101.7142 288.86973 C 104.79134 284.21963 104.79134 277.99519 101.7142 273.34509 C 98.96782 269.19483 94.508893 266.90561 89.896838 266.90776 z M 79.345028 271.61187 C 79.290338 271.61187 78.914039 272.05391 78.508903 272.59372 C 74.699452 277.66952 74.699452 284.5453 78.508903 289.6211 C 78.914039 290.16091 79.290339 290.60244 79.345028 290.60244 C 79.399718 290.60244 79.757277 290.18715 80.139811 289.6795 C 84.001086 284.55519 84.001086 277.65962 80.139811 272.53532 C 79.757277 272.02765 79.399716 271.61187 79.345028 271.61187 z " /></g></svg>
