<?xml version="1.0" encoding="UTF-8" standalone="no"?>
<!-- Created with Inkscape (http://www.inkscape.org/) -->

<svg
   xmlns:dc="http://purl.org/dc/elements/1.1/"
   xmlns:cc="http://creativecommons.org/ns#"
   xmlns:rdf="http://www.w3.org/1999/02/22-rdf-syntax-ns#"
   xmlns:svg="http://www.w3.org/2000/svg"
   xmlns="http://www.w3.org/2000/svg"
   xmlns:sodipodi="http://sodipodi.sourceforge.net/DTD/sodipodi-0.dtd"
   xmlns:inkscape="http://www.inkscape.org/namespaces/inkscape"
   width="360"
   height="360"
   viewBox="0 0 95.249998 95.250003"
   version="1.1"
   id="svg839"
   inkscape:version="0.92.4 (5da689c313, 2019-01-14)"
   sodipodi:docname="acc_visa.svg">
  <defs
     id="defs833" />
  <sodipodi:namedview
     id="base"
     pagecolor="#ffffff"
     bordercolor="#666666"
     borderopacity="1.0"
     inkscape:pageopacity="0.0"
     inkscape:pageshadow="2"
     inkscape:zoom="0.35"
     inkscape:cx="-155.71429"
     inkscape:cy="560"
     inkscape:document-units="mm"
     inkscape:current-layer="layer1"
     showgrid="false"
     inkscape:pagecheckerboard="true"
     units="px"
     inkscape:window-width="1825"
     inkscape:window-height="1046"
     inkscape:window-x="84"
     inkscape:window-y="-11"
     inkscape:window-maximized="1" />
  <metadata
     id="metadata836">
    <rdf:RDF>
      <cc:Work
         rdf:about="">
        <dc:format>image/svg+xml</dc:format>
        <dc:type
           rdf:resource="http://purl.org/dc/dcmitype/StillImage" />
        <dc:title></dc:title>
      </cc:Work>
    </rdf:RDF>
  </metadata>
  <g
     inkscape:label="Layer 1"
     inkscape:groupmode="layer"
     id="layer1"
     transform="translate(0,-201.74998)">
    <path
       style="fill:#000000;stroke-width:0.26226929"
       d="m 9.315165,281.50954 c -2.68725,-0.72955 -4.74884,-2.49918 -5.98714,-5.13929 l -0.68219,-1.45445 v -25.57125 -25.57124 l 0.69112,-1.47396 c 0.97216,-2.07334 2.3592,-3.49516 4.38026,-4.49013 l 1.73659,-0.85491 h 38.1712 38.17119 l 1.73659,0.85491 c 2.02107,0.99497 3.40809,2.41679 4.38026,4.49013 l 0.69112,1.47396 v 25.57676 25.57677 l -0.8549,1.73657 c -0.99497,2.02107 -2.41679,3.4081 -4.49013,4.38027 l -1.47396,0.69113 -37.63563,0.0501 c -29.27132,0.0389 -37.90205,-0.0222 -38.83438,-0.27536 z m 44.2109,-21.5062 c 4.02804,-1.07597 6.6897,-3.81192 6.68652,-6.87311 -0.002,-2.23376 -1.25156,-3.71493 -4.5545,-5.40007 -1.7131,-0.87402 -2.7877,-1.81875 -2.7877,-2.45078 0,-0.84091 1.18126,-1.65074 2.68121,-1.83815 1.1964,-0.14948 1.7118,-0.0703 3.0442,0.46791 1.82555,0.73737 1.64157,0.89601 2.16693,-1.86841 0.26451,-1.39187 0.25622,-1.70268 -0.0507,-1.8945 -0.6699,-0.41879 -3.21613,-0.83027 -5.03195,-0.81319 -4.57541,0.043 -7.6211,2.21012 -7.97894,5.67715 -0.29362,2.84494 0.9532,4.66442 4.43917,6.47802 2.96167,1.54083 3.5739,2.79097 1.95566,3.99336 -0.62324,0.46308 -1.08294,0.54525 -2.88496,0.5157 -1.23913,-0.0203 -2.62782,-0.21397 -3.29121,-0.45897 -0.6312,-0.2331 -1.24074,-0.42382 -1.35454,-0.42382 -0.35866,0 -1.16741,3.91001 -0.87022,4.2072 0.39003,0.39004 3.41219,0.99375 5.07713,1.01422 0.79336,0.01 2.03258,-0.1399 2.75382,-0.33256 z m -20.09423,-9.21631 c 1.98126,-4.90443 3.80089,-9.41874 4.04363,-10.03179 l 0.44134,-1.11465 h -2.86103 -2.861 l -2.27211,6.8165 c -2.11062,6.33205 -2.75466,7.87745 -2.75466,6.60995 0,-0.79054 -1.6983,-3.96228 -3.01017,-5.62179 -1.2662,-1.60175 -4.14655,-4.03667 -4.28489,-3.62227 -0.0662,0.19838 3.5822,14.43968 4.02037,15.69314 0.0883,0.2527 0.84196,0.318 3.02692,0.26228 l 2.90929,-0.0743 z m 10.3896,-1.04907 1.59384,-9.96623 -2.60107,-0.0751 c -1.43058,-0.0413 -2.65595,-0.0202 -2.72304,0.0469 -0.10315,0.10315 -3.20538,19.30532 -3.21567,19.90432 -0.002,0.11323 1.20148,0.17224 2.67428,0.13113 l 2.6778,-0.0747 z m 22.21055,8.58931 0.51306,-1.37691 h 3.36198 3.36199 l 0.1743,0.98351 c 0.35403,1.99758 0.21316,1.90146 2.7867,1.90146 1.28851,0 2.34391,-0.0885 2.34533,-0.19671 0.001,-0.10818 -0.90448,-4.652 -2.01309,-10.09736 l -2.01567,-9.90067 h -2.81082 c -2.00271,0 -2.84917,0.0943 -2.94418,0.32784 -0.0734,0.18031 -1.98714,4.5766 -4.25291,9.76953 -2.26576,5.19293 -4.18001,9.5935 -4.25388,9.77906 -0.10532,0.26456 0.44486,0.32115 2.54991,0.26226 l 2.68421,-0.075 z m 2.12715,-5.63878 c 0.0733,-0.18031 0.69429,-1.77895 1.37997,-3.55253 0.68569,-1.77358 1.33236,-3.13081 1.43705,-3.0161 0.18118,0.19857 1.30961,5.88033 1.30456,6.56863 -0.002,0.23511 -0.60378,0.32783 -2.12862,0.32783 -1.5972,0 -2.09305,-0.0816 -1.99296,-0.32783 z m -42.47898,-7.18209 c -0.65812,-3.52525 -0.80817,-3.98674 -1.56625,-4.81673 l -0.83841,-0.91794 -4.67604,-0.0575 c -3.66229,-0.045 -4.5339,0.007 -4.02037,0.2402 5.99413,2.72104 9.69223,5.61927 11.22442,8.79669 0.22518,0.467 0.45332,0.80519 0.50697,0.75155 0.0536,-0.0536 -0.23001,-1.85198 -0.63032,-3.99631 z"
       id="path1894"
       inkscape:connector-curvature="0" />
  </g>
</svg>
