<?xml version="1.0" encoding="UTF-8" standalone="no"?>
<!-- Created with Inkscape (http://www.inkscape.org/) -->

<svg
   xmlns:dc="http://purl.org/dc/elements/1.1/"
   xmlns:cc="http://creativecommons.org/ns#"
   xmlns:rdf="http://www.w3.org/1999/02/22-rdf-syntax-ns#"
   xmlns:svg="http://www.w3.org/2000/svg"
   xmlns="http://www.w3.org/2000/svg"
   xmlns:sodipodi="http://sodipodi.sourceforge.net/DTD/sodipodi-0.dtd"
   xmlns:inkscape="http://www.inkscape.org/namespaces/inkscape"
   width="600"
   height="600"
   viewBox="0 0 158.75 158.75001"
   version="1.1"
   id="svg839"
   inkscape:version="0.92.4 (5da689c313, 2019-01-14)"
   sodipodi:docname="acc_dbs.svg">
  <defs
     id="defs833" />
  <sodipodi:namedview
     id="base"
     pagecolor="#ffffff"
     bordercolor="#666666"
     borderopacity="1.0"
     inkscape:pageopacity="0.0"
     inkscape:pageshadow="2"
     inkscape:zoom="0.98994949"
     inkscape:cx="-268.21144"
     inkscape:cy="345.01131"
     inkscape:document-units="mm"
     inkscape:current-layer="layer1"
     showgrid="false"
     inkscape:pagecheckerboard="true"
     units="px"
     inkscape:window-width="1818"
     inkscape:window-height="1046"
     inkscape:window-x="91"
     inkscape:window-y="-11"
     inkscape:window-maximized="1" />
  <metadata
     id="metadata836">
    <rdf:RDF>
      <cc:Work
         rdf:about="">
        <dc:format>image/svg+xml</dc:format>
        <dc:type
           rdf:resource="http://purl.org/dc/dcmitype/StillImage" />
        <dc:title />
      </cc:Work>
    </rdf:RDF>
  </metadata>
  <g
     inkscape:label="Layer 1"
     inkscape:groupmode="layer"
     id="layer1"
     transform="translate(0,-138.24998)">
    <path
       style="opacity:1;fill:#000000;fill-opacity:1;stroke:none;stroke-width:16.63904572;stroke-miterlimit:4;stroke-dasharray:none;stroke-opacity:1"
       d="m 42.333334,185.21352 c -4.397375,0 -7.9375,3.54013 -7.9375,7.9375 v 48.94792 c 0,4.39737 3.540125,7.9375 7.9375,7.9375 h 74.083336 c 4.39737,0 7.9375,-3.54013 7.9375,-7.9375 v -48.94792 c 0,-4.39737 -3.54013,-7.9375 -7.9375,-7.9375 z m 2.23139,20.35225 c 0.03268,0 0.08582,0.01 0.147277,0.0233 0.373081,0.0117 0.764069,0.15187 1.672765,0.56845 2.157508,0.98895 2.806245,1.12551 5.352645,1.12551 2.5464,0 3.195135,-0.13656 5.352645,-1.12551 0.920404,-0.42191 1.309212,-0.56048 1.686719,-0.56896 0.02955,-0.001 0.05888,-0.002 0.08837,-0.002 0,0 5.16e-4,0 5.16e-4,0 10e-4,3e-5 0.0021,-3e-5 0.0031,0 0.03478,4.1e-4 0.06923,0.004 0.103868,0.007 0.02034,7.9e-4 0.04096,0.002 0.06098,0.004 0.03242,0.004 0.06445,0.009 0.09664,0.015 0.05784,0.009 0.116359,0.0179 0.173115,0.0336 1.036748,0.2353 1.676132,1.13803 1.567346,2.27015 l -0.06356,0.65784 0.702283,-0.0661 c 0.02211,-0.002 0.04273,-0.001 0.06459,-0.003 0.195324,-0.0266 0.353793,-0.0285 0.518314,0.014 0.571542,0.0821 1.038304,0.38445 1.39423,0.90589 0.431826,0.63262 0.402449,1.38949 -0.09508,2.44119 -0.683072,1.44388 -1.082653,2.67201 -1.26039,3.98064 -0.03865,0.49489 -0.0531,1.05699 -0.05374,1.7787 -4.68e-4,0.56786 0.0075,1.03 0.0279,1.44436 0.0029,0.0572 0.0038,0.12197 0.0072,0.17725 4.84e-4,0.008 0.0016,0.0144 0.0021,0.0222 0.136342,1.13093 0.44001,2.23075 0.924493,3.34036 0.03423,0.0762 0.06409,0.14547 0.100767,0.22583 0.07648,0.16698 0.154588,0.33404 0.239263,0.50178 0.18728,0.371 0.306728,0.7246 0.363286,1.0573 0.03282,0.12741 0.05426,0.23677 0.05426,0.30747 0,0.076 -0.0058,0.15314 -0.01602,0.231 -0.0039,0.12446 -0.02329,0.24168 -0.05426,0.35501 -0.117133,0.4997 -0.426188,0.92082 -0.927592,1.23559 -0.285514,0.17925 -0.531974,0.24283 -0.935342,0.24029 -0.02736,7.4e-4 -0.05591,-0.001 -0.08372,-0.002 -0.191789,0.014 -0.372933,0.008 -0.520383,-0.0264 l -0.429429,-0.0274 c -0.0027,0.0233 -0.004,0.0526 -0.0041,0.0853 l 0.0098,0.15555 0.02015,0.24288 c 0.0342,0.17566 0.04571,0.35188 0.03256,0.52452 0.0071,0.29113 -0.02674,0.49035 -0.136427,0.7059 -0.20511,0.58773 -0.6629,0.99799 -1.319297,1.16323 -0.179284,0.0619 -0.35969,0.0987 -0.531236,0.0987 -0.121263,0 -0.423611,-0.0893 -0.780311,-0.2191 -0.258424,-0.0899 -0.556141,-0.20491 -0.970484,-0.38189 -2.355276,-1.006 -2.89228,-1.11673 -5.413108,-1.11673 -2.538508,0 -3.197616,0.13777 -5.317503,1.10949 -0.7405,0.33943 -1.247577,0.52114 -1.666049,0.57103 -0.09045,0.0218 -0.165394,0.0363 -0.209807,0.0362 -0.06048,-1.5e-4 -0.140986,-0.0155 -0.228926,-0.0377 -0.206308,-0.0268 -0.402693,-0.0884 -0.610298,-0.19069 v 5.2e-4 c -0.426326,-0.21013 -0.710777,-0.49638 -0.878501,-0.88315 -0.112768,-0.20715 -0.183735,-0.43582 -0.211355,-0.68575 -0.04699,-0.26779 -0.04164,-0.54287 0.02584,-0.80977 v -0.36794 l -0.413928,0.0264 c -0.288181,0.066 -0.582628,0.066 -0.864547,0.006 -0.611224,-0.0761 -1.062818,-0.38031 -1.409732,-0.9493 -0.397039,-0.65118 -0.343577,-1.32946 0.194818,-2.47943 0.630635,-1.34697 0.995474,-2.41283 1.172023,-3.55896 0.04032,-0.37563 0.06441,-0.7831 0.0739,-1.27072 0.0032,-0.24366 0.0049,-0.49725 0.0052,-0.7891 5.74e-4,-0.64928 -0.0072,-1.1724 -0.03256,-1.63297 -0.142021,-1.41442 -0.482622,-2.52823 -1.212845,-4.05195 -0.265779,-0.55459 -0.475425,-1.20684 -0.475425,-1.48002 0,-0.64739 0.4015,-1.37373 0.978752,-1.77095 0.333293,-0.22934 0.554855,-0.2913 1.011309,-0.27698 0.178285,-0.0156 0.358363,-0.007 0.535885,0.03 l 0.460436,0.032 -0.06149,-0.64234 c -0.0095,-0.0992 -0.01136,-0.1959 -0.0093,-0.29145 -0.0065,-0.19452 0.01132,-0.35507 0.0708,-0.5209 0.153509,-0.58711 0.54461,-1.05413 1.093991,-1.3038 0.256768,-0.13832 0.532427,-0.21859 0.80667,-0.21859 z m 66.836226,1.11363 c 1.06141,0.003 2.16933,0.0787 3.04478,0.22582 1.51847,0.25527 2.62721,0.30242 2.99775,0.12713 0.22369,-0.10582 0.24133,0.0266 0.24133,1.82986 0,1.06933 -0.0282,1.94458 -0.0625,1.94458 -0.0344,0 -0.18121,-0.26386 -0.32608,-0.58601 -0.76413,-1.69922 -2.9411,-2.70617 -5.52783,-2.55643 -1.88849,0.10934 -3.31893,1.02896 -3.95841,2.54455 -0.3296,0.78118 -0.29686,2.18395 0.0677,2.89853 0.5676,1.11259 1.41993,1.54233 4.71909,2.3797 2.57422,0.65338 3.66553,1.12274 4.63537,1.99471 2.39076,2.1495 2.46402,6.54823 0.14831,8.90075 -0.83504,0.84834 -2.55343,1.70474 -3.99665,1.99161 -1.42527,0.28329 -4.20568,0.25681 -5.96656,-0.0568 -0.75802,-0.13504 -1.62639,-0.31578 -1.9296,-0.40152 -0.76302,-0.21577 -1.30292,-0.19651 -1.39733,0.0496 -0.0436,0.1137 -0.1657,0.2067 -0.2713,0.2067 -0.15561,0 -0.19224,-0.39395 -0.19224,-2.07894 0,-1.51665 0.0435,-2.06411 0.1602,-2.0252 0.088,0.0293 0.24234,0.33594 0.34313,0.68161 0.49531,1.69867 3.16645,2.97961 5.90558,2.83239 2.93986,-0.15802 4.67381,-1.67965 4.86172,-4.26641 0.0858,-1.18184 -0.14275,-2.00396 -0.75809,-2.72283 -0.64384,-0.7522 -1.12131,-0.97172 -3.55224,-1.63349 -2.41952,-0.65866 -3.58034,-1.1077 -4.58266,-1.77302 -2.02796,-1.34608 -2.91684,-3.63148 -2.32028,-5.96605 0.59549,-2.33036 2.24434,-3.77345 4.95112,-4.33255 0.68951,-0.14242 1.70432,-0.21147 2.76573,-0.20825 z m -43.867604,0.28732 c 0.736451,8.9e-4 1.547579,0.004 2.399855,0.0103 l 6.198587,0.045 1.203027,0.42685 c 4.039859,1.43388 6.440801,4.53805 6.842477,8.84597 0.368869,3.95611 -0.811801,7.29042 -3.445268,9.72861 -1.028005,0.95177 -2.582861,1.82726 -3.84266,2.16369 -0.831453,0.22204 -13.092739,0.34883 -13.092739,0.13539 0,-0.0802 0.201676,-0.23164 0.448034,-0.3359 0.889122,-0.37628 0.972471,-0.5881 1.106909,-2.81791 0.0672,-1.11452 0.09196,-5.2957 0.05529,-9.29142 -0.06162,-6.7139 -0.0858,-7.30355 -0.321426,-7.77576 -0.141915,-0.28441 -0.459116,-0.6181 -0.715201,-0.75241 -0.253047,-0.13272 -0.499583,-0.281 -0.547772,-0.32918 -0.03613,-0.0361 1.501537,-0.0559 3.710885,-0.0532 z m 26.117269,0.005 c 2.475179,0.004 3.301711,0.0528 3.851445,0.18035 1.743693,0.40439 2.9218,1.27995 3.52898,2.62206 0.24774,0.54761 0.3127,0.94392 0.31678,1.9296 0.005,1.08008 -0.0438,1.33966 -0.37362,2.01125 -0.4542,0.92484 -1.661662,2.11761 -2.785361,2.75177 l -0.807702,0.4563 0.676444,0.22996 c 3.164489,1.07634 4.971519,3.50454 4.685499,6.29626 -0.23683,2.31166 -1.38259,3.82819 -3.494357,4.62504 -0.765638,0.28891 -1.007006,0.29936 -7.784538,0.34313 -3.846928,0.0248 -6.992741,-0.005 -6.990788,-0.0651 0.0021,-0.0607 0.244039,-0.22118 0.537952,-0.35657 1.023566,-0.4715 0.983072,-0.0553 1.014925,-10.47326 0.02683,-8.77734 0.01517,-9.29483 -0.223242,-9.65988 -0.138549,-0.21216 -0.479729,-0.48915 -0.758093,-0.61547 -0.482925,-0.21915 -0.230003,-0.23135 5.529895,-0.26561 1.242351,-0.007 2.250722,-0.0111 3.075781,-0.01 z m -2.244307,0.65991 c -1.15571,-0.002 -1.063632,0.27784 -1.165304,4.84828 -0.05457,2.45334 -0.104216,6.73037 -0.110071,9.50433 -0.01188,5.62867 -0.04991,5.40566 0.954464,5.5454 1.018649,0.14171 4.33163,-0.0227 4.969206,-0.2465 1.373814,-0.48225 2.222122,-1.6474 2.484603,-3.41219 0.280415,-1.8854 -0.247225,-3.78966 -1.358574,-4.901 -0.978259,-0.97827 -3.232174,-1.82263 -4.864303,-1.82263 -0.883507,0 -0.618859,-0.22522 0.470773,-0.401 1.876841,-0.30276 3.369912,-1.24049 4.060734,-2.54972 0.331307,-0.62789 0.369761,-0.84589 0.366386,-2.07946 -0.0031,-1.13428 -0.05885,-1.50043 -0.316777,-2.06757 -0.78937,-1.73576 -2.16748,-2.41174 -4.915462,-2.41174 -0.220239,0 -0.410574,-0.006 -0.575675,-0.006 z m -19.66495,0.17311 c -0.222255,-0.005 -0.449172,-0.005 -0.681095,10e-4 -1.50285,0.0381 -1.534041,0.0455 -1.627807,0.38343 -0.05258,0.1895 -0.101484,4.44642 -0.109038,9.45989 -0.01563,10.3686 -0.105502,9.6067 1.157553,9.83506 0.916114,0.16562 3.36938,0.0522 4.448823,-0.20567 1.860037,-0.44426 3.004076,-1.43125 4.011125,-3.46129 1.586456,-3.19805 1.462724,-8.3236 -0.286804,-11.88351 -1.327317,-2.70083 -3.578922,-4.04858 -6.912757,-4.12895 z M 59.213441,210.14 c -0.0072,0.003 -0.0074,1.8e-4 -0.02067,0.009 l -0.426847,0.33435 c -0.303207,0.23756 -1.698259,1.40532 -3.100588,2.59519 -1.066983,0.90534 -1.816873,1.51777 -2.40347,1.93787 -0.182319,0.14427 -0.328665,0.25701 -0.394808,0.30179 -0.125701,0.0851 -0.262713,0.15111 -0.404109,0.20567 -0.03001,0.0152 -0.05889,0.0283 -0.08785,0.0419 -0.262212,0.1321 -0.468183,0.19306 -0.649057,0.19534 -0.05057,6.2e-4 -0.105608,-0.006 -0.163296,-0.016 -0.203398,-0.0154 -0.401089,-0.0752 -0.622186,-0.17002 -0.243919,-0.10457 -1.870294,-1.38768 -3.613732,-2.85099 -1.74344,-1.46332 -3.071249,-2.54078 -2.950723,-2.39417 0.120526,0.1466 1.229352,1.46936 2.463932,2.93936 2.378242,2.83174 2.799268,3.38168 2.942455,3.94084 0.06016,0.15815 0.08707,0.29233 0.08733,0.41548 3.89e-4,0.23691 -0.09786,0.52243 -0.347266,0.93741 -0.0089,0.0176 -0.01531,0.0371 -0.0248,0.0543 -0.01115,0.0202 -0.06999,0.0958 -0.0956,0.13281 -0.07572,0.11696 -0.162835,0.24492 -0.261483,0.38292 -0.02281,0.0322 -0.05022,0.0687 -0.07441,0.10232 -0.134969,0.18542 -0.291065,0.39242 -0.469222,0.62012 -0.804839,1.0405 -2.08026,2.56517 -4.148585,5.00486 -0.06827,0.0805 -0.107852,0.12817 -0.14056,0.17053 -0.01258,0.0219 -0.02557,0.045 -0.02739,0.0553 0.112834,-0.0589 0.867188,-0.68771 3.443716,-2.8236 1.064953,-0.88282 1.886982,-1.53735 2.481503,-1.97766 0.293122,-0.2244 0.528439,-0.39883 0.604616,-0.43822 0.02046,-0.0106 0.04377,-0.0186 0.06511,-0.0284 0.164558,-0.10327 0.290557,-0.1705 0.367419,-0.1912 0.375208,-0.10103 0.670192,-0.11822 1.089856,0.0625 0.07304,0.0175 0.143658,0.0387 0.210322,0.0641 0.05484,0.0208 0.243229,0.15442 0.489376,0.33796 0.591063,0.40051 1.408118,1.05972 2.67529,2.11098 1.60643,1.33287 3.042451,2.52275 3.191536,2.64429 0.302575,0.24667 -0.003,-0.1331 -2.814299,-3.50005 -1.076052,-1.28862 -2.054796,-2.52902 -2.17506,-2.75642 -0.0634,-0.11988 -0.1085,-0.24935 -0.144177,-0.38189 -0.0028,-0.008 -0.009,-0.0196 -0.01085,-0.0263 -0.007,-0.0253 -0.01119,-0.0507 -0.01705,-0.076 -0.0026,-0.0121 -0.0054,-0.024 -0.0078,-0.0362 -0.03357,-0.15963 -0.04594,-0.32029 -0.0341,-0.48473 0.01541,-0.38432 0.129873,-0.76915 0.34468,-1.08985 0.234617,-0.35029 1.417572,-1.79716 3.229777,-3.98012 0.0051,-0.006 0.01042,-0.0124 0.0155,-0.0186 0.488601,-0.58851 0.779235,-0.94599 1.40095,-1.69034 l 0.384987,-0.46095 c 0.0418,-0.0553 0.07586,-0.10137 0.102839,-0.13901 0.01599,-0.0254 0.03411,-0.0533 0.03876,-0.0662 z"
       id="rect816"
       inkscape:connector-curvature="0" />
  </g>
</svg>
