<?xml version="1.0" encoding="UTF-8" standalone="no"?>
<!-- Created with Inkscape (http://www.inkscape.org/) -->

<svg
   width="600"
   height="600"
   viewBox="0 0 158.75 158.75001"
   version="1.1"
   id="svg839"
   inkscape:version="1.2.1 (9c6d41e410, 2022-07-14, custom)"
   sodipodi:docname="acc_youtrip.svg"
   xml:space="preserve"
   xmlns:inkscape="http://www.inkscape.org/namespaces/inkscape"
   xmlns:sodipodi="http://sodipodi.sourceforge.net/DTD/sodipodi-0.dtd"
   xmlns="http://www.w3.org/2000/svg"
   xmlns:svg="http://www.w3.org/2000/svg"
   xmlns:rdf="http://www.w3.org/1999/02/22-rdf-syntax-ns#"
   xmlns:cc="http://creativecommons.org/ns#"
   xmlns:dc="http://purl.org/dc/elements/1.1/"><defs
     id="defs833" /><sodipodi:namedview
     id="base"
     pagecolor="#ffffff"
     bordercolor="#666666"
     borderopacity="1.0"
     inkscape:pageopacity="0.0"
     inkscape:pageshadow="2"
     inkscape:zoom="1.39"
     inkscape:cx="299.64029"
     inkscape:cy="300"
     inkscape:document-units="mm"
     inkscape:current-layer="layer1"
     showgrid="false"
     inkscape:pagecheckerboard="true"
     units="px"
     inkscape:window-width="1863"
     inkscape:window-height="1044"
     inkscape:window-x="52"
     inkscape:window-y="31"
     inkscape:window-maximized="1"
     inkscape:showpageshadow="0"
     inkscape:deskcolor="#d1d1d1" /><metadata
     id="metadata836"><rdf:RDF><cc:Work
         rdf:about=""><dc:format>image/svg+xml</dc:format><dc:type
           rdf:resource="http://purl.org/dc/dcmitype/StillImage" /></cc:Work></rdf:RDF></metadata><g
     inkscape:label="Layer 1"
     inkscape:groupmode="layer"
     id="layer1"
     transform="translate(0,-201.74998)"><path
       id="rect1408"
       style="fill:#000000;fill-opacity:1;stroke-width:0.793407"
       d="m 42.333333,248.71352 c -4.39737,0 -7.9375,3.54013 -7.9375,7.9375 v 48.94792 c 0,4.39737 3.54013,7.9375 7.9375,7.9375 h 74.083337 c 4.39737,0 7.9375,-3.54013 7.9375,-7.9375 v -48.94792 c 0,-4.39737 -3.54013,-7.9375 -7.9375,-7.9375 z m 50.585543,20.12177 3.351734,0.0517 c 3.123961,0.0481 3.405735,0.0727 4.14807,0.3607 1.14509,0.44417 2.055,1.4053 2.47065,2.60966 0.29401,0.85192 0.31663,1.11133 0.31367,3.63854 -0.003,2.4922 -0.0279,2.7823 -0.2961,3.45095 -0.16103,0.40152 -0.47973,0.95629 -0.70797,1.233 -0.43676,0.52951 -1.61847,1.28565 -2.0128,1.28777 -0.436855,0.003 -0.232678,0.20409 0.45269,0.44752 0.90335,0.32084 1.84863,1.28798 2.25412,2.30632 0.29085,0.73042 0.30674,0.95396 0.35192,4.97903 l 0.047,4.21421 h -0.79582 -0.79633 l -0.0543,-4.08141 c -0.0604,-4.53876 -0.0918,-4.73009 -0.92501,-5.67665 -0.806678,-0.91644 -1.579481,-1.14674 -4.118092,-1.22732 l -2.090311,-0.0667 v 5.52628 5.52576 h -0.796334 -0.796851 v -12.28969 z m 16.326654,0 3.28507,0.0517 c 3.06868,0.0485 3.33718,0.0727 4.07727,0.36432 1.56822,0.61795 2.49795,1.92995 2.86649,4.04626 0.22375,1.2849 0.096,5.77514 -0.18965,6.66471 -0.4778,1.48819 -1.57056,2.58022 -3.05046,3.04736 -0.47685,0.15051 -1.39691,0.23623 -3.04013,0.28319 l -2.35592,0.0672 v 5.0276 5.02708 h -0.79634 -0.79633 v -12.28969 z m -29.865362,0.0238 h 5.773807 5.774325 v 0.72967 0.73019 h -2.455664 -2.455664 v 11.54813 11.54762 h -0.796334 -0.796334 v -11.54762 -11.54813 h -2.522326 -2.52181 v -0.73019 z m 26.679512,0 h 0.79633 0.79685 v 12.27781 12.2778 h -0.79685 -0.79633 v -12.2778 z m -48.547945,0.0222 c 2.208721,-0.0356 4.150815,0.93565 4.97489,2.55747 0.740106,1.45657 0.740096,1.4562 0.798401,8.96793 0.06883,8.86892 -0.03249,9.66627 -1.423686,11.18846 -1.280406,1.40097 -3.523904,1.99633 -5.819283,1.54461 -2.06187,-0.40576 -3.477258,-1.87122 -3.947046,-4.08761 -0.271356,-1.28022 -0.271356,-14.68314 0,-15.96336 0.507076,-2.39232 1.994721,-3.77072 4.456059,-4.12947 0.323916,-0.0472 0.645133,-0.0729 0.960665,-0.078 z m -18.232996,0.37569 h 1.860352 1.860352 l 0.03876,5.40897 c 0.04208,5.86892 0.04491,5.89115 0.7922,6.44405 0.500726,0.37048 1.516121,0.43536 2.100647,0.13385 0.842649,-0.43466 0.928393,-0.80242 0.928625,-3.96824 1.14e-4,-1.53959 0.03978,-3.97365 0.08785,-5.40897 l 0.08733,-2.60966 h 1.704806 1.704288 v 9.602 c 0,9.20262 -0.01095,9.64573 -0.2682,10.65154 -0.639418,2.5001 -2.263586,3.73884 -5.041036,3.84473 -0.693539,0.0265 -1.529766,-0.009 -1.858285,-0.0775 -0.978192,-0.2055 -2.195265,-0.88067 -2.776058,-1.54048 -0.824398,-0.93657 -1.338936,-2.54325 -1.338936,-4.18114 v -0.77825 h 1.792138 1.791622 v 0.86714 c 0,1.07509 0.251343,1.70228 0.821656,2.05 0.573848,0.34986 1.617686,0.35837 2.175578,0.0181 0.718407,-0.43808 0.900961,-1.03882 0.961181,-3.16725 l 0.05323,-1.89084 -0.445968,0.0992 c -0.245375,0.0546 -1.013852,0.092 -1.707389,0.0832 -2.559648,-0.0324 -4.192894,-1.15922 -4.960421,-3.42201 -0.257508,-0.75918 -0.277283,-1.1627 -0.31936,-6.48384 z m 25.76587,0 h 1.855183 1.854668 l 0.03669,9.65678 c 0.03421,9.04336 0.05191,9.68701 0.279053,10.14356 0.327186,0.65763 0.968825,0.95448 1.897558,0.87747 0.444785,-0.0368 0.816136,-0.15404 0.995288,-0.31368 0.640167,-0.57046 0.647506,-0.66028 0.647506,-8.01553 0,-3.79855 0.02071,-6.90655 0.04599,-6.90655 0.02528,0 0.249165,0.10479 0.497644,0.23254 0.282438,0.14522 0.750616,0.23203 1.248503,0.23203 0.497886,0 0.965548,-0.0868 1.247986,-0.23203 0.248478,-0.12775 0.472359,-0.23254 0.497644,-0.23254 0.02528,0 0.04503,3.12102 0.04392,6.93549 -0.002,7.47152 -0.03419,7.88961 -0.713652,9.23044 -0.445336,0.87882 -1.458494,1.78441 -2.410189,2.15439 -1.022478,0.39749 -3.210274,0.49376 -4.303613,0.18966 h -5.17e-4 c -1.936251,-0.53909 -3.180324,-1.96967 -3.576526,-4.11293 -0.09379,-0.50733 -0.143143,-4.05855 -0.143143,-10.30635 z m 9.336381,0.076 c 0.537788,0.008 1.082661,0.22202 1.506368,0.67128 1.542591,1.63563 -0.347338,4.21612 -2.425175,3.31143 -0.859609,-0.37427 -1.37507,-1.50704 -1.118795,-2.45877 0.264514,-0.98233 1.141287,-1.53794 2.037602,-1.52394 z m 20.131071,0.96015 v 5.33766 5.33766 l 2.22312,-0.063 c 1.635787,-0.0461 2.380883,-0.12168 2.819983,-0.28629 0.756496,-0.2836 1.416776,-0.90748 1.769396,-1.67225 0.23564,-0.51107 0.28334,-0.92443 0.3297,-2.86081 0.0804,-3.35679 -0.33738,-4.62723 -1.762683,-5.36091 -0.621855,-0.32011 -0.795655,-0.34259 -3.019971,-0.38602 z m 16.326139,0.0258 v 5.79086 5.79086 l 2.22312,-0.0599 c 1.93249,-0.0521 2.31029,-0.0987 2.88716,-0.35605 0.86545,-0.38597 1.30625,-0.82177 1.67586,-1.65778 0.26833,-0.60688 0.30678,-0.94479 0.35554,-3.09852 0.0778,-3.43775 -0.1943,-4.70242 -1.21388,-5.63583 -0.67144,-0.61469 -1.45795,-0.7736 -3.82819,-0.7736 z m -53.37194,2.00401 c -0.71219,0.007 -1.185005,0.26631 -1.522905,0.82476 -0.244952,0.40483 -0.256315,0.74813 -0.256315,7.85637 0,6.92324 0.01672,7.46647 0.241846,7.91889 0.43611,0.87641 1.802976,1.19785 2.719214,0.63924 0.829228,-0.50557 0.821655,-0.42715 0.821655,-8.49199 0,-7.78695 -0.004,-7.84464 -0.646989,-8.41757 -0.183649,-0.16365 -0.554187,-0.27682 -1.036112,-0.31678 -0.1118,-0.009 -0.218653,-0.0138 -0.320394,-0.0129 z" /></g></svg>
