<?xml version="1.0" encoding="UTF-8" standalone="no"?>
<!-- Created with Inkscape (http://www.inkscape.org/) -->

<svg
   xmlns:dc="http://purl.org/dc/elements/1.1/"
   xmlns:cc="http://creativecommons.org/ns#"
   xmlns:rdf="http://www.w3.org/1999/02/22-rdf-syntax-ns#"
   xmlns:svg="http://www.w3.org/2000/svg"
   xmlns="http://www.w3.org/2000/svg"
   xmlns:sodipodi="http://sodipodi.sourceforge.net/DTD/sodipodi-0.dtd"
   xmlns:inkscape="http://www.inkscape.org/namespaces/inkscape"
   width="360"
   height="360"
   viewBox="0 0 95.249998 95.250003"
   version="1.1"
   id="svg839"
   inkscape:version="0.92.4 (5da689c313, 2019-01-14)"
   sodipodi:docname="acc_nets.svg">
  <defs
     id="defs833" />
  <sodipodi:namedview
     id="base"
     pagecolor="#ffffff"
     bordercolor="#666666"
     borderopacity="1.0"
     inkscape:pageopacity="0.0"
     inkscape:pageshadow="2"
     inkscape:zoom="0.35"
     inkscape:cx="-155.71429"
     inkscape:cy="560"
     inkscape:document-units="mm"
     inkscape:current-layer="layer1"
     showgrid="false"
     inkscape:pagecheckerboard="true"
     units="px"
     inkscape:window-width="1825"
     inkscape:window-height="1046"
     inkscape:window-x="84"
     inkscape:window-y="-11"
     inkscape:window-maximized="1" />
  <metadata
     id="metadata836">
    <rdf:RDF>
      <cc:Work
         rdf:about="">
        <dc:format>image/svg+xml</dc:format>
        <dc:type
           rdf:resource="http://purl.org/dc/dcmitype/StillImage" />
        <dc:title></dc:title>
      </cc:Work>
    </rdf:RDF>
  </metadata>
  <g
     inkscape:label="Layer 1"
     inkscape:groupmode="layer"
     id="layer1"
     transform="translate(0,-201.74998)">
    <path
       style="fill:#000000;stroke-width:0.26226929"
       d="m 9.4540645,216.95426 -1.73701,0.85494 c -2.02108,0.99497 -3.40804,2.41698 -4.38021,4.49033 l -0.69101,1.47372 v 25.57126 25.57124 l 0.68231,1.45427 c 1.23831,2.64011 3.29986,4.40979 5.98711,5.13935 0.9323295,0.25314 9.5629795,0.31454 38.8342795,0.27558 l 37.635651,-0.0502 1.474219,-0.69103 c 2.073341,-0.97217 3.494852,-2.35913 4.48982,-4.3802 l 0.854941,-1.7365 v -25.57684 -25.57689 l -0.69101,-1.47372 c -0.97218,-2.07335 -2.359141,-3.49536 -4.380209,-4.49033 l -1.7365,-0.85494 H 47.625003 Z m 7.3061495,23.37269 0.19619,0.0999 c 0.26463,0.13526 0.351,0.23247 1.16894,1.31134 0.95344,1.2576 2.20361,2.90534 3.38542,4.46268 2.05212,2.70421 3.58979,4.73207 4.22654,5.57374 0.36705,0.48517 0.55271,0.69987 0.57524,0.66437 0.0183,-0.0289 0.0338,-2.5839 0.0343,-5.67772 l 0.002,-5.62495 0.0969,-0.20797 c 0.11466,-0.24622 0.32247,-0.44095 0.57219,-0.5353 0.16721,-0.0631 2.086241,-0.0675 25.546141,-0.0569 l 25.364811,0.0118 0.497908,0.0917 c 1.34366,0.24715 2.254549,0.64598 3.048871,1.33593 0.99527,0.8645 1.565151,2.25763 1.592569,3.89153 0.008,0.46637 0.0021,0.5052 -0.11063,0.73404 -0.13204,0.26891 -0.351859,0.45767 -0.61726,0.52915 -0.1012,0.0273 -0.567801,0.0388 -1.228889,0.0307 -1.17552,-0.0143 -1.222351,-0.0235 -1.501891,-0.29505 -0.198631,-0.19299 -0.279501,-0.41086 -0.328359,-0.88669 -0.0758,-0.7392 -0.260871,-1.07576 -0.70023,-1.27293 -0.69809,-0.31329 -0.800931,-0.31862 -6.137719,-0.31862 -5.09973,0 -5.067861,-0.001 -5.552221,0.22795 -0.20025,0.0948 -0.243641,0.13784 -0.345252,0.34474 -0.109839,0.2237 -0.116268,0.2673 -0.116268,0.79705 0,0.53589 0.005,0.56884 0.11371,0.75352 0.265908,0.45234 0.932471,0.72806 2.190369,0.90615 0.17672,0.025 1.756351,0.0612 3.653321,0.0835 4.545899,0.0535 5.3627,0.087 6.163839,0.25253 1.506101,0.31119 2.439699,0.75606 3.21895,1.53315 1.07396,1.07097 1.54508,2.52362 1.41378,4.36125 -0.141769,1.9844 -0.71986,3.13731 -2.09251,4.1748 -0.47698,0.36051 -0.868169,0.56743 -1.309291,0.69256 -0.316769,0.0898 -0.320968,0.0899 -5.859057,0.10346 -5.627791,0.0138 -6.033641,0.005 -6.766743,-0.14086 -1.55774,-0.31086 -2.791748,-1.09938 -3.599558,-2.29998 -0.508561,-0.75585 -0.811461,-1.83215 -0.81806,-2.90596 -0.003,-0.553 -0.0021,-0.56357 0.125518,-0.78886 0.14433,-0.25576 0.377402,-0.44337 0.621332,-0.49995 0.268319,-0.0623 2.086059,-0.0458 2.27181,0.0205 0.46078,0.16434 0.676349,0.47489 0.737129,1.06239 0.108511,1.04881 0.32689,1.31856 1.2596,1.55518 0.709451,0.17997 1.203049,0.19513 5.774531,0.17672 3.705159,-0.015 4.314859,-0.0261 4.566679,-0.083 1.03877,-0.23462 1.307761,-0.57316 1.307761,-1.64534 0,-0.58167 -0.0735,-0.79879 -0.367281,-1.08645 -0.263549,-0.25813 -0.57454,-0.40399 -1.168961,-0.54863 -0.340587,-0.0829 -0.500279,-0.0868 -4.607629,-0.11473 -2.750769,-0.0187 -4.41693,-0.046 -4.712139,-0.0773 -1.186881,-0.12593 -2.300531,-0.37304 -3.007392,-0.66693 -1.580718,-0.65719 -2.541669,-1.85181 -2.850128,-3.54268 -0.12041,-0.66011 -0.115001,-2.05246 0.01021,-2.55151 l 0.0236,-0.0933 h -3.781919 -3.779851 c -7.94e-4,0.006 -0.0021,0.007 -0.003,0.0138 v 6.62179 c 0,7.22688 0.01241,6.84082 -0.233079,7.19499 -0.0627,0.0906 -0.199401,0.21474 -0.30376,0.27609 l -0.189511,0.11167 -1.08648,0.0128 c -0.708101,0.008 -1.146159,-0.003 -1.25807,-0.0333 -0.206909,-0.0557 -0.47222,-0.28556 -0.595751,-0.51634 l -0.0907,-0.16904 -0.02051,-6.74575 -0.02101,-6.74626 -3.96426,-0.0205 c -2.18051,-0.0114 -6.949029,-0.0158 -10.5968,-0.01 l -6.632549,0.0108 0.01079,1.62894 0.0113,1.62892 6.372331,0.0205 c 4.331099,5.2e-4 5.76966,-0.006 6.282161,0.0538 0.0987,0.005 0.167319,0.0113 0.178789,0.0179 0.0113,0.007 0.02119,0.017 0.0323,0.0246 0.0949,0.0356 0.105471,0.0847 0.161359,0.15111 0.0658,0.0782 0.110792,0.16387 0.140362,0.31146 0.004,0.0143 0.01,0.0275 0.01281,0.042 0.01699,0.0815 0.027,0.28291 0.0323,0.5609 0.005,0.22855 0.006,0.50382 0.0021,0.8821 -0.006,0.58102 -0.01069,0.88687 -0.02461,1.07007 -0.01389,0.18319 -0.0373,0.24384 -0.082,0.3345 -0.01609,0.0325 -0.0334,0.0628 -0.0522,0.0907 -0.01881,0.028 -0.0394,0.0535 -0.0615,0.0773 -0.02201,0.0238 -0.0459,0.0458 -0.0718,0.0661 0,0 -5.3e-4,0 -5.3e-4,0 -0.0259,0.0202 -0.0538,0.0391 -0.084,0.0563 l -0.17621,0.10142 -6.3416,0.0108 -6.34106,0.0113 v 1.61818 1.61819 h 6.494741 c 3.110018,0 5.04843,0.007 5.997358,0.022 0.386511,0.005 0.650621,0.0124 0.69256,0.021 7.94e-4,1.3e-4 0.0011,2.5e-4 0.0021,5.3e-4 5.29e-4,1.1e-4 0.007,5.3e-4 0.007,5.3e-4 0.057,0.0122 0.110778,0.032 0.16187,0.0569 0.0021,0.001 0.005,0.002 0.007,0.003 0.0354,0.0177 0.0663,0.0421 0.0978,0.065 0.01759,0.0127 0.0381,0.0222 0.0543,0.0364 0,0 5.3e-4,5.3e-4 5.3e-4,5.3e-4 0.0646,0.0568 0.11127,0.12754 0.147529,0.20336 0.01349,0.028 0.0307,0.0543 0.0395,0.084 0.007,0.0245 0.01299,0.0767 0.01791,0.15571 0.005,0.079 0.009,0.18468 0.0113,0.31555 0.005,0.26173 0.006,0.62447 0.0021,1.07776 -0.0123,1.33669 -0.01659,1.40312 -0.0983,1.51265 -0.0471,0.063 -0.137221,0.15322 -0.200281,0.2003 l -0.11475,0.0855 -7.06487,0.002 c -0.582779,1.2e-4 -1.05283,-10e-4 -1.62279,-0.002 h -8.34854 l -0.16648,-0.0892 c -0.23848,-0.12803 -0.58347,-0.50991 -1.24577,-1.37845 -0.31945,-0.41892 -0.78614,-1.02882 -1.0373,-1.3554 -0.25116,-0.32658 -1.08541,-1.41302 -1.85382,-2.41421 -2.13491,-2.78167 -4.42621,-5.76635 -5.37241,-6.9988 -0.46892,-0.61077 -0.87017,-1.11055 -0.89182,-1.11055 -0.0247,0 -0.0394,2.33475 -0.0394,6.24221 0,4.49309 0.004,5.8335 -0.0619,6.3293 v 0.0277 l -0.007,0.0123 c -0.0342,0.21541 -0.084,0.26566 -0.16187,0.36778 -0.0574,0.0752 -0.1925,0.18874 -0.30018,0.25204 l -0.19567,0.11524 -1.12079,0.0113 c -1.10889,0.0112 -1.12342,0.0104 -1.32877,-0.0881 -0.25609,-0.12287 -0.44706,-0.32116 -0.54656,-0.56654 -0.0725,-0.17863 -0.0758,-0.54399 -0.0758,-8.34446 0,-6.82077 0.01,-8.18999 0.0574,-8.35521 0.0709,-0.24413 0.33755,-0.55562 0.56347,-0.65823 0.15496,-0.0704 0.31628,-0.076 2.13043,-0.0768 z"
       id="path1913"
       inkscape:connector-curvature="0" />
  </g>
</svg>
