<?xml version="1.0" encoding="UTF-8" standalone="no"?>
<!-- Created with Inkscape (http://www.inkscape.org/) -->

<svg
   xmlns:dc="http://purl.org/dc/elements/1.1/"
   xmlns:cc="http://creativecommons.org/ns#"
   xmlns:rdf="http://www.w3.org/1999/02/22-rdf-syntax-ns#"
   xmlns:svg="http://www.w3.org/2000/svg"
   xmlns="http://www.w3.org/2000/svg"
   xmlns:sodipodi="http://sodipodi.sourceforge.net/DTD/sodipodi-0.dtd"
   xmlns:inkscape="http://www.inkscape.org/namespaces/inkscape"
   width="600"
   height="600"
   viewBox="0 0 158.75 158.75001"
   version="1.1"
   id="svg839"
   inkscape:version="0.92.4 (5da689c313, 2019-01-14)"
   sodipodi:docname="acc_hsbc.svg">
  <defs
     id="defs833" />
  <sodipodi:namedview
     id="base"
     pagecolor="#ffffff"
     bordercolor="#666666"
     borderopacity="1.0"
     inkscape:pageopacity="0.0"
     inkscape:pageshadow="2"
     inkscape:zoom="0.35"
     inkscape:cx="821.85603"
     inkscape:cy="819.92175"
     inkscape:document-units="mm"
     inkscape:current-layer="layer1"
     showgrid="false"
     inkscape:pagecheckerboard="true"
     units="px"
     inkscape:window-width="1818"
     inkscape:window-height="1046"
     inkscape:window-x="91"
     inkscape:window-y="-11"
     inkscape:window-maximized="1" />
  <metadata
     id="metadata836">
    <rdf:RDF>
      <cc:Work
         rdf:about="">
        <dc:format>image/svg+xml</dc:format>
        <dc:type
           rdf:resource="http://purl.org/dc/dcmitype/StillImage" />
        <dc:title />
      </cc:Work>
    </rdf:RDF>
  </metadata>
  <g
     inkscape:label="Layer 1"
     inkscape:groupmode="layer"
     id="layer1"
     transform="translate(0,-138.24998)">
    <path
       style="opacity:1;fill:#000000;fill-opacity:1;stroke:none;stroke-width:9.10383892;stroke-miterlimit:4;stroke-dasharray:none;stroke-opacity:1"
       d="m 42.333333,185.21352 c -4.397375,0 -7.9375,3.54013 -7.9375,7.9375 v 48.94792 c 0,4.39737 3.540125,7.9375 7.9375,7.9375 h 74.083337 c 4.39737,0 7.9375,-3.54013 7.9375,-7.9375 v -48.94792 c 0,-4.39737 -3.54013,-7.9375 -7.9375,-7.9375 z m 29.345496,15.22181 c 1.138838,-0.004 1.8094,0.17792 3.108338,0.84594 0.693714,0.35682 0.74368,0.37541 1.070218,0.39481 0.379947,0.0225 0.643332,-0.0497 0.866098,-0.23719 0.141028,-0.11867 0.295468,-0.44557 0.338997,-0.71779 0.02757,-0.17243 0.0375,-0.18293 0.177766,-0.18293 h 0.148828 v 3.10885 3.10886 h -0.154511 c -0.137256,0 -0.153996,-0.0126 -0.153996,-0.11576 0,-0.19242 -0.217741,-1.1114 -0.376721,-1.59112 -0.198978,-0.60041 -0.536446,-1.3069 -0.840775,-1.75958 -0.53975,-0.80288 -1.376839,-1.37893 -2.340943,-1.61024 -0.486119,-0.1167 -1.281031,-0.1243 -1.799373,-0.0176 -0.49511,0.10202 -1.162569,0.33568 -1.463993,0.51263 -1.115642,0.65499 -1.568698,2.13412 -1.00149,3.2706 0.181237,0.36316 0.569193,0.84246 0.891418,1.10175 0.4141,0.33322 1.045816,0.76735 3.073197,2.11305 0.970126,0.64393 2.091145,1.41576 2.491322,1.71462 0.839581,0.62699 1.68376,1.43935 2.004528,1.9296 0.549389,0.83968 0.858782,2.09824 0.734322,2.98793 -0.163137,1.16615 -0.83719,2.49498 -1.604553,3.16311 -0.609494,0.53066 -1.299604,0.94147 -2.005562,1.19373 -0.779915,0.27885 -1.921272,0.39212 -2.744537,0.27285 -0.862401,-0.12493 -1.652889,-0.38146 -2.794661,-0.9064 -0.415285,-0.19092 -0.850231,-0.37078 -0.966864,-0.39998 -0.44205,-0.11052 -0.920515,0.0161 -1.205095,0.31884 -0.205648,0.21871 -0.270627,0.36648 -0.387572,0.88574 -0.0223,0.0991 -0.05126,0.12092 -0.158647,0.12092 h -0.13126 v -3.30677 -3.3073 h 0.13126 c 0.100613,0 0.13667,0.0233 0.152961,0.0992 0.0117,0.0546 0.05402,0.26773 0.09405,0.47388 0.210667,1.08491 0.744114,2.1835 1.502235,3.09386 0.709655,0.85216 1.452915,1.31196 2.600873,1.60869 0.434975,0.11246 0.550431,0.12414 1.251088,0.12506 0.89349,0.001 1.082968,-0.0342 1.653645,-0.30851 1.18395,-0.5692 1.962153,-1.77955 1.962153,-3.05098 0,-1.03039 -0.36803,-1.84286 -1.123961,-2.48201 -0.141851,-0.11996 -1.13656,-0.7951 -2.210718,-1.50069 -3.836527,-2.52011 -4.854426,-3.34833 -5.477703,-4.45554 -0.527227,-0.9366 -0.58602,-2.12737 -0.165364,-3.36 0.221099,-0.64788 0.497662,-1.07742 1.042315,-1.62006 0.541227,-0.53924 1.051415,-0.87524 1.735294,-1.14257 0.691356,-0.27024 1.238917,-0.36855 2.077392,-0.37155 z m -26.127604,0.27957 h 3.902604 3.902604 v 0.154 0.15451 h -0.542086 c -0.822103,0 -1.201185,0.12599 -1.613337,0.53588 -0.106106,0.10553 -0.254928,0.32089 -0.330729,0.47853 l -0.137459,0.28629 -0.0124,3.8473 -0.0124,3.84783 h 4.632791 4.632277 l -0.01189,-3.86953 -0.0124,-3.86953 -0.11524,-0.24236 c -0.234137,-0.49337 -0.690366,-0.85489 -1.220597,-0.96583 -0.128524,-0.0269 -0.461253,-0.0486 -0.738973,-0.0486 h -0.504878 v -0.15451 -0.154 h 3.880382 3.8809 v 0.154 0.15451 H 64.62913 c -0.576625,0 -0.863282,0.0447 -1.1529,0.18087 -0.30248,0.14219 -0.659588,0.48974 -0.802535,0.78083 l -0.122991,0.25063 v 7.95972 7.9592 l 0.11834,0.2527 c 0.15235,0.32505 0.468008,0.63041 0.829405,0.80202 0.274937,0.13059 0.314082,0.1365 0.959115,0.15089 l 0.672827,0.015 v 0.1726 0.1726 h -3.8809 -3.880382 v -0.1726 -0.1726 l 0.672828,-0.015 c 0.621374,-0.0138 0.691644,-0.0241 0.926041,-0.13384 0.354881,-0.16629 0.698918,-0.50509 0.85421,-0.84129 l 0.126609,-0.2744 0.0124,-3.56051 0.0124,-3.56102 h -4.632793 -4.632791 l 0.0124,3.5388 0.0124,3.5388 0.103352,0.25683 c 0.134596,0.33365 0.510034,0.71943 0.866613,0.89091 0.250283,0.12039 0.30212,0.12819 0.959115,0.14469 l 0.694531,0.0176 v 0.17208 0.17157 H 49.45382 45.551216 v -0.17673 -0.17622 h 0.590664 c 0.468513,0 0.648967,-0.0183 0.871262,-0.0884 0.339431,-0.10707 0.645843,-0.32513 0.851628,-0.60616 0.310967,-0.42468 0.288353,0.24163 0.288356,-8.4615 v -7.86205 l -0.09509,-0.25528 c -0.07086,-0.18999 -0.169641,-0.32933 -0.386022,-0.54571 -0.414245,-0.41424 -0.623541,-0.4873 -1.470194,-0.51469 l -0.650608,-0.0212 v -0.14883 z m 60.119845,0.0574 c 0.87901,8.8e-4 1.74434,0.10729 2.47013,0.31884 0.5682,0.16571 0.95167,0.32631 1.73581,0.72813 0.58532,0.29998 0.74043,0.36098 0.971,0.38188 0.61304,0.0556 1.11531,-0.35035 1.18753,-0.96014 0.0251,-0.21156 0.0298,-0.21756 0.17208,-0.21756 0.13112,0 0.1481,0.0146 0.16743,0.14314 0.0118,0.0789 0.0725,1.45286 0.13488,3.05356 0.0624,1.60071 0.12124,2.98489 0.13074,3.07578 l 0.0176,0.16537 h -0.1881 -0.18759 l -0.0951,-0.50385 c -0.16606,-0.88202 -0.46774,-1.65057 -0.90124,-2.29598 -0.25574,-0.38077 -0.95337,-1.08037 -1.45675,-1.46089 -0.51356,-0.38819 -1.41224,-0.84346 -1.9911,-1.00873 -1.25149,-0.35735 -2.58114,-0.31103 -3.81475,0.13333 -0.48624,0.17515 -1.15494,0.52926 -1.53789,0.81442 -0.45238,0.33685 -1.11607,1.03984 -1.43454,1.5198 -0.70826,1.06743 -1.249075,2.66411 -1.457276,4.30155 -0.279357,2.19711 0.02344,4.24805 0.879536,5.95312 0.79601,1.58543 2.16288,2.74595 3.92172,3.33003 1.78244,0.59189 3.74638,0.45023 5.47099,-0.39481 1.05918,-0.51898 2.09592,-1.37506 2.82205,-2.33009 0.15886,-0.20893 0.16077,-0.20984 0.27853,-0.14004 0.30608,0.18149 0.30494,0.15365 0.0253,0.53175 -1.33833,1.80968 -3.07695,3.15639 -4.82813,3.73983 -0.82621,0.27528 -1.23608,0.34038 -2.2443,0.35708 -0.49719,0.008 -1.04775,-0.002 -1.22319,-0.0248 -1.47087,-0.18333 -2.91639,-0.71365 -4.13463,-1.51722 -0.759439,-0.50095 -1.177386,-0.85775 -1.909956,-1.6304 -1.019278,-1.07504 -1.846326,-3.03493 -2.100649,-4.97747 -0.176527,-1.34835 -0.0076,-3.4011 0.397394,-4.82813 0.266327,-0.93829 0.511326,-1.47202 1.028358,-2.24224 1.20921,-1.80135 3.074873,-3.14457 5.142323,-3.70158 0.77982,-0.2101 1.67277,-0.31456 2.55178,-0.31368 z m -26.165329,0.0253 4.17804,0.0181 c 4.457634,0.0193 4.477388,0.0203 5.640999,0.25166 1.520118,0.30226 2.880852,1.06369 3.659725,2.04794 0.906631,1.14571 1.159131,2.68526 0.674377,4.11603 -0.414096,1.22221 -1.294484,2.16085 -2.471681,2.6355 l -0.346234,0.13952 0.318328,0.12351 c 0.774769,0.30032 1.610863,0.79995 2.136301,1.27692 0.59518,0.54029 1.106181,1.38793 1.291913,2.14251 0.222721,0.90488 0.14592,2.02785 -0.201538,2.95331 -0.673529,1.79394 -2.785965,3.03124 -5.421376,3.17551 -0.388049,0.0213 -2.675253,0.0398 -5.082376,0.0408 l -4.376478,0.002 v -0.1726 -5.2e-4 -0.1726 l 0.738457,-0.0145 c 0.69346,-0.0138 0.754208,-0.0221 0.991672,-0.13332 0.307046,-0.14391 0.637979,-0.46601 0.784963,-0.76378 l 0.108521,-0.22014 v -7.98143 -7.98142 l -0.123507,-0.25167 c -0.140399,-0.2859 -0.453025,-0.58979 -0.767911,-0.74621 -0.193003,-0.0959 -0.275021,-0.10615 -0.971518,-0.11885 l -0.760677,-0.0134 v -0.17673 z m 7.47913,0.84336 c -0.717515,-0.007 -1.597483,0.0786 -2.132168,0.2248 l -0.187587,0.0512 v 3.76204 c 0,2.82319 0.01299,3.77018 0.05168,3.79408 0.228732,0.1413 2.280219,0.19563 3.137792,0.0832 0.584075,-0.0765 1.193059,-0.24204 1.496549,-0.40721 0.291462,-0.15863 0.837565,-0.62039 1.124479,-0.95033 1.198825,-1.37864 1.302875,-3.38149 0.252698,-4.86017 -0.631084,-0.8886 -1.727546,-1.47519 -3.099035,-1.65778 -0.18425,-0.0245 -0.405233,-0.0378 -0.644406,-0.0398 z m -0.415478,8.74831 c -0.741653,-0.003 -1.543862,0.0528 -1.827278,0.14107 -0.07315,0.0227 -0.07679,0.24506 -0.06615,4.0628 l 0.01137,4.03852 0.165365,0.0568 c 0.255725,0.0885 1.02599,0.236 1.466058,0.2806 0.552038,0.0559 1.532136,0.0163 2.041737,-0.0827 1.02543,-0.19919 1.711309,-0.543 2.360062,-1.18287 0.508,-0.50103 0.837851,-1.06776 1.071769,-1.84123 0.109564,-0.36228 0.120282,-0.46032 0.120925,-1.12448 5.08e-4,-0.61498 -0.0146,-0.78239 -0.09664,-1.08056 -0.25154,-0.91421 -0.806498,-1.74057 -1.567347,-2.33319 -0.756502,-0.58923 -1.455835,-0.80305 -2.980179,-0.91157 -0.212334,-0.0153 -0.452483,-0.0223 -0.699699,-0.0233 z m -15.737025,12.58217 h 8.542116 8.541596 l -4.26072,4.26124 c -2.343497,2.34357 -4.269846,4.26124 -4.280876,4.26124 -0.01103,0 -1.937383,-1.91767 -4.280877,-4.26124 z m -0.05943,0.0202 v 8.55193 c 3e-6,4.70355 -0.0048,8.54925 -0.01033,8.54625 -0.0055,-0.003 -1.926895,-1.9295 -4.270023,-4.28139 l -4.260205,-4.27623 4.270023,-4.27054 z m 17.203087,0 4.271055,4.27105 4.271057,4.27106 -4.271057,4.27106 -4.271055,4.27054 v -8.5416 z m -8.601543,8.56175 4.260722,4.26124 c 2.343587,2.34351 4.261239,4.27419 4.261239,4.29069 -2e-6,0.0165 -3.848377,0.03 -8.551933,0.03 h -8.551934 l 4.290695,-4.29069 z"
       id="rect816"
       inkscape:connector-curvature="0" />
  </g>
</svg>
