<?xml version="1.0" encoding="UTF-8" standalone="no"?>
<!-- Created with Inkscape (http://www.inkscape.org/) -->

<svg
   xmlns:dc="http://purl.org/dc/elements/1.1/"
   xmlns:cc="http://creativecommons.org/ns#"
   xmlns:rdf="http://www.w3.org/1999/02/22-rdf-syntax-ns#"
   xmlns:svg="http://www.w3.org/2000/svg"
   xmlns="http://www.w3.org/2000/svg"
   xmlns:sodipodi="http://sodipodi.sourceforge.net/DTD/sodipodi-0.dtd"
   xmlns:inkscape="http://www.inkscape.org/namespaces/inkscape"
   width="600"
   height="600"
   viewBox="0 0 158.75 158.75"
   version="1.1"
   id="svg8"
   inkscape:version="0.92.4 (5da689c313, 2019-01-14)"
   sodipodi:docname="action_update.svg">
  <defs
     id="defs2" />
  <sodipodi:namedview
     id="base"
     pagecolor="#ffffff"
     bordercolor="#666666"
     borderopacity="1.0"
     inkscape:pageopacity="0.0"
     inkscape:pageshadow="2"
     inkscape:zoom="0.35"
     inkscape:cx="-711.42858"
     inkscape:cy="560"
     inkscape:document-units="mm"
     inkscape:current-layer="layer1"
     showgrid="false"
     inkscape:pagecheckerboard="true"
     units="px"
     inkscape:window-width="1818"
     inkscape:window-height="1046"
     inkscape:window-x="91"
     inkscape:window-y="-11"
     inkscape:window-maximized="1" />
  <metadata
     id="metadata5">
    <rdf:RDF>
      <cc:Work
         rdf:about="">
        <dc:format>image/svg+xml</dc:format>
        <dc:type
           rdf:resource="http://purl.org/dc/dcmitype/StillImage" />
        <dc:title />
      </cc:Work>
    </rdf:RDF>
  </metadata>
  <g
     inkscape:label="Layer 1"
     inkscape:groupmode="layer"
     id="layer1"
     transform="translate(0,-138.24996)">
    <path
       style="fill:#000000;stroke-width:0.26458335"
       d="m 76.605069,253.82439 c -12.89858,-0.94311 -24.40343,-8.86934 -30.03558,-20.69292 -1.96615,-4.12753 -3.43421,-9.83726 -3.43421,-13.35664 0,-3.09503 2.53732,-4.8611 5.18136,-3.60642 1.25001,0.59317 1.86974,1.76299 2.08757,3.94058 1.24977,12.49374 9.70411,22.48117 21.78078,25.73047 2.30698,0.62071 3.03861,0.69094 7.1982,0.69094 4.18886,0 4.88182,-0.0676 7.26983,-0.7091 4.49818,-1.20839 10.3293,-4.48255 12.92543,-7.2576 l 0.748381,-0.79996 -2.916751,-0.0998 c -3.27269,-0.11201 -4.01512,-0.43192 -4.86345,-2.0956 -0.62739,-1.23038 -0.582,-2.37129 0.13715,-3.44779 1.20386,-1.80207 1.34832,-1.8242 11.913161,-1.82466 l 9.47103,-5.3e-4 -0.0783,9.77062 c -0.0754,9.40088 -0.0991,9.79888 -0.6263,10.51719 -1.69371,2.30753 -4.97563,2.06505 -6.26464,-0.46286 -0.37451,-0.73447 -0.46269,-1.60613 -0.46302,-4.57731 l -4.1e-4,-3.66995 -1.8807,1.77416 c -7.818851,7.3759 -17.683681,10.94245 -28.149511,10.17721 z m 33.802171,-34.81201 c -1.28959,-0.63574 -1.8065,-1.74906 -2.14413,-4.61807 -0.81633,-6.93665 -4.01072,-13.34816 -8.972321,-18.0085 -3.53429,-3.31969 -7.91137,-5.74427 -12.69046,-7.02957 -2.32839,-0.62621 -3.04966,-0.69574 -7.21714,-0.69574 -4.18885,0 -4.88181,0.0676 -7.26982,0.7091 -4.51318,1.21242 -10.22595,4.42522 -12.92543,7.26913 l -0.74839,0.78842 2.91676,0.0998 c 3.27269,0.11202 4.01512,0.43192 4.86345,2.0956 0.62739,1.23038 0.582,2.37129 -0.13715,3.4478 -1.20386,1.80207 -1.34832,1.82419 -11.91316,1.82465 l -9.47103,4.1e-4 0.0783,-9.77061 c 0.0754,-9.40088 0.0991,-9.79888 0.6263,-10.51719 1.69371,-2.30753 4.97563,-2.06505 6.26464,0.46286 0.37472,0.73487 0.46269,1.60668 0.46302,4.58866 l 4.1e-4,3.68143 1.78594,-1.70919 c 5.70191,-5.45688 12.38367,-8.79927 20.04219,-10.02562 2.66196,-0.42626 8.83606,-0.35791 11.57785,0.12817 7.45345,1.32139 14.498481,5.04856 19.797641,10.47392 5.8662,6.0059 9.64368,14.19772 10.20066,22.12105 0.15393,2.18972 0.11553,2.51055 -0.40035,3.34527 -1.00146,1.6204 -3.00499,2.1875 -4.7278,1.33819 z"
       id="path828"
       inkscape:connector-curvature="0" />
  </g>
</svg>
