<?xml version="1.0" encoding="UTF-8" standalone="no"?>
<svg
   viewBox="0 0 24 24"
   id="vector"
   version="1.1"
   sodipodi:docname="csv.svg"
   inkscape:version="1.2.1 (9c6d41e410, 2022-07-14, custom)"
   xml:space="preserve"
   xmlns:inkscape="http://www.inkscape.org/namespaces/inkscape"
   xmlns:sodipodi="http://sodipodi.sourceforge.net/DTD/sodipodi-0.dtd"
   xmlns="http://www.w3.org/2000/svg"
   xmlns:svg="http://www.w3.org/2000/svg"
   xmlns:rdf="http://www.w3.org/1999/02/22-rdf-syntax-ns#"
   xmlns:cc="http://creativecommons.org/ns#"
   xmlns:dc="http://purl.org/dc/elements/1.1/"><metadata
     id="metadata8"><rdf:RDF><cc:Work
         rdf:about=""><dc:format>image/svg+xml</dc:format><dc:type
           rdf:resource="http://purl.org/dc/dcmitype/StillImage" /></cc:Work></rdf:RDF></metadata><defs
     id="defs6" /><sodipodi:namedview
     pagecolor="#ffffff"
     bordercolor="#666666"
     borderopacity="1"
     objecttolerance="10"
     gridtolerance="10"
     guidetolerance="10"
     inkscape:pageopacity="0"
     inkscape:pageshadow="2"
     inkscape:window-width="1860"
     inkscape:window-height="1068"
     id="namedview4"
     showgrid="false"
     inkscape:zoom="9.8333333"
     inkscape:cx="-19.322034"
     inkscape:cy="-4.9830509"
     inkscape:window-x="54"
     inkscape:window-y="6"
     inkscape:window-maximized="1"
     inkscape:current-layer="vector"
     inkscape:showpageshadow="0"
     inkscape:pagecheckerboard="1"
     inkscape:deskcolor="#d1d1d1" /><path
     style="fill:#000000;stroke-width:0.0697674"
     d="m 17.028931,22.011628 -1.987458,-1.988377 h 1.481029 1.481029 l 0.01851,-2.005814 0.01851,-2.005813 0.994186,-0.01936 0.994186,-0.01936 v 2.023784 2.023784 l 1.46566,0.01883 1.465661,0.01883 -1.97193,1.970934 L 19.016385,24 Z M 5.4470801,21.911554 c -0.320008,-0.09734 -0.589952,-0.269393 -0.846512,-0.539529 -0.484712,-0.510362 -0.510967,-0.611044 -0.536282,-2.05653 l -0.02278,-1.30078 -0.779545,-0.02634 c -0.705398,-0.02383 -0.815106,-0.04588 -1.153415,-0.231879 -0.4548659,-0.250076 -0.8028829,-0.642088 -0.9479239,-1.067761 -0.16115501,-0.472965 -0.16115501,-5.904516 0,-6.37748 0.145041,-0.4256733 0.493058,-0.8176863 0.9479239,-1.0677623 0.338517,-0.186108 0.447811,-0.208043 1.155805,-0.231958 l 0.781935,-0.02641 0.02039,-2.800704 c 0.0198,-2.719598 0.02477,-2.808784 0.171456,-3.079772 0.179135,-0.330927 0.590149,-0.735931 0.93033,-0.916731 0.230195,-0.122345 0.519878,-0.130887 5.0559109,-0.149092 l 4.811724,-0.01931 2.496416,2.495692 2.496414,2.495692 v 3.5061763 3.506178 l -1.238372,0.0015 c -1.093517,0.0014 -1.275096,0.01812 -1.552326,0.143353 -0.421378,0.190346 -0.818139,0.582044 -1.019285,1.006278 -0.154603,0.326069 -0.165443,0.429664 -0.16608,1.587209 l -6.81e-4,1.238369 H 11.027011 6.0018401 l 0.01936,0.994185 0.01936,0.994187 3.106291,0.01815 3.1062919,0.01815 0.974169,0.976037 0.97417,0.976037 -4.2897639,-0.006 c -2.359369,-0.0033 -4.368454,-0.02993 -4.464633,-0.05919 z m 0.475115,-6.14828 c 0.605102,-0.302373 0.966576,-0.79291 1.089424,-1.478394 l 0.04689,-0.261628 h -0.517697 c -0.513788,0 -0.517997,0.0015 -0.557608,0.199561 -0.133067,0.665333 -1.004985,0.981999 -1.541613,0.559887 -0.320737,-0.252292 -0.389405,-0.478485 -0.389405,-1.282704 0,-0.804219 0.06867,-1.030412 0.389405,-1.282704 0.536628,-0.422113 1.408546,-0.105447 1.541613,0.559886 0.03961,0.198055 0.04382,0.199561 0.557608,0.199561 h 0.517697 l -0.04689,-0.261628 c -0.122848,-0.685484 -0.484322,-1.176021 -1.089424,-1.478394 -1.047698,-0.523541 -2.26911,-0.07267 -2.75983,1.018752 -0.173957,0.386903 -0.173957,2.102149 0,2.489052 0.343938,0.764963 1.051735,1.232218 1.866562,1.232218 0.380303,0 0.544708,-0.03929 0.893268,-0.213465 z m 4.4610709,0.106154 c 0.345967,-0.144554 0.501554,-0.293305 0.653982,-0.625246 0.38054,-0.8287 -0.03522,-1.609547 -1.1503849,-2.160561 -0.590619,-0.291831 -0.742201,-0.448972 -0.740589,-0.767754 0.0013,-0.252523 0.05104,-0.33707 0.264652,-0.449606 0.335843,-0.176934 0.7807919,0.08704 0.7807919,0.463212 0,0.150487 0.02632,0.158895 0.497289,0.158895 h 0.497289 l -0.04555,-0.296511 c -0.108813,-0.708287 -0.703715,-1.169763 -1.5045059,-1.167073 -0.946353,0.0032 -1.467775,0.476144 -1.467775,1.331371 0,0.661851 0.274555,0.99217 1.241328,1.493452 0.279823,0.145092 0.57023,0.341937 0.6453489,0.437435 0.188248,0.23932 0.174273,0.542067 -0.03467,0.751009 -0.3466029,0.346604 -0.9061849,0.124799 -0.9888149,-0.391943 l -0.04382,-0.274019 h -0.479455 c -0.535759,0 -0.534556,-0.0015 -0.403526,0.518825 0.09779,0.388356 0.431187,0.790242 0.791229,0.95377 0.357078,0.162181 1.1275659,0.175001 1.4871809,0.02474 z m 4.95719,-2.317639 c 0.356806,-1.333137 0.647213,-2.447432 0.645349,-2.476212 -0.0019,-0.02878 -0.234332,-0.05233 -0.516596,-0.05233 h -0.513206 l -0.434663,1.691861 c -0.239064,0.930523 -0.456758,1.715089 -0.483763,1.743481 -0.027,0.02839 -0.250747,-0.732946 -0.497203,-1.691861 L 13.09227,11.023247 h -0.508415 c -0.279629,0 -0.509887,0.02355 -0.511686,0.05233 -0.0018,0.02878 0.288155,1.143314 0.644338,2.476745 l 0.647606,2.424418 0.663802,-5.58e-4 0.663803,-5.58e-4 0.648738,-2.423887 z m 2.665215,-5.0401652 v -0.488372 h -1.988372 -1.988372 v -2.023827 -2.023828 l -3.994186,0.01801 -3.9941859,0.01801 -0.01832,2.494186 -0.01832,2.494186 h 6.0008809 6.000881 z"
     id="path353" /></svg>
