<?xml version="1.0" encoding="UTF-8" standalone="no"?>
<svg
   viewBox="0 0 24 24"
   id="vector"
   version="1.1"
   sodipodi:docname="currency.svg"
   inkscape:version="1.2.1 (9c6d41e410, 2022-07-14, custom)"
   xml:space="preserve"
   xmlns:inkscape="http://www.inkscape.org/namespaces/inkscape"
   xmlns:sodipodi="http://sodipodi.sourceforge.net/DTD/sodipodi-0.dtd"
   xmlns="http://www.w3.org/2000/svg"
   xmlns:svg="http://www.w3.org/2000/svg"
   xmlns:rdf="http://www.w3.org/1999/02/22-rdf-syntax-ns#"
   xmlns:cc="http://creativecommons.org/ns#"
   xmlns:dc="http://purl.org/dc/elements/1.1/"><metadata
     id="metadata8"><rdf:RDF><cc:Work
         rdf:about=""><dc:format>image/svg+xml</dc:format><dc:type
           rdf:resource="http://purl.org/dc/dcmitype/StillImage" /><dc:title /></cc:Work></rdf:RDF></metadata><defs
     id="defs6" /><sodipodi:namedview
     pagecolor="#ffffff"
     bordercolor="#666666"
     borderopacity="1"
     objecttolerance="10"
     gridtolerance="10"
     guidetolerance="10"
     inkscape:pageopacity="0"
     inkscape:pageshadow="2"
     inkscape:window-width="1860"
     inkscape:window-height="1068"
     id="namedview4"
     showgrid="false"
     inkscape:zoom="17.875"
     inkscape:cx="12.027972"
     inkscape:cy="12.027972"
     inkscape:window-x="54"
     inkscape:window-y="6"
     inkscape:window-maximized="1"
     inkscape:current-layer="vector"
     inkscape:showpageshadow="0"
     inkscape:pagecheckerboard="1"
     inkscape:deskcolor="#d1d1d1" /><path
     style="fill:#000000;stroke-width:0.0805708"
     d="M 10.217689,23.391636 C 7.7131873,22.967544 5.6042786,21.886914 3.8517388,20.129649 2.2191564,18.492665 1.1629485,16.544372 0.65917016,14.240603 0.44680056,13.269442 0.44698186,10.708628 0.65948776,9.7328738 1.161021,7.4300163 2.2158397,5.4862465 3.8517388,3.850348 5.4511123,2.2509737 7.2863023,1.241787 9.5926243,0.69338443 10.620299,0.44902163 13.202179,0.42892673 14.241993,0.65719843 16.55431,1.164823 18.510801,2.2254772 20.1281,3.848178 c 1.593442,1.5987646 2.638994,3.4960694 3.154095,5.7235548 0.253717,1.0971742 0.291826,3.0913512 0.08237,4.3105382 -0.415206,2.416846 -1.4987,4.50798 -3.235815,6.245095 -2.235471,2.235472 -5.063624,3.398463 -8.206943,3.374856 -0.604913,-0.0045 -1.371768,-0.0543 -1.704123,-0.110588 z m 2.900549,-4.217152 v -0.871452 l 0.442869,-0.183559 c 1.148311,-0.475949 1.893685,-1.704867 1.893685,-3.122173 0,-1.72367 -0.727982,-2.734125 -2.700439,-3.748272 -1.773256,-0.911726 -1.996366,-1.144412 -1.996366,-2.0820592 0,-0.59462 0.177978,-1.0650791 0.477062,-1.2610466 0.468171,-0.3067573 1.168118,-0.2758584 1.536064,0.067808 0.299236,0.2794921 0.432697,0.5880656 0.493762,1.1416216 l 0.05479,0.496666 1.067564,0.02248 1.067563,0.02248 -0.0014,-0.30448 C 15.447051,7.9606479 14.613616,6.5115361 13.541248,6.0276285 L 13.118238,5.8367508 V 4.8842635 3.9317761 H 11.990247 10.862255 V 4.8842635 5.8367508 L 10.439259,6.0279002 C 9.2972433,6.5439694 8.6067843,7.7290217 8.6091983,9.1688778 c 0.002,1.1499002 0.267022,1.8085082 1.040217,2.5843582 0.4472897,0.448825 0.7127737,0.623181 1.7369827,1.14077 1.674779,0.846355 1.902604,1.090077 1.908092,2.041235 0.0033,0.579281 -0.173525,1.012783 -0.518204,1.270124 -0.23384,0.174585 -0.868018,0.262786 -1.302893,0.181203 -0.573275,-0.107551 -1.014654,-0.760328 -1.134888,-1.678446 l -0.05012,-0.382713 H 9.2340793 8.1797737 l 0.051645,0.610959 c 0.1344463,1.590501 0.9609766,2.781753 2.2469813,3.2385 l 0.383855,0.136335 v 0.867367 0.867367 h 1.127992 1.127991 z"
     id="path373" /></svg>
