<?xml version="1.0" encoding="UTF-8" standalone="no"?>
<svg
   xmlns:dc="http://purl.org/dc/elements/1.1/"
   xmlns:cc="http://creativecommons.org/ns#"
   xmlns:rdf="http://www.w3.org/1999/02/22-rdf-syntax-ns#"
   xmlns:svg="http://www.w3.org/2000/svg"
   xmlns="http://www.w3.org/2000/svg"
   xmlns:sodipodi="http://sodipodi.sourceforge.net/DTD/sodipodi-0.dtd"
   xmlns:inkscape="http://www.inkscape.org/namespaces/inkscape"
   viewBox="0 0 24 24"
   id="vector"
   version="1.1"
   sodipodi:docname="export.svg"
   inkscape:version="0.92.4 (5da689c313, 2019-01-14)">
  <metadata
     id="metadata8">
    <rdf:RDF>
      <cc:Work
         rdf:about="">
        <dc:format>image/svg+xml</dc:format>
        <dc:type
           rdf:resource="http://purl.org/dc/dcmitype/StillImage" />
        <dc:title></dc:title>
      </cc:Work>
    </rdf:RDF>
  </metadata>
  <defs
     id="defs6" />
  <sodipodi:namedview
     pagecolor="#ffffff"
     bordercolor="#666666"
     borderopacity="1"
     objecttolerance="10"
     gridtolerance="10"
     guidetolerance="10"
     inkscape:pageopacity="0"
     inkscape:pageshadow="2"
     inkscape:window-width="1818"
     inkscape:window-height="1046"
     id="namedview4"
     showgrid="false"
     inkscape:zoom="9.8333333"
     inkscape:cx="12"
     inkscape:cy="12"
     inkscape:window-x="91"
     inkscape:window-y="-11"
     inkscape:window-maximized="1"
     inkscape:current-layer="vector" />
  <path
     style="fill:#000000;stroke-width:0.0762113"
     d="M 1.6229333,22.455331 C 1.0795088,22.343137 0.64382556,22.000575 0.35509476,21.458477 0.21873738,21.202461 0.21302437,20.822476 0.21302437,12.008276 V 2.8248156 L 0.37751983,2.5199708 C 0.56999936,2.1632657 0.86854318,1.870138 1.2418773,1.6712934 1.4912609,1.538467 1.7838268,1.527677 5.7383426,1.5054609 c 2.3263495,-0.01307 4.3840544,-0.0019 4.5726774,0.02492 0.329227,0.04674 0.444681,0.1498584 2.885011,2.5768411 1.415286,1.4075459 2.58917,2.6368593 2.648342,2.7733957 0.0819,0.1889795 0.106285,0.7003749 0.106285,2.2291802 V 11.09374 l -2.991293,0.0018 c -1.645212,9.98e-4 -3.1253007,0.0329 -3.2890871,0.07089 -0.4637973,0.107575 -0.6929531,0.385962 -0.6929531,0.841822 0,0.45586 0.2291557,0.734245 0.6929531,0.841825 0.1637864,0.03799 1.6438751,0.06989 3.2890871,0.07089 l 2.991293,0.0018 v 3.967345 c 0,2.641425 -0.02812,4.079016 -0.08413,4.301477 -0.102906,0.408673 -0.510392,0.900374 -0.933854,1.126848 l -0.315709,0.168847 -6.3636416,0.01154 c -3.5000037,0.0063 -6.483676,-0.01324 -6.6303824,-0.04353 z M 18.855123,16.157198 c -0.270236,-0.22739 -0.37251,-0.621073 -0.242736,-0.934373 0.04839,-0.116831 0.549595,-0.673077 1.113784,-1.236104 0.564187,-0.563027 1.025795,-1.049883 1.025795,-1.081903 0,-0.03202 -1.080294,-0.05822 -2.400655,-0.05822 h -2.400656 v -0.838323 -0.838324 h 2.400656 c 1.320361,0 2.400655,-0.02425 2.400655,-0.05389 0,-0.02964 -0.477384,-0.535493 -1.060855,-1.1241164 -0.638283,-0.6439201 -1.081757,-1.1537079 -1.113325,-1.279806 -0.07483,-0.2989127 0.01461,-0.5767104 0.26694,-0.8290362 0.180289,-0.1802904 0.283422,-0.2188685 0.585101,-0.2188685 h 0.366233 l 1.959436,1.9624404 c 1.271869,1.2738167 1.977335,2.0359827 2.010442,2.1720217 0.02805,0.11527 0.02805,0.303892 0,0.419163 -0.03312,0.136038 -0.738573,0.898204 -2.010442,2.172021 L 19.79606,16.35232 h -0.354523 c -0.269196,0 -0.410335,-0.04696 -0.586414,-0.195122 z"
     id="path839"
     inkscape:connector-curvature="0" />
</svg>
