<?xml version="1.0" encoding="UTF-8" standalone="no"?>
<svg
   xmlns:dc="http://purl.org/dc/elements/1.1/"
   xmlns:cc="http://creativecommons.org/ns#"
   xmlns:rdf="http://www.w3.org/1999/02/22-rdf-syntax-ns#"
   xmlns:svg="http://www.w3.org/2000/svg"
   xmlns="http://www.w3.org/2000/svg"
   xmlns:sodipodi="http://sodipodi.sourceforge.net/DTD/sodipodi-0.dtd"
   xmlns:inkscape="http://www.inkscape.org/namespaces/inkscape"
   viewBox="0 0 24 24"
   id="vector"
   version="1.1"
   sodipodi:docname="import.svg"
   inkscape:version="0.92.4 (5da689c313, 2019-01-14)">
  <metadata
     id="metadata8">
    <rdf:RDF>
      <cc:Work
         rdf:about="">
        <dc:format>image/svg+xml</dc:format>
        <dc:type
           rdf:resource="http://purl.org/dc/dcmitype/StillImage" />
        <dc:title></dc:title>
      </cc:Work>
    </rdf:RDF>
  </metadata>
  <defs
     id="defs6" />
  <sodipodi:namedview
     pagecolor="#ffffff"
     bordercolor="#666666"
     borderopacity="1"
     objecttolerance="10"
     gridtolerance="10"
     guidetolerance="10"
     inkscape:pageopacity="0"
     inkscape:pageshadow="2"
     inkscape:window-width="1818"
     inkscape:window-height="1046"
     id="namedview4"
     showgrid="false"
     inkscape:zoom="9.8333333"
     inkscape:cx="12"
     inkscape:cy="12"
     inkscape:window-x="91"
     inkscape:window-y="-11"
     inkscape:window-maximized="1"
     inkscape:current-layer="vector" />
  <path
     style="fill:#000000;stroke-width:0.07611862"
     d="m 3.3539487,22.424834 c -0.490845,-0.0959 -0.907867,-0.41903 -1.157508,-0.8969 l -0.212627,-0.40701 v -9.11685 -9.1168499 l 0.212627,-0.40701 c 0.260089,-0.49787 0.669579,-0.80001 1.224986,-0.90385 0.537679,-0.10053 8.4014183,-0.10207 8.7622813,-0.002 0.205672,0.0572 0.86083,0.66945 2.873478,2.68531 l 2.607063,2.61123 v 2.10973 2.1097399 h -3.705257 -3.705258 l 1.079165,-1.0953102 c 1.043504,-1.0590997 1.079165,-1.1058797 1.079165,-1.4154797 0,-0.73218 -0.645481,-1.1393 -1.278767,-0.80655 -0.11305,0.0594 -1.03619,0.94434 -2.0514223,1.9665297 l -1.845877,1.8585302 v 0.4057 0.4057 l 1.845877,1.85853 c 1.0152323,1.02219 1.9383723,1.90713 2.0514223,1.96653 0.633286,0.33275 1.278767,-0.0744 1.278767,-0.80656 0,-0.30959 -0.03566,-0.35637 -1.079165,-1.41547 l -1.079165,-1.09531 h 3.705258 3.705257 v 4.10172 4.10171 l -0.212628,0.40701 c -0.260088,0.49787 -0.669579,0.80001 -1.224986,0.90385 -0.510373,0.0954 -12.3815353,0.089 -12.8726863,-0.007 z M 17.664249,12.004074 v -0.83731 h 1.935169 1.935169 l 0.234212,0.23422 c 0.401624,0.40162 0.299238,1.10084 -0.198467,1.35537 -0.109121,0.0558 -0.808925,0.085 -2.036173,0.085 h -1.86991 z"
     id="path826"
     inkscape:connector-curvature="0" />
</svg>
