<?xml version="1.0" encoding="UTF-8" standalone="no"?>
<svg
   xmlns:dc="http://purl.org/dc/elements/1.1/"
   xmlns:cc="http://creativecommons.org/ns#"
   xmlns:rdf="http://www.w3.org/1999/02/22-rdf-syntax-ns#"
   xmlns:svg="http://www.w3.org/2000/svg"
   xmlns="http://www.w3.org/2000/svg"
   xmlns:sodipodi="http://sodipodi.sourceforge.net/DTD/sodipodi-0.dtd"
   xmlns:inkscape="http://www.inkscape.org/namespaces/inkscape"
   height="24px"
   viewBox="0 0 24 24"
   width="24px"
   fill="#000000"
   version="1.1"
   id="svg6"
   sodipodi:docname="infinity.svg"
   inkscape:version="0.92.4 (5da689c313, 2019-01-14)">
  <metadata
     id="metadata12">
    <rdf:RDF>
      <cc:Work
         rdf:about="">
        <dc:format>image/svg+xml</dc:format>
        <dc:type
           rdf:resource="http://purl.org/dc/dcmitype/StillImage" />
      </cc:Work>
    </rdf:RDF>
  </metadata>
  <defs
     id="defs10">
    <filter
       style="color-interpolation-filters:sRGB"
       inkscape:label="Feather"
       id="filter872">
      <feGaussianBlur
         stdDeviation="2"
         result="blur"
         id="feGaussianBlur864" />
      <feComposite
         in="SourceGraphic"
         in2="blur"
         operator="atop"
         result="composite1"
         id="feComposite866" />
      <feComposite
         in2="composite1"
         operator="in"
         result="composite2"
         id="feComposite868" />
      <feComposite
         in2="composite2"
         operator="in"
         result="composite3"
         id="feComposite870" />
    </filter>
    <clipPath
       clipPathUnits="userSpaceOnUse"
       id="clipPath882">
      <rect
         style="opacity:0.5;fill:#808000;fill-opacity:1;stroke:none;stroke-width:3.17499995;stroke-miterlimit:4;stroke-dasharray:none;stroke-opacity:1"
         id="rect884"
         width="48.569939"
         height="26.36384"
         x="-62.366074"
         y="150.66653" />
    </clipPath>
    <clipPath
       clipPathUnits="userSpaceOnUse"
       id="clipPath974">
      <rect
         style="opacity:0.5;fill:#808000;fill-opacity:1;stroke:none;stroke-width:3.17499995;stroke-miterlimit:4;stroke-dasharray:none;stroke-opacity:1"
         id="rect972"
         width="48.569939"
         height="26.36384"
         x="-62.366074"
         y="150.66653" />
    </clipPath>
  </defs>
  <sodipodi:namedview
     pagecolor="#ffffff"
     bordercolor="#666666"
     borderopacity="1"
     objecttolerance="10"
     gridtolerance="10"
     guidetolerance="10"
     inkscape:pageopacity="0"
     inkscape:pageshadow="2"
     inkscape:window-width="1825"
     inkscape:window-height="1046"
     id="namedview8"
     showgrid="false"
     inkscape:zoom="9.8333333"
     inkscape:cx="-11.440678"
     inkscape:cy="12"
     inkscape:window-x="84"
     inkscape:window-y="-11"
     inkscape:window-maximized="1"
     inkscape:current-layer="svg6" />
  <path
     d="M0 0h24v24H0V0z"
     fill="none"
     id="path2" />
  <path
     d="m 18.6,6.62 c -1.44,0 -2.8,0.56 -3.77,1.53 L 12,10.66 10.48,12 h 0.0099 L 7.8,14.39 c -0.64,0.64 -1.49,0.99 -2.4,0.99 -1.87,0 -3.39,-1.51 -3.39,-3.38 0,-1.87 1.52,-3.38 3.39,-3.38 0.91,0 1.76,0.35 2.44,1.03 l 1.13,1 L 10.48,9.31 9.22,8.2 C 8.2,7.18 6.84,6.62 5.4,6.62 2.42,6.62 0,9.04 0,12 c 0,2.96 2.42,5.38 5.4,5.38 1.44,0 2.8,-0.56 3.77,-1.53 l 2.83,-2.5 0.0099,0.0099 1.51,-1.36 H 13.51 L 16.2,9.61 c 0.64,-0.64 1.49,-0.99 2.4,-0.99 1.87,0 3.39,1.51 3.39,3.38 0,1.87 -1.52,3.38 -3.39,3.38 -0.9,0 -1.76,-0.35 -2.44,-1.03 l -1.14,-1.01 -1.51,1.34 1.27,1.12 c 1.02,1.01 2.37,1.57 3.82,1.57 2.98,0 5.4,-2.41 5.4,-5.38 0,-2.97 -2.42,-5.37 -5.4,-5.37 z"
     id="path4"
     inkscape:connector-curvature="0"
     style="stroke-width:1" />
</svg>
