<?xml version="1.0" encoding="UTF-8" standalone="no"?>
<!-- Created with Inkscape (http://www.inkscape.org/) -->

<svg
   xmlns:dc="http://purl.org/dc/elements/1.1/"
   xmlns:cc="http://creativecommons.org/ns#"
   xmlns:rdf="http://www.w3.org/1999/02/22-rdf-syntax-ns#"
   xmlns:svg="http://www.w3.org/2000/svg"
   xmlns="http://www.w3.org/2000/svg"
   xmlns:sodipodi="http://sodipodi.sourceforge.net/DTD/sodipodi-0.dtd"
   xmlns:inkscape="http://www.inkscape.org/namespaces/inkscape"
   width="600"
   height="600"
   viewBox="0 0 158.75 158.75"
   version="1.1"
   id="svg8"
   inkscape:version="0.92.4 (5da689c313, 2019-01-14)"
   sodipodi:docname="menu.svg">
  <defs
     id="defs2" />
  <sodipodi:namedview
     id="base"
     pagecolor="#ffffff"
     bordercolor="#666666"
     borderopacity="1.0"
     inkscape:pageopacity="0.0"
     inkscape:pageshadow="2"
     inkscape:zoom="0.35"
     inkscape:cx="-711.42858"
     inkscape:cy="560"
     inkscape:document-units="mm"
     inkscape:current-layer="layer1"
     showgrid="false"
     units="px"
     inkscape:window-width="1818"
     inkscape:window-height="1046"
     inkscape:window-x="91"
     inkscape:window-y="-11"
     inkscape:window-maximized="1" />
  <metadata
     id="metadata5">
    <rdf:RDF>
      <cc:Work
         rdf:about="">
        <dc:format>image/svg+xml</dc:format>
        <dc:type
           rdf:resource="http://purl.org/dc/dcmitype/StillImage" />
        <dc:title />
      </cc:Work>
    </rdf:RDF>
  </metadata>
  <g
     inkscape:label="Layer 1"
     inkscape:groupmode="layer"
     id="layer1"
     transform="translate(0,-138.24998)">
    <path
       style="fill:#000000;stroke-width:0.25116789"
       d="m 45.317772,241.52603 c -0.94119,-0.51472 -1.47783,-1.55979 -1.47783,-2.87801 0,-0.7454 0.1849,-1.17081 0.81067,-1.86522 l 0.81067,-0.89959 h 33.90513 33.905118 l 0.81067,0.89959 c 0.91359,1.01378 1.07548,2.26263 0.46353,3.57579 -0.79782,1.71203 1.42764,1.61066 -35.215358,1.60402 -30.20018,-0.005 -33.297,-0.0452 -34.0126,-0.43658 z m -0.66716,-21.88824 c -0.66458,-0.73747 -0.81067,-1.09983 -0.81067,-2.01083 0,-0.911 0.14609,-1.27336 0.81067,-2.01083 l 0.81067,-0.89959 h 33.90513 33.905118 l 0.81067,0.89959 c 0.66459,0.73747 0.81067,1.09983 0.81067,2.01083 0,0.911 -0.14608,1.27336 -0.81067,2.01083 l -0.81067,0.89959 H 79.366412 45.461282 Z m 0.71247,-20.52497 c -1.33794,-0.60366 -1.90776,-2.64721 -1.17599,-4.21749 0.79763,-1.71162 -1.42204,-1.61004 35.17932,-1.61004 30.224328,0 33.262668,0.0386 34.010728,0.43255 1.61843,0.85223 2.02485,3.16012 0.82002,4.65651 l -0.69572,0.86407 -33.817408,0.0508 c -18.59958,0.0279 -34.044,-0.0514 -34.32095,-0.17639 z"
       id="path826"
       inkscape:connector-curvature="0" />
  </g>
</svg>
