<svg
    xmlns="http://www.w3.org/2000/svg"
    viewBox="0 0 24 24"
    id="vector">
    <path
        id="path"
        d="M 17.25 13.05 L 12 13.05 L 12 18.3 L 17.25 18.3 Z M 16.2 1.5 L 16.2 3.6 L 7.8 3.6 L 7.8 1.5 L 5.7 1.5 L 5.7 3.6 L 4.65 3.6 C 3.485 3.6 2.561 4.545 2.561 5.7 L 2.55 20.4 C 2.55 21.555 3.485 22.5 4.65 22.5 L 19.35 22.5 C 20.505 22.5 21.45 21.555 21.45 20.4 L 21.45 5.7 C 21.45 4.545 20.505 3.6 19.35 3.6 L 18.3 3.6 L 18.3 1.5 Z M 19.35 20.4 L 4.65 20.4 L 4.65 8.85 L 19.35 8.85 Z"
        fill="#000000"
        stroke-width="1.05000007"/>
</svg>
