<?xml version="1.0" encoding="UTF-8" standalone="no"?>
<svg
   xmlns:dc="http://purl.org/dc/elements/1.1/"
   xmlns:cc="http://creativecommons.org/ns#"
   xmlns:rdf="http://www.w3.org/1999/02/22-rdf-syntax-ns#"
   xmlns:svg="http://www.w3.org/2000/svg"
   xmlns="http://www.w3.org/2000/svg"
   xmlns:sodipodi="http://sodipodi.sourceforge.net/DTD/sodipodi-0.dtd"
   xmlns:inkscape="http://www.inkscape.org/namespaces/inkscape"
   viewBox="0 0 24 24"
   id="vector"
   version="1.1"
   sodipodi:docname="currency.svg"
   inkscape:version="0.92.4 (5da689c313, 2019-01-14)">
  <metadata
     id="metadata8">
    <rdf:RDF>
      <cc:Work
         rdf:about="">
        <dc:format>image/svg+xml</dc:format>
        <dc:type
           rdf:resource="http://purl.org/dc/dcmitype/StillImage" />
        <dc:title></dc:title>
      </cc:Work>
    </rdf:RDF>
  </metadata>
  <defs
     id="defs6" />
  <sodipodi:namedview
     pagecolor="#ffffff"
     bordercolor="#666666"
     borderopacity="1"
     objecttolerance="10"
     gridtolerance="10"
     guidetolerance="10"
     inkscape:pageopacity="0"
     inkscape:pageshadow="2"
     inkscape:window-width="1818"
     inkscape:window-height="1046"
     id="namedview4"
     showgrid="false"
     inkscape:zoom="4.9166667"
     inkscape:cx="12"
     inkscape:cy="12"
     inkscape:window-x="91"
     inkscape:window-y="-11"
     inkscape:window-maximized="1"
     inkscape:current-layer="vector" />
  <path
     style="fill:#000000;stroke-width:0.0698809"
     d="m 15.249462,23.956266 c -3.075226,-0.47904 -5.5531065,-2.693667 -6.3692785,-5.692602 -0.173182,-0.636343 -0.190164,-0.808137 -0.189978,-1.921725 2.1e-4,-1.100319 0.01863,-1.291416 0.18396,-1.90617 0.210273,-0.781851 0.666856,-1.789667 1.09927,-2.426421 0.3881405,-0.571566 1.1666575,-1.386776 1.7420345,-1.824148 0.637627,-0.4846966 1.861743,-1.0741362 2.695421,-1.2979075 0.632163,-0.1696799 0.815441,-0.1875885 1.921726,-0.1877713 1.11359,-2.057e-4 1.285387,0.0168 1.921725,0.189977 0.384343,0.1045714 1.017738,0.3451083 1.40754,0.5344682 2.075115,1.0080106 3.512798,2.7813016 4.131469,5.0959056 0.157588,0.589577 0.178824,0.805954 0.178824,1.822067 0,1.018846 -0.02101,1.231668 -0.180521,1.828742 -0.51568,1.930262 -1.65037,3.527712 -3.255164,4.582717 -1.230075,0.808663 -2.469467,1.197234 -3.959291,1.241302 -0.499649,0.01474 -1.097131,-0.0023 -1.327738,-0.0384 z m 3.80851,-3.910649 c 0.201083,-0.201074 0.180911,-0.516525 -0.04437,-0.693737 -0.176287,-0.138662 -0.26717,-0.144834 -2.134724,-0.144834 h -1.950595 l 0.214287,-0.311451 c 0.268276,-0.38992 0.700879,-1.285565 0.700879,-1.451062 0,-0.110971 0.07672,-0.124366 0.71628,-0.125223 0.878142,-0.0011 1.008968,-0.03371 1.138126,-0.28352 0.120342,-0.232719 0.0461,-0.504434 -0.169326,-0.619725 -0.07799,-0.04171 -0.550238,-0.07417 -1.080799,-0.07417 h -0.942286 l -0.139945,-0.22712 c -0.466888,-0.757703 -0.59043,-1.644125 -0.305743,-2.193736 0.422225,-0.815154 1.394947,-1.151816 2.219107,-0.768034 0.568138,0.26456 0.841921,0.659703 0.945671,1.364868 0.06052,0.411371 0.14575,0.534034 0.417175,0.600457 0.125417,0.03063 0.235591,-0.0023 0.37432,-0.1112 0.184046,-0.144777 0.194848,-0.181817 0.169249,-0.580468 -0.102171,-1.591039 -1.771767,-2.758227 -3.312127,-2.31545 -1.687878,0.485188 -2.380387,2.193084 -1.609156,3.96858 l 0.113829,0.262057 H 14.07797 c -0.398678,0 -0.610781,0.153383 -0.609404,0.440708 0.0019,0.415029 0.208918,0.537623 0.907497,0.537623 0.484509,0 0.497131,0.0046 0.450661,0.157234 -0.07559,0.248606 -0.482871,0.894594 -0.93947,1.490102 -0.457017,0.596045 -0.519891,0.838125 -0.279996,1.078011 0.134725,0.134731 0.232935,0.139771 2.725356,0.139771 2.492419,0 2.590629,-0.0046 2.725354,-0.139771 z M 4.2949384,23.558289 3.96387,23.227215 4.7488032,22.44005 5.5337365,21.652885 4.7312467,21.650599 C 3.0340375,21.646028 2.2067146,21.383205 1.4479836,20.607537 0.612183,19.75308 0.4721122,19.234338 0.4706836,16.988202 l -0.00103,-1.624731 H 0.9545253 1.439397 l 0.02176,1.799439 c 0.021669,1.791839 0.022549,1.800902 0.2066559,2.148833 0.2455016,0.463954 0.7039939,0.906411 1.1769101,1.135771 0.3608387,0.175006 0.4582043,0.188446 1.5382573,0.212286 l 1.1530347,0.02548 -0.786932,-0.793439 -0.7869321,-0.79344 0.3513883,-0.346102 0.3513884,-0.346114 1.3616826,1.36169 1.3616825,1.361679 -1.3811442,1.379851 -1.3811443,1.37985 z m 2.4639939,-8.23996 C 4.3645521,14.958717 2.5072127,13.796261 1.2375072,11.862605 0.7694355,11.149771 0.4555751,10.430057 0.2066484,9.4987664 0.0490611,8.9091896 0.0278245,8.6928126 0.0278245,7.676699 c 0,-1.0188451 0.021006,-1.2316678 0.180521,-1.8287532 C 1.3550865,1.5555371 5.6208141,-0.90449573 9.8114125,0.30989217 12.877109,1.198303 15.106807,3.9324727 15.327649,7.0741965 l 0.04497,0.6397367 -0.620625,0.1176228 C 11.230418,8.4989956 8.4903885,11.23608 7.8239774,14.752146 L 7.7080861,15.363597 7.32086,15.354497 c -0.2129714,-0.0058 -0.4658387,-0.02141 -0.5619255,-0.03581 z m 1.2134918,-2.964673 c 0.166873,-0.131268 0.1841267,-0.189657 0.1841267,-0.623142 v -0.478309 l 0.3603917,-0.07726 C 9.6338095,10.935429 10.357484,10.050686 10.349449,8.9345953 10.342021,7.8965502 9.7837825,7.2527106 8.5583655,6.868688 L 8.1565508,6.7427567 V 5.4277861 c 0,-0.7232338 0.016971,-1.3149706 0.037726,-1.3149706 0.094857,0 0.5684487,0.2781255 0.6758847,0.3969254 0.0658,0.0728 0.185189,0.2805027 0.265324,0.4616683 l 0.1457,0.3293713 h 0.445323 0.4453235 L 10.099672,5.0387349 C 9.8496605,4.1307583 9.2681785,3.4967702 8.5094075,3.3048731 L 8.1914879,3.2245303 8.1565508,2.7007364 C 8.1161737,2.0953882 8.0248435,1.946554 7.6937682,1.946554 c -0.3945517,0 -0.5155505,0.188617 -0.5155505,0.8036338 0,0.4523083 -0.016754,0.5242054 -0.1222913,0.5247882 C 6.790962,3.2761189 6.1511315,3.6473529 5.8364174,3.9819013 5.2716006,4.5823238 5.0870156,5.381489 5.3267183,6.1886542 5.4946599,6.7541738 5.9170711,7.0974536 6.776402,7.3667563 L 7.1782177,7.4926762 V 8.9134067 10.334149 L 6.9295504,10.230263 C 6.3746251,9.9984006 6.0223019,9.5527549 5.9467111,8.9870867 L 5.9023568,8.6551441 H 5.4961982 c -0.2233873,0 -0.4247437,0.030057 -0.447458,0.066857 -0.078811,0.1275084 0.1790273,1.013771 0.3910489,1.3441819 0.3612752,0.562994 0.918196,0.966377 1.4796265,1.071702 l 0.2588033,0.04857 v 0.484572 c 0,0.421303 0.0224,0.50696 0.1715256,0.656091 0.2095473,0.209543 0.380882,0.216891 0.6226807,0.02674 z M 8.1565508,9.1042638 V 7.8070417 l 0.1572319,0.047429 c 0.8605328,0.2595423 1.1576648,0.7520905 0.9671808,1.6032557 -0.09721,0.4343885 -0.273617,0.6204796 -0.765237,0.8072796 l -0.3591757,0.13648 z M 6.7864042,6.3526084 C 6.5535061,6.2190313 6.3896433,6.0638657 6.3147085,5.9059458 6.1649658,5.5903917 6.1684926,5.0492035 6.3222514,4.7431008 6.4543244,4.480221 6.8400625,4.1826554 7.0487572,4.1826554 c 0.1209062,0 0.1294274,0.078171 0.1294274,1.1879764 0,0.6533825 -0.00789,1.1876793 -0.017474,1.187325 -0.0096,-3.657e-4 -0.1780639,-0.0928 -0.3743438,-0.2053484 z M 22.538842,6.8556023 C 22.517172,5.0637635 22.516293,5.0546892 22.332186,4.7067694 22.087136,4.2436725 21.628952,3.80101 21.155276,3.5697301 20.782669,3.3877988 20.724279,3.3808617 19.372436,3.358096 L 17.974817,3.334553 18.761748,4.1273411 19.54868,4.9201406 19.197518,5.2660261 18.846357,5.6119002 17.48465,4.2515353 16.122941,2.8911704 l 1.378643,-1.3799305 1.378644,-1.37994203 0.334227,0.3291998 0.334226,0.32919978 -0.785791,0.78803375 -0.785793,0.7880224 1.047074,0.00229 c 1.462647,0.00343 1.983162,0.081143 2.619395,0.3931312 0.924761,0.453474 1.601871,1.320102 1.80956,2.3160328 0.04338,0.2080113 0.07722,1.0732337 0.07722,1.9741359 v 1.6038234 h -0.484869 -0.484872 z"
     id="path852"
     inkscape:connector-curvature="0" />
</svg>
